<svg id="Layer_1" data-name="Layer 1" xmlns="http://www.w3.org/2000/svg" viewBox="0 0 831.78 175.16"><defs><style>.cls-1{fill:#3aaa35;stroke:#fff;stroke-miterlimit:10;}</style></defs><path className="cls-1" d="M91.88,181.38H7.14V34.12L43.28,34V147.73h58.26Z" transform="translate(-6.64 -9.84)"/><path className="cls-1" d="M229.42,105.05a54.57,54.57,0,0,1,4.67,22.43v.94a7,7,0,0,1-.1,1.14l-.21,1.76H220.9v.21H149.45a26.91,26.91,0,0,0,26.28,22.95,25.54,25.54,0,0,0,18.69-7.89l.21-.21.31-.41.31-.31.21-.32,17.86,25.55a62,62,0,0,1-15.58,9.45,59.74,59.74,0,0,1-22,4.15A58.29,58.29,0,0,1,147,177.12a56.47,56.47,0,0,1-21.5-20.46,54,54,0,0,1-8.1-29.18A53.48,53.48,0,0,1,122,105.05,55.86,55.86,0,0,1,134.91,87,57,57,0,0,1,153.61,75a60.56,60.56,0,0,1,22.12-4.16,59.75,59.75,0,0,1,22,4.16,57.41,57.41,0,0,1,18.8,11.84A54.26,54.26,0,0,1,229.42,105.05Zm-53.69-4.15a25.75,25.75,0,0,0-13.09,3.53,30.86,30.86,0,0,0-7.27,6.44h40.71a30.67,30.67,0,0,0-7.27-6.44A25.72,25.72,0,0,0,175.73,100.9Z" transform="translate(-6.64 -9.84)"/><path className="cls-1" d="M338.71,178.26c-2.22,1-3.84,1.63-4.88,2a64.74,64.74,0,0,1-53.07-3.12,59,59,0,0,1-22.43-20.35A54.88,54.88,0,0,1,254.8,105a56.24,56.24,0,0,1,13.4-18.07,57.92,57.92,0,0,1,19.52-11.74,63.86,63.86,0,0,1,23-4.26A65.88,65.88,0,0,1,333.83,75a58,58,0,0,1,19.52,11.84A56.52,56.52,0,0,1,366.85,105a52.86,52.86,0,0,1,4.88,22.63l-.1,54.11-32.92-.31Zm-51.82-64.07a24.72,24.72,0,0,0-3.84,13.39,25.48,25.48,0,0,0,8.3,19,28,28,0,0,0,38.95,0,25.49,25.49,0,0,0,8.31-19,24.73,24.73,0,0,0-3.85-13.39,28.33,28.33,0,0,0-10.28-9.76,28.18,28.18,0,0,0-27.31,0A28.33,28.33,0,0,0,286.89,114.19Z" transform="translate(-6.64 -9.84)"/><path className="cls-1" d="M442.08,102.76a13,13,0,0,0-6.75-2h-1.87q-12.66.52-12.67,17.66v62.93H387.56V118.45q0-45.39,45.9-47.67h1.87a55.5,55.5,0,0,1,6.75.62Z" transform="translate(-6.64 -9.84)"/><path className="cls-1" d="M503.81,100.9q-12.68.51-12.67,17.65v62.83H457.91V118.55q0-45.37,45.9-47.67h1.87q45.9,2.3,45.9,47.67v62.83H518.35V118.55q0-17.13-12.67-17.65Z" transform="translate(-6.64 -9.84)"/><path className="cls-1" d="M599.6,53.85a17.87,17.87,0,0,1-6.23,6.23,17.27,17.27,0,0,1-17.34.11,17.68,17.68,0,0,1-6.23-6.34A17.46,17.46,0,0,1,567.41,45a17,17,0,0,1,2.29-8.72A18.43,18.43,0,0,1,576,30a16.47,16.47,0,0,1,8.62-2.29A17,17,0,0,1,593.37,30a17.59,17.59,0,0,1,6.23,6.33A17,17,0,0,1,601.89,45,16.87,16.87,0,0,1,599.6,53.85Zm2.19,21.29V181.59H568.66V75.24Z" transform="translate(-6.64 -9.84)"/><path className="cls-1" d="M663.62,69.12q-12.68.51-12.67,17.65V149.6H617.72V86.77q0-45.37,45.9-47.67h1.87q45.9,2.3,45.9,47.67V149.6H678.16V86.77q0-17.13-12.67-17.65Z" transform="translate(-6.64 -9.84)"/><path className="cls-1" d="M837.92,68l-.1,56.29V132a47.7,47.7,0,0,1-14.54,35q-6.75,6.75-18.07,10.7a62.81,62.81,0,0,1-21,3.74h-5.81q-23.68-.52-37.7-14.44-9.45-9.65-11.43-16.92L761,131.64a21,21,0,0,0,40.4,6.54l.1-.42.21-.52c.14-.48.27-1,.41-1.45a10.53,10.53,0,0,0,.52-2.49V133l.11-.32.1-.41v-.62h.1V120.73l-.83.42-.83.31a56.89,56.89,0,0,1-21.81,4.26,55.89,55.89,0,0,1-28.35-7.59,57.1,57.1,0,0,1-29.18-50.26A55.62,55.62,0,0,1,726.59,45a57.72,57.72,0,0,1,52.86-34.68q19.32,0,28.67,5Q837.93,28.1,837.92,68ZM762.63,86.36a26.48,26.48,0,0,0,37.91,0,26,26,0,0,0,4.36-32.3,27.19,27.19,0,0,0-23.37-13.29,25.93,25.93,0,0,0-13.19,3.53,27.77,27.77,0,0,0-10.07,9.76,26,26,0,0,0,4.36,32.3Z" transform="translate(-6.64 -9.84)"/></svg>