<svg width="1440" height="187" viewBox="0 0 1440 187" fill="none" xmlns="http://www.w3.org/2000/svg">
<path d="M1416.14 1.84213L1404.95 0.47998M1416.14 1.84213H1382.99M1416.14 1.84213L1427.69 3.24926M1416.14 1.84213H1439.61M1404.95 0.47998L1409.02 0.480512L1413.05 0.483461L1416.99 0.491754L1420.81 0.508086L1424.47 0.53459L1427.92 0.574484L1431.12 0.629902L1434.1 0.700574L1436.65 0.798297L1438.97 0.911543L1439.61 0.951209V1.84213M1404.95 0.47998H1372.33M1372.33 0.47998H1339.72M1372.33 0.47998L1382.99 1.84213M1339.72 0.47998H1307.1M1339.72 0.47998L1349.84 1.84213M1307.1 0.47998H1274.48M1307.1 0.47998L1316.69 1.84213M1274.48 0.47998H1241.87M1274.48 0.47998L1283.54 1.84213M1241.87 0.47998H1209.25M1241.87 0.47998L1250.39 1.84213M1209.25 0.47998H1176.63M1209.25 0.47998L1217.24 1.84213M1176.63 0.47998H1144.02M1176.63 0.47998L1184.09 1.84213M1144.02 0.47998H1111.4M1144.02 0.47998L1150.94 1.84213M1111.4 0.47998H1078.78M1111.4 0.47998L1117.79 1.84213M1078.78 0.47998H1046.17M1078.78 0.47998L1084.64 1.84213M1046.17 0.47998H1013.55M1046.17 0.47998L1051.49 1.84213M1013.55 0.47998H980.933M1013.55 0.47998L1014.73 0.8165L1016.53 1.32597L1018.34 1.84213M980.933 0.47998H948.317M980.933 0.47998L981.985 0.8165L985.194 1.84213M948.317 0.47998H915.7M948.317 0.47998L952.045 1.84213M915.7 0.47998H883.083M915.7 0.47998L916.886 0.985695L918.088 1.49731L918.491 1.66945L918.896 1.84213M883.083 0.47998H850.467M883.083 0.47998L884.072 0.985695L884.404 1.15543L884.738 1.32597L885.747 1.84213M850.467 0.47998H817.85M850.467 0.47998L852.598 1.84213M817.85 0.47998L818.047 0.647836L818.244 0.8165L819.245 1.66945L819.448 1.84213M817.85 0.47998H785.234M785.234 0.47998H752.616M785.234 0.47998L786.299 1.84213M752.616 0.47998H720M752.616 0.47998L752.814 0.985695L753.149 1.84213M720 0.47998H687.384M720 0.47998V1.84213M687.384 0.47998H654.766M687.384 0.47998L687.186 0.985695L686.851 1.84213M654.766 0.47998H622.15M654.766 0.47998L653.701 1.84213M622.15 0.47998L621.953 0.647836L621.756 0.8165L620.755 1.66945L620.552 1.84213M622.15 0.47998H589.534M589.534 0.47998H556.916M589.534 0.47998L587.673 1.66945L587.402 1.84213M556.916 0.47998H524.3M556.916 0.47998L555.928 0.985695L555.596 1.15543L554.927 1.49731L554.591 1.66945L554.253 1.84213M524.3 0.47998H491.683M524.3 0.47998L523.114 0.985695L521.912 1.49731L521.509 1.66945L521.104 1.84213M491.683 0.47998H459.067M491.683 0.47998L487.955 1.84213M459.067 0.47998H426.45M459.067 0.47998L458.015 0.8165L454.806 1.84213M426.45 0.47998H393.833M426.45 0.47998L421.656 1.84213M393.833 0.47998H361.217M393.833 0.47998L388.507 1.84213M361.217 0.47998H328.6M361.217 0.47998L355.357 1.84213M328.6 0.47998H295.983M328.6 0.47998L322.208 1.84213M295.983 0.47998H263.367M295.983 0.47998L289.059 1.84213M263.367 0.47998H230.751M263.367 0.47998L255.909 1.84213M230.751 0.47998H198.133M230.751 0.47998L222.76 1.84213M198.133 0.47998H165.517M198.133 0.47998L189.61 1.84213M165.517 0.47998H132.9M165.517 0.47998L156.461 1.84213M132.9 0.47998H100.283M132.9 0.47998L123.312 1.84213M100.283 0.47998H67.6668M100.283 0.47998L90.163 1.84213M67.6668 0.47998H35.0504M67.6668 0.47998L57.0136 1.84213M35.0504 0.47998L30.9801 0.480512L26.9517 0.483461L23.0074 0.491754L19.1867 0.508086L15.5316 0.53459L12.0812 0.574484L8.87672 0.629902L5.90232 0.700574L3.34995 0.798297L1.0262 0.911543L0.387546 0.951217V1.84213M35.0504 0.47998L23.8641 1.84213M90.163 1.84213H123.312M90.163 1.84213H57.0136M90.163 1.84213L79.7053 3.24926M123.312 1.84213L113.405 3.24926M123.312 1.84213H156.461M222.76 1.84213H255.909M222.76 1.84213H189.61M222.76 1.84213L220.722 2.18963L214.505 3.24926M255.909 1.84213L248.204 3.24926M255.909 1.84213H289.059M355.357 1.84213H388.507M355.357 1.84213H322.208M355.357 1.84213L353.863 2.18963L353.11 2.36418L349.303 3.24926M388.507 1.84213L387.828 2.01534L387.148 2.18963L383.003 3.24926M388.507 1.84213H421.656M487.955 1.84213L487.48 2.01534L484.102 3.24926M487.955 1.84213H521.104M487.955 1.84213H454.806M521.104 1.84213L520.289 2.18963L519.878 2.36418L519.467 2.53981L517.802 3.24926M521.104 1.84213H554.253M620.552 1.84213H653.701M620.552 1.84213H587.402M620.552 1.84213L618.901 3.24926M653.701 1.84213L653.566 2.01534L653.43 2.18963L653.293 2.36418L652.879 2.89293L652.601 3.24926M653.701 1.84213H686.851M753.149 1.84213H786.299M753.149 1.84213H720M753.149 1.84213L753.7 3.24926M786.299 1.84213L786.434 2.01534L786.57 2.18963L786.707 2.36418L787.399 3.24926M786.299 1.84213H819.448M885.747 1.84213H918.896M885.747 1.84213H852.598M885.747 1.84213L886.426 2.18963L887.802 2.89293L888.149 3.0707L888.499 3.24926M918.896 1.84213L919.711 2.18963L920.122 2.36418L920.534 2.53981L922.198 3.24926M918.896 1.84213H952.045M1018.34 1.84213H1051.49M1018.34 1.84213H985.194M1018.34 1.84213L1019.57 2.18963L1020.18 2.36418L1023.3 3.24926M1051.49 1.84213L1052.17 2.01534L1052.85 2.18963L1057 3.24926M1051.49 1.84213H1084.64M1150.94 1.84213H1184.09M1150.94 1.84213H1117.79M1150.94 1.84213L1152.71 2.18963L1153.6 2.36418L1158.1 3.24926M1184.09 1.84213L1191.8 3.24926M1184.09 1.84213H1217.24M1283.54 1.84213H1316.69M1283.54 1.84213H1250.39M1283.54 1.84213L1292.89 3.24926M1316.69 1.84213L1326.6 3.24926M1316.69 1.84213H1349.84M0.271359 14.5802H0.387546M33.6366 14.5802L46.2928 12.7825M33.6366 14.5802L20.4955 16.4467M33.6366 14.5802H71.7679M33.6366 14.5802H0.387546M46.2928 12.7825H8.86473M46.2928 12.7825L58.491 11.0498M46.2928 12.7825H83.7209M8.86473 12.7825L21.7405 11.0498M8.86473 12.7825H0.387546M8.86473 12.7825L0.387546 13.923M46.1414 7.76595H81.6078M46.1414 7.76595L57.7137 6.20862M46.1414 7.76595H10.6758M46.1414 7.76595L34.1576 9.37868M81.6078 7.76595L92.5714 6.20862M81.6078 7.76595L70.2552 9.37868M81.6078 7.76595H117.074M57.7137 6.20862H92.5714M57.7137 6.20862L68.8954 4.70404M57.7137 6.20862H22.8567M92.5714 6.20862H127.428M92.5714 6.20862L103.164 4.70404M0.0224927 42.9557H0.387546M30.7904 42.9557L47.1106 39.9752M30.7904 42.9557L13.6591 46.0845M30.7904 42.9557H80.0202M30.7904 42.9557H0.387546M47.1106 39.9752L62.676 37.1326M47.1106 39.9752H95.174M47.1106 39.9752H0.387546M15.7243 37.1326H62.676M15.7243 37.1326L31.6472 34.4184M15.7243 37.1326H0.387546M15.7243 37.1326L0.387546 39.7467M46.8655 31.8242H91.7409M46.8655 31.8242L61.4257 29.3425M46.8655 31.8242H1.99018M46.8655 31.8242L31.6472 34.4184M91.7409 31.8242L105.331 29.3425M91.7409 31.8242L77.5368 34.4184M91.7409 31.8242H136.617M61.4257 29.3425H105.331M61.4257 29.3425H17.5211M61.4257 29.3425L75.3697 26.9657M105.331 29.3425L118.345 26.9657M105.331 29.3425H149.236M101.558 22.5017H142.787M101.558 22.5017L113.87 20.4031M101.558 22.5017H60.3283M101.558 22.5017L88.735 24.6874M142.787 22.5017L154.278 20.4031M142.787 22.5017L130.82 24.6874M142.787 22.5017H184.017M113.87 20.4031H154.278M113.87 20.4031H73.4612M113.87 20.4031L125.701 18.3863M154.278 20.4031L165.321 18.3863M154.278 20.4031H194.687M148.03 14.5802H186.161M148.03 14.5802L158.577 12.7825M148.03 14.5802H109.899M148.03 14.5802L137.079 16.4467M186.161 14.5802L196.005 12.7825M186.161 14.5802L175.941 16.4467M186.161 14.5802H224.293M158.577 12.7825H196.005M158.577 12.7825H121.149M158.577 12.7825L168.742 11.0498M196.005 12.7825L205.493 11.0498M196.005 12.7825H233.433M188.006 7.76595H223.473M188.006 7.76595L197.142 6.20862M188.006 7.76595H152.541M188.006 7.76595L178.546 9.37868M223.473 7.76595L231.999 6.20862M223.473 7.76595L214.642 9.37868M223.473 7.76595H258.939M197.142 6.20862H231.999M197.142 6.20862L205.97 4.70404M197.142 6.20862H162.285M231.999 6.20862H266.857M231.999 6.20862L240.239 4.70404M25.6092 94.6292L48.5784 88.7562M25.6092 94.6292L1.01196 100.918M25.6092 94.6292H95.0481M25.6092 94.6292H0.387546M48.5784 88.7562L70.0775 83.2594M48.5784 88.7562H115.72M48.5784 88.7562H0.387546M48.1121 73.258H109.193M48.1121 73.258L67.7403 68.6958M48.1121 73.258L27.2658 78.1037M48.1121 73.258H0.387546M109.193 73.258L127.036 68.6958M109.193 73.258L90.2417 78.1037M109.193 73.258H170.274M67.7403 68.6958H127.036M67.7403 68.6958H8.44421M67.7403 68.6958L86.2546 64.3922M127.036 68.6958L143.868 64.3922M127.036 68.6958H186.333M120.298 56.479H174.817M120.298 56.479L135.985 52.8329M120.298 56.479H65.7801M120.298 56.479L103.746 60.3266M174.817 56.479L189.077 52.8329M174.817 56.479L159.769 60.3266M174.817 56.479H229.335M135.985 52.8329H189.077M135.985 52.8329H82.8926M135.985 52.8329L150.871 49.3727M189.077 52.8329L202.611 49.3727M189.077 52.8329H242.169M178.478 42.9557H227.708M178.478 42.9557L191.301 39.9752M178.478 42.9557H129.249M178.478 42.9557L165.018 46.0845M227.708 42.9557L239.365 39.9752M227.708 42.9557L215.471 46.0845M227.708 42.9557H276.937M191.301 39.9752H239.365M191.301 39.9752H143.238M191.301 39.9752L203.531 37.1326M239.365 39.9752L250.483 37.1326M239.365 39.9752H287.428M226.368 31.8242H271.244M226.368 31.8242L237.046 29.3425M226.368 31.8242H181.492M226.368 31.8242L215.208 34.4184M271.244 31.8242L280.951 29.3425M271.244 31.8242L261.098 34.4184M271.244 31.8242H316.119M237.046 29.3425H280.951M237.046 29.3425H193.141M237.046 29.3425L247.271 26.9657M280.951 29.3425L290.247 26.9657M280.951 29.3425H324.856M266.476 22.5017H307.705M266.476 22.5017L275.504 20.4031M266.476 22.5017H225.246M266.476 22.5017L257.073 24.6874M307.705 22.5017L308.75 22.2348L315.913 20.4031M307.705 22.5017L299.157 24.6874M307.705 22.5017H348.935M275.504 20.4031H315.913M275.504 20.4031H235.096M275.504 20.4031L284.181 18.3863M315.913 20.4031L323.801 18.3863M315.913 20.4031H356.322M300.555 14.5802H338.687M300.555 14.5802L308.29 12.7825M300.555 14.5802H262.424M300.555 14.5802L292.525 16.4467M338.687 14.5802L345.718 12.7825M338.687 14.5802L335.982 15.272L331.386 16.4467M338.687 14.5802H376.818M308.29 12.7825H345.718M308.29 12.7825H270.862M308.29 12.7825L315.744 11.0498M345.718 12.7825L352.495 11.0498M345.718 12.7825H383.146M329.871 7.76595H365.338M329.871 7.76595L336.571 6.20862M329.871 7.76595H294.405M329.871 7.76595L322.934 9.37868M365.338 7.76595L369.926 6.59307L370.678 6.40031L371.429 6.20862M365.338 7.76595L359.03 9.37868M365.338 7.76595H400.804M336.571 6.20862H371.429M336.571 6.20862L343.045 4.70404M336.571 6.20862H301.714M371.429 6.20862H406.286M371.429 6.20862L377.313 4.70404M50.7679 161.53H146.373M50.7679 161.53L80.8717 150.534M50.7679 161.53L17.6882 173.613M50.7679 161.53L0.387546 161.53M146.373 161.53L172.176 150.534M146.373 161.53L118.019 173.613M146.373 161.53H241.977M80.8717 150.534H172.176M80.8717 150.534L108.384 140.485M80.8717 150.534H0.387546M172.176 150.534L195.758 140.485M172.176 150.534H263.48M156.866 122.777H237.314M156.866 122.777L178.334 114.935M156.866 122.777H76.4184M156.866 122.777L133.625 131.265M237.314 122.777L255.715 114.935M237.314 122.777L217.393 131.265M237.314 122.777H317.761M178.334 114.935H255.715M178.334 114.935H100.953M178.334 114.935L198.226 107.669M255.715 114.935L272.765 107.669M255.715 114.935H333.096M233.927 94.6292H303.365M233.927 94.6292L250.005 88.7562M233.927 94.6292H164.487M233.927 94.6292L216.708 100.918M303.365 94.6292L317.147 88.7562M303.365 94.6292L288.607 100.918M303.365 94.6292H372.804M250.005 88.7562H317.147M250.005 88.7562H182.863M250.005 88.7562L265.054 83.2594M317.147 88.7562L330.047 83.2594M317.147 88.7562H384.29M292.435 73.258H353.516M292.435 73.258L304.926 68.6958M292.435 73.258H231.355M292.435 73.258L279.169 78.1037M353.516 73.258L364.222 68.6958M353.516 73.258L342.145 78.1037M353.516 73.258H414.596M304.926 68.6958H364.222M304.926 68.6958H245.629M304.926 68.6958L316.707 64.3922M364.222 68.6958L374.321 64.3922M364.222 68.6958H423.518M338.372 56.479H392.89M338.372 56.479L348.354 52.8329M338.372 56.479H283.853M338.372 56.479L327.838 60.3266M392.89 56.479L401.446 52.8329M392.89 56.479L383.862 60.3266M392.89 56.479H447.409M348.354 52.8329H401.446M348.354 52.8329H295.262M348.354 52.8329L357.827 49.3727M401.446 52.8329L409.566 49.3727M401.446 52.8329H454.539M375.396 42.9557H424.625M375.396 42.9557L383.556 39.9752M375.396 42.9557H326.166M375.396 42.9557L366.83 46.0845M424.625 42.9557L431.619 39.9752M424.625 42.9557L417.282 46.0845M424.625 42.9557H473.854M383.556 39.9752H431.619M383.556 39.9752H335.492M383.556 39.9752L391.338 37.1326M431.619 39.9752L438.29 37.1326M431.619 39.9752H479.682M405.87 31.8242H450.747M405.87 31.8242L412.666 29.3425M405.87 31.8242H360.995M405.87 31.8242L398.769 34.4184M450.747 31.8242L456.57 29.3425M450.747 31.8242L444.659 34.4184M450.747 31.8242H495.622M412.666 29.3425H456.57M412.666 29.3425H368.76M412.666 29.3425L419.173 26.9657M456.57 29.3425L462.148 26.9657M456.57 29.3425H500.476M431.393 22.5017H472.624M431.393 22.5017L437.139 20.4031M431.393 22.5017H390.164M431.393 22.5017L425.409 24.6874M472.624 22.5017L471.993 22.77L467.494 24.6874M472.624 22.5017L477.548 20.4031M472.624 22.5017H513.853M437.139 20.4031H477.548M437.139 20.4031H396.731M437.139 20.4031L442.661 18.3863M477.548 20.4031L482.281 18.3863M477.548 20.4031H517.957M453.081 14.5802H491.212M453.081 14.5802L458.003 12.7825M453.081 14.5802H414.95M453.081 14.5802L447.971 16.4467M491.212 14.5802L495.431 12.7825M491.212 14.5802L489.589 15.272L488.494 15.7386L486.832 16.4467M491.212 14.5802H529.343M458.003 12.7825H495.431M458.003 12.7825H420.575M458.003 12.7825L462.746 11.0498M495.431 12.7825L496.973 12.1252L497.99 11.692L499.497 11.0498M495.431 12.7825H532.859M471.737 7.76595H507.202M471.737 7.76595L474.948 6.59307L476 6.20862M471.737 7.76595H436.27M471.737 7.76595L467.882 9.17388L467.322 9.37868M507.202 7.76595L509.956 6.59307L510.407 6.40031L510.857 6.20862M507.202 7.76595L505.327 8.56508L503.418 9.37868M507.202 7.76595H542.669M476 6.20862H510.857M476 6.20862L480.119 4.70404M476 6.20862H441.143M510.857 6.20862H545.714M510.857 6.20862L514.388 4.70404M433.186 161.53H528.791M433.186 161.53L446.088 150.534M433.186 161.53H337.582M433.186 161.53L419.009 173.613M528.791 161.53L537.392 150.534M528.791 161.53L519.34 173.613M528.791 161.53H624.396M446.088 150.534H537.392M446.088 150.534H354.784M446.088 150.534L457.879 140.485M537.392 150.534L545.253 140.485M537.392 150.534H628.696M478.657 122.777H559.104M478.657 122.777L487.858 114.935M478.657 122.777H398.209M478.657 122.777L468.696 131.265M559.104 122.777L565.238 114.935M559.104 122.777L552.465 131.265M559.104 122.777H639.553M487.858 114.935H565.238M487.858 114.935H410.477M487.858 114.935L496.383 107.669M565.238 114.935L570.922 107.669M565.238 114.935H642.619M511.683 94.6292H581.122M511.683 94.6292L518.574 88.7562M511.683 94.6292H442.244M511.683 94.6292L504.304 100.918M581.122 94.6292L585.716 88.7562M581.122 94.6292L576.203 100.918M581.122 94.6292H650.561M518.574 88.7562H585.716M518.574 88.7562H451.432M518.574 88.7562L525.023 83.2594M585.716 88.7562L590.016 83.2594M585.716 88.7562H652.858M536.758 73.258H597.838M536.758 73.258L542.111 68.6958M536.758 73.258H475.677M536.758 73.258L531.073 78.1037M597.838 73.258L601.407 68.6958M597.838 73.258L594.048 78.1037M597.838 73.258H658.919M542.111 68.6958H601.407M542.111 68.6958H482.815M542.111 68.6958L547.16 64.3922M601.407 68.6958L604.774 64.3922M601.407 68.6958H660.704M556.445 56.479H610.964M556.445 56.479L560.723 52.8329M556.445 56.479H501.927M556.445 56.479L551.931 60.3266M610.964 56.479L613.815 52.8329M610.964 56.479L607.954 60.3266M610.964 56.479H665.482M560.723 52.8329H613.815M560.723 52.8329H507.631M560.723 52.8329L564.783 49.3727M613.815 52.8329L616.522 49.3727M613.815 52.8329H666.908M572.312 42.9557H621.541M572.312 42.9557L575.809 39.9752M572.312 42.9557H523.083M572.312 42.9557L568.642 46.0845M621.541 42.9557L623.873 39.9752M621.541 42.9557L619.094 46.0845M621.541 42.9557H670.771M575.809 39.9752H623.873M575.809 39.9752H527.746M575.809 39.9752L577.079 38.8936L579.145 37.1326M623.873 39.9752L626.097 37.1326M623.873 39.9752H671.937M585.373 31.8242H630.249M585.373 31.8242L588.286 29.3425M585.373 31.8242H540.497M585.373 31.8242L583.104 33.759L582.329 34.4184M630.249 31.8242L630.987 30.8808L632.19 29.3425M630.249 31.8242L628.219 34.4184M630.249 31.8242H675.125M588.286 29.3425L588.64 29.0397L591.074 26.9657M588.286 29.3425H632.19M588.286 29.3425H544.38M632.19 29.3425L632.897 28.4392L633.129 28.1412L633.362 27.8451L634.049 26.9657M632.19 29.3425H676.095M596.311 22.5017H637.541M596.311 22.5017L597.555 21.4418L597.862 21.1803L598.167 20.9198L598.472 20.6609L598.774 20.4031M596.311 22.5017H555.082M596.311 22.5017L593.747 24.6874M637.541 22.5017L638.778 20.9198L638.981 20.6609L639.182 20.4031M637.541 22.5017L635.832 24.6874M637.541 22.5017H678.771M598.774 20.4031H639.182M598.774 20.4031H558.365M598.774 20.4031L600.264 19.1333L600.557 18.883L601.14 18.3863M639.182 20.4031L640.176 19.1333L640.372 18.883L640.566 18.634L640.76 18.3863M639.182 20.4031H679.592M605.606 14.5802H643.738M605.606 14.5802L607.716 12.7825M605.606 14.5802H567.474M605.606 14.5802L605.066 15.0401L604.247 15.7386L603.416 16.4467M643.738 14.5802L643.558 14.8096L642.463 16.2095L642.277 16.4467M643.738 14.5802L645.144 12.7825M643.738 14.5802H681.869M607.716 12.7825H645.144M607.716 12.7825H570.288M607.716 12.7825L609.749 11.0498M645.144 12.7825L645.658 12.1252L645.828 11.9081L645.997 11.692L646.499 11.0498M645.144 12.7825H682.572M613.602 7.76595H649.067M613.602 7.76595L614.978 6.59307L615.428 6.20862M613.602 7.76595H578.135M613.602 7.76595L612.899 8.36402L612.664 8.56508L612.426 8.76721L611.709 9.37868M649.067 7.76595L649.222 7.56837L649.529 7.17562L649.834 6.78636L650.285 6.20862M649.067 7.76595L648.442 8.56508L648.285 8.76721L647.966 9.17388L647.806 9.37868M649.067 7.76595H684.534M615.428 6.20862H650.285M615.428 6.20862L616.976 4.88931L617.194 4.70404M615.428 6.20862H580.571M650.285 6.20862L650.435 6.01774L650.584 5.82766L650.732 5.63838L650.879 5.44991L651.318 4.88931L651.463 4.70404M650.285 6.20862H685.143M815.604 161.53H911.209M815.604 161.53L811.304 150.534M815.604 161.53H720M815.604 161.53L820.33 173.613M911.209 161.53L902.608 150.534M911.209 161.53L920.66 173.613M911.209 161.53H1006.81M811.304 150.534H902.608M811.304 150.534H720M811.304 150.534L807.374 140.485M902.608 150.534L894.747 140.485M902.608 150.534H993.912M800.448 122.777H880.896M800.448 122.777L797.381 114.935M800.448 122.777H720M800.448 122.777L803.768 131.265M880.896 122.777L874.762 114.935M880.896 122.777L887.536 131.265M880.896 122.777H961.343M797.381 114.935H874.762M797.381 114.935H720M797.381 114.935L794.539 107.669M874.762 114.935L869.078 107.669M874.762 114.935H952.142M789.439 94.6292H858.878M789.439 94.6292L787.142 88.7562M789.439 94.6292H720M789.439 94.6292L791.899 100.918M858.878 94.6292L854.284 88.7562M858.878 94.6292L863.797 100.918M858.878 94.6292H928.317M787.142 88.7562H854.284M787.142 88.7562H720M787.142 88.7562L784.992 83.2594M854.284 88.7562L849.985 83.2594M854.284 88.7562H921.426M781.081 73.258H842.162M781.081 73.258L779.296 68.6958M781.081 73.258H720M781.081 73.258L782.976 78.1037M842.162 73.258L838.593 68.6958M842.162 73.258L845.952 78.1037M842.162 73.258H903.242M779.296 68.6958H838.593M779.296 68.6958H720M779.296 68.6958L777.613 64.3922M838.593 68.6958L835.227 64.3922M838.593 68.6958H897.889M774.518 56.479H829.036M774.518 56.479L773.092 52.8329M774.518 56.479H720M774.518 56.479L776.023 60.3266M829.036 56.479L826.185 52.8329M829.036 56.479L832.046 60.3266M829.036 56.479H883.555M773.092 52.8329H826.185M773.092 52.8329H720M773.092 52.8329L771.739 49.3727M826.185 52.8329L823.478 49.3727M826.185 52.8329H879.277M769.229 42.9557H818.459M769.229 42.9557L768.063 39.9752M769.229 42.9557H720M769.229 42.9557L770.453 46.0845M818.459 42.9557L816.127 39.9752M818.459 42.9557L820.906 46.0845M818.459 42.9557H867.688M768.063 39.9752H816.127M768.063 39.9752H720M768.063 39.9752L766.952 37.1326M816.127 39.9752L813.903 37.1326M816.127 39.9752H864.191M764.875 31.8242H809.751M764.875 31.8242L763.905 29.3425M764.875 31.8242H720M764.875 31.8242L765.89 34.4184M809.751 31.8242L808.048 29.6469L807.81 29.3425M809.751 31.8242L811.781 34.4184M809.751 31.8242H854.627M763.905 29.3425L763.787 29.0397L762.975 26.9657M763.905 29.3425H807.81M763.905 29.3425H720M807.81 29.3425L807.103 28.4392L806.871 28.1412L806.638 27.8451L805.951 26.9657M807.81 29.3425H851.715M761.229 22.5017H802.459M761.229 22.5017L760.409 20.4031M761.229 22.5017H720M761.229 22.5017L761.546 23.3108L761.653 23.5833L761.759 23.8572L761.975 24.4092L762.085 24.6874M802.459 22.5017L801.222 20.9198L800.817 20.4031M802.459 22.5017L804.168 24.6874M802.459 22.5017H843.689M760.409 20.4031H800.817M760.409 20.4031H720M760.409 20.4031L759.62 18.3863M800.817 20.4031L799.825 19.1333L799.628 18.883L799.434 18.634L799.24 18.3863M800.817 20.4031H841.226M758.131 14.5802H796.263M758.131 14.5802L757.428 12.7825M758.131 14.5802H720M758.131 14.5802L758.861 16.4467M796.263 14.5802L796.442 14.8096L797.537 16.2095L797.723 16.4467M796.263 14.5802L794.856 12.7825M796.263 14.5802H834.394M757.428 12.7825H794.856M757.428 12.7825H720M757.428 12.7825L756.75 11.0498M794.856 12.7825L794.342 12.1252L794.173 11.9081L794.003 11.692L793.501 11.0498M794.856 12.7825H832.284M755.467 7.76595H790.933M755.467 7.76595L754.857 6.20862M755.467 7.76595H720M755.467 7.76595L756.097 9.37868M790.933 7.76595L790.778 7.56837L790.47 7.17562L790.318 6.98045L790.015 6.59307L789.865 6.40031L789.714 6.20862M790.933 7.76595L791.558 8.56508L791.715 8.76721L792.034 9.17388L792.194 9.37868M790.933 7.76595H826.398M754.857 6.20862L754.783 6.01774L754.708 5.82766L754.634 5.63838L754.269 4.70404M754.857 6.20862H789.714M754.857 6.20862H720M789.714 6.20862H824.572M789.714 6.20862L789.416 5.82766L789.268 5.63838L789.121 5.44991L788.682 4.88931L788.537 4.70404M1198.02 161.53H1293.63M1198.02 161.53L1176.52 150.534M1198.02 161.53H1102.42M1198.02 161.53L1221.65 173.613M1293.63 161.53L1267.82 150.534M1293.63 161.53L1321.98 173.613M1293.63 161.53H1389.23M1176.52 150.534H1267.82M1176.52 150.534H1085.22M1176.52 150.534L1156.87 140.485M1267.82 150.534L1244.24 140.485M1267.82 150.534H1359.13M1122.24 122.777H1202.69M1122.24 122.777L1106.9 114.935M1122.24 122.777H1041.79M1122.24 122.777L1138.84 131.265M1202.69 122.777L1184.29 114.935M1202.69 122.777L1222.61 131.265M1202.69 122.777H1283.13M1106.9 114.935H1184.29M1106.9 114.935H1029.52M1106.9 114.935L1092.7 107.669M1184.29 114.935L1167.23 107.669M1184.29 114.935H1261.67M1067.2 94.6292H1136.63M1067.2 94.6292L1055.71 88.7562M1067.2 94.6292H997.756M1067.2 94.6292L1079.49 100.918M1136.63 94.6292L1122.85 88.7562M1136.63 94.6292L1151.39 100.918M1136.63 94.6292H1206.07M1055.71 88.7562H1122.85M1055.71 88.7562H988.568M1055.71 88.7562L1044.96 83.2594M1122.85 88.7562L1109.95 83.2594M1122.85 88.7562H1189.99M1025.4 73.258H1086.48M1025.4 73.258L1016.48 68.6958M1025.4 73.258H964.323M1025.4 73.258L1034.88 78.1037M1086.48 73.258L1075.78 68.6958M1086.48 73.258L1097.86 78.1037M1086.48 73.258H1147.57M1016.48 68.6958H1075.78M1016.48 68.6958H957.185M1016.48 68.6958L1008.07 64.3922M1075.78 68.6958L1065.68 64.3922M1075.78 68.6958H1135.07M992.591 56.479H1047.11M992.591 56.479L985.461 52.8329M992.591 56.479H938.073M992.591 56.479L1000.12 60.3266M1047.11 56.479L1038.55 52.8329M1047.11 56.479L1056.14 60.3266M1047.11 56.479H1101.63M985.461 52.8329H1038.55M985.461 52.8329H932.369M985.461 52.8329L978.695 49.3727M1038.55 52.8329L1030.43 49.3727M1038.55 52.8329H1091.65M966.146 42.9557H1015.38M966.146 42.9557L960.318 39.9752M966.146 42.9557H916.917M966.146 42.9557L972.265 46.0845M1015.38 42.9557L1008.38 39.9752M1015.38 42.9557L1022.72 46.0845M1015.38 42.9557H1064.6M960.318 39.9752H1008.38M960.318 39.9752H912.254M960.318 39.9752L954.759 37.1326M1008.38 39.9752L1001.71 37.1326M1008.38 39.9752H1056.44M944.378 31.8242L945 32.1423L945.625 32.4619L949.451 34.4184M944.378 31.8242H989.254M944.378 31.8242L939.525 29.3425M944.378 31.8242H899.503M989.254 31.8242L983.43 29.3425M989.254 31.8242L995.341 34.4184M989.254 31.8242H1034.13M939.525 29.3425H983.43M939.525 29.3425H895.62M939.525 29.3425L934.877 26.9657M983.43 29.3425L977.852 26.9657M983.43 29.3425H1027.33M926.147 22.5017H967.377M926.147 22.5017L922.043 20.4031M926.147 22.5017H884.918M926.147 22.5017L930.421 24.6874M967.377 22.5017L964.275 21.1803L962.452 20.4031M967.377 22.5017L972.506 24.6874M967.377 22.5017H1008.61M922.043 20.4031H962.452M922.043 20.4031H881.635M922.043 20.4031L918.585 18.634L918.1 18.3863M962.452 20.4031L957.72 18.3863M962.452 20.4031H1002.86M910.657 14.5802H948.788M910.657 14.5802L909.766 14.1243L907.141 12.7825M910.657 14.5802H872.526M910.657 14.5802L911.556 15.0401L913.382 15.9734L914.307 16.4467M948.788 14.5802L944.569 12.7825M948.788 14.5802L950.411 15.272L951.506 15.7386L953.168 16.4467M948.788 14.5802H986.919M907.141 12.7825H944.569M907.141 12.7825H869.712M907.141 12.7825L904.588 11.4768L903.752 11.0498M944.569 12.7825L943.027 12.1252L942.01 11.692L940.503 11.0498M944.569 12.7825H981.997M897.331 7.76595H932.798M897.331 7.76595L895.415 6.78636L894.286 6.20862M897.331 7.76595H861.865M897.331 7.76595L900.485 9.37868M932.798 7.76595L930.044 6.59307L929.593 6.40031L929.143 6.20862M932.798 7.76595L934.673 8.56508L936.582 9.37868M932.798 7.76595H968.263M894.286 6.20862H929.143M894.286 6.20862L892.802 5.44991L892.07 5.07537L891.706 4.88931L891.344 4.70404M894.286 6.20862H859.429M929.143 6.20862H964M929.143 6.20862L925.612 4.70404M1416.43 114.935H1339.05M1416.43 114.935L1390.85 107.669M1416.43 114.935H1439.61M1416.43 114.935L1439.61 121.522M1344.95 94.6292H1414.39M1344.95 94.6292L1324.28 88.7562M1344.95 94.6292H1275.51M1344.95 94.6292L1367.09 100.918M1414.39 94.6292L1391.42 88.7562M1414.39 94.6292L1438.99 100.918M1414.39 94.6292H1439.61M1324.28 88.7562H1391.42M1324.28 88.7562H1257.14M1324.28 88.7562L1304.93 83.2594M1391.42 88.7562L1369.92 83.2594M1391.42 88.7562H1439.61M1269.73 73.258H1330.81M1269.73 73.258L1253.67 68.6958M1269.73 73.258H1208.65M1269.73 73.258L1286.78 78.1037M1330.81 73.258L1312.96 68.6958M1330.81 73.258L1349.76 78.1037M1330.81 73.258H1391.89M1253.67 68.6958H1312.96M1253.67 68.6958H1194.37M1253.67 68.6958L1238.52 64.3922M1312.96 68.6958L1296.13 64.3922M1312.96 68.6958H1372.26M1210.66 56.479H1265.18M1210.66 56.479L1197.83 52.8329M1210.66 56.479H1156.15M1210.66 56.479L1224.21 60.3266M1265.18 56.479L1250.92 52.8329M1265.18 56.479L1280.23 60.3266M1265.18 56.479H1319.7M1197.83 52.8329H1250.92M1197.83 52.8329H1144.74M1197.83 52.8329L1185.65 49.3727M1250.92 52.8329L1237.39 49.3727M1250.92 52.8329H1304.02M1163.06 42.9557H1212.29M1163.06 42.9557L1152.57 39.9752M1163.06 42.9557H1113.83M1163.06 42.9557L1174.08 46.0845M1212.29 42.9557L1200.64 39.9752M1212.29 42.9557L1224.53 46.0845M1212.29 42.9557H1261.52M1152.57 39.9752H1200.64M1152.57 39.9752H1104.51M1152.57 39.9752L1142.57 37.1326M1200.64 39.9752L1189.52 37.1326M1200.64 39.9752H1248.7M1123.88 31.8242H1168.76M1123.88 31.8242L1115.14 29.3425M1123.88 31.8242H1079.01M1123.88 31.8242L1133.01 34.4184M1168.76 31.8242L1159.05 29.3425M1168.76 31.8242L1178.9 34.4184M1168.76 31.8242H1213.63M1115.14 29.3425H1159.05M1115.14 29.3425H1071.24M1115.14 29.3425L1106.78 26.9657M1159.05 29.3425L1149.75 26.9657M1159.05 29.3425H1202.95M1091.07 22.5017H1132.29M1091.07 22.5017L1083.68 20.4031M1091.07 22.5017H1049.84M1091.07 22.5017L1098.76 24.6874M1132.29 22.5017L1124.09 20.4031M1132.29 22.5017L1140.84 24.6874M1132.29 22.5017H1173.52M1083.68 20.4031H1124.09M1083.68 20.4031H1043.27M1083.68 20.4031L1076.58 18.3863M1124.09 20.4031L1116.2 18.3863M1124.09 20.4031H1164.5M1063.18 14.5802H1101.31M1063.18 14.5802L1056.85 12.7825M1063.18 14.5802H1025.05M1063.18 14.5802L1064.8 15.0401L1065.62 15.272L1069.75 16.4467M1101.31 14.5802L1094.28 12.7825M1101.31 14.5802L1108.61 16.4467M1101.31 14.5802H1139.44M1056.85 12.7825H1094.28M1056.85 12.7825H1019.43M1056.85 12.7825L1050.75 11.0498M1094.28 12.7825L1087.51 11.0498M1094.28 12.7825H1131.71M1039.2 7.76595H1074.66M1039.2 7.76595L1033.71 6.20862M1039.2 7.76595H1003.73M1039.2 7.76595L1044.87 9.37868M1074.66 7.76595L1070.07 6.59307L1069.32 6.40031L1068.57 6.20862M1074.66 7.76595L1080.97 9.37868M1074.66 7.76595H1110.13M1033.71 6.20862H1068.57M1033.71 6.20862L1029.07 4.88931L1028.42 4.70404M1033.71 6.20862H998.857M1068.57 6.20862H1103.43M1068.57 6.20862L1062.69 4.70404M1428.74 56.479L1410.2 52.8329M1428.74 56.479H1374.22M1428.74 56.479L1439.61 58.6178M1428.74 56.479H1439.61M1410.2 52.8329H1357.11M1410.2 52.8329L1392.61 49.3727M1410.2 52.8329H1439.61M1359.98 42.9557H1409.21M1359.98 42.9557L1344.83 39.9752M1359.98 42.9557H1310.75M1359.98 42.9557L1375.89 46.0845M1409.21 42.9557L1392.89 39.9752M1409.21 42.9557L1426.34 46.0845M1409.21 42.9557H1439.61M1344.83 39.9752H1392.89M1344.83 39.9752H1296.76M1344.83 39.9752L1330.37 37.1326M1392.89 39.9752L1377.32 37.1326M1392.89 39.9752H1439.61M1303.38 31.8242H1348.26M1303.38 31.8242L1290.76 29.3425M1303.38 31.8242H1258.51M1303.38 31.8242L1316.57 34.4184M1348.26 31.8242L1334.67 29.3425M1348.26 31.8242L1362.46 34.4184M1348.26 31.8242H1393.13M1290.76 29.3425H1334.67M1290.76 29.3425H1246.86M1290.76 29.3425L1278.68 26.9657M1334.67 29.3425L1321.66 26.9657M1334.67 29.3425H1378.57M1255.98 22.5017H1297.21M1255.98 22.5017L1245.31 20.4031M1255.98 22.5017H1214.75M1255.98 22.5017L1267.1 24.6874M1297.21 22.5017L1285.72 20.4031M1297.21 22.5017L1309.18 24.6874M1297.21 22.5017H1338.44M1245.31 20.4031H1285.72M1245.31 20.4031H1204.9M1245.31 20.4031L1235.06 18.3863M1285.72 20.4031L1274.68 18.3863M1285.72 20.4031H1326.13M1215.71 14.5802H1253.84M1215.71 14.5802L1206.57 12.7825M1215.71 14.5802H1177.58M1215.71 14.5802L1225.2 16.4467M1253.84 14.5802L1243.99 12.7825M1253.84 14.5802L1264.06 16.4467M1253.84 14.5802H1291.97M1206.57 12.7825H1243.99M1206.57 12.7825H1169.14M1206.57 12.7825L1197.76 11.0498M1243.99 12.7825L1234.51 11.0498M1243.99 12.7825H1281.42M1181.06 7.76595H1216.53M1181.06 7.76595L1173.14 6.20862M1181.06 7.76595H1145.59M1181.06 7.76595L1189.26 9.37868M1216.53 7.76595L1208 6.20862M1216.53 7.76595L1225.36 9.37868M1216.53 7.76595H1251.99M1173.14 6.20862H1208M1173.14 6.20862L1165.49 4.70404M1173.14 6.20862H1138.29M1208 6.20862H1242.86M1208 6.20862L1199.76 4.70404M1420.9 22.5017L1406.95 20.4031M1420.9 22.5017H1379.67M1420.9 22.5017L1435.43 24.6874M1420.9 22.5017H1439.61M1406.95 20.4031H1366.54M1406.95 20.4031L1393.54 18.3863M1406.95 20.4031H1439.61M1368.23 14.5802H1406.36M1368.23 14.5802L1356.28 12.7825M1368.23 14.5802H1330.1M1368.23 14.5802L1380.64 16.4467M1406.36 14.5802L1393.71 12.7825M1406.36 14.5802L1419.5 16.4467M1406.36 14.5802H1439.61M1356.28 12.7825H1393.71M1356.28 12.7825H1318.85M1356.28 12.7825L1344.76 11.0498M1393.71 12.7825L1381.51 11.0498M1393.71 12.7825H1431.14M1322.93 7.76595H1358.39M1322.93 7.76595L1312.57 6.20862M1322.93 7.76595H1287.46M1322.93 7.76595L1333.65 9.37868M1358.39 7.76595L1347.43 6.20862M1358.39 7.76595L1369.74 9.37868M1358.39 7.76595H1393.86M1312.57 6.20862H1347.43M1312.57 6.20862L1302.57 4.70404M1312.57 6.20862H1277.71M1347.43 6.20862H1382.29M1347.43 6.20862L1336.84 4.70404M1369.74 9.37868L1381.51 11.0498M1369.74 9.37868H1405.84M1369.74 9.37868H1333.65M1393.86 7.76595L1382.29 6.20862M1393.86 7.76595L1405.84 9.37868M1393.86 7.76595H1429.32M1382.29 6.20862H1417.14M1382.29 6.20862L1371.1 4.70404M1336.84 4.70404H1302.57M1336.84 4.70404H1371.1M1336.84 4.70404L1326.6 3.24926M1405.84 9.37868L1418.26 11.0498M1405.84 9.37868H1439.61M1429.32 7.76595L1417.14 6.20862M1429.32 7.76595L1439.61 9.08112M1429.32 7.76595H1439.61M1417.14 6.20862L1405.37 4.70404M1417.14 6.20862H1439.61M1371.1 4.70404H1405.37M1371.1 4.70404L1360.29 3.24926M1405.37 4.70404L1393.99 3.24926M1405.37 4.70404H1439.61M1381.51 11.0498H1418.26M1381.51 11.0498H1344.76M1431.14 12.7825L1418.26 11.0498M1431.14 12.7825L1439.61 13.923M1431.14 12.7825H1439.61M1418.26 11.0498H1439.61M1344.76 11.0498H1308.01M1344.76 11.0498L1333.65 9.37868M1333.65 9.37868H1297.55M1419.5 16.4467L1433.16 18.3863M1419.5 16.4467H1380.64M1419.5 16.4467H1439.61M1439.73 14.5802H1439.61M1433.16 18.3863H1393.54M1433.16 18.3863L1439.61 19.303M1433.16 18.3863H1439.61M1393.54 18.3863H1353.92M1393.54 18.3863L1380.64 16.4467M1380.64 16.4467H1341.78M1225.36 9.37868L1234.51 11.0498M1225.36 9.37868H1261.45M1225.36 9.37868H1189.26M1251.99 7.76595L1242.86 6.20862M1251.99 7.76595L1261.45 9.37868M1251.99 7.76595H1287.46M1242.86 6.20862H1277.71M1242.86 6.20862L1234.03 4.70404M1199.76 4.70404H1234.03M1199.76 4.70404L1191.8 3.24926M1199.76 4.70404H1165.49M1261.45 9.37868L1271.26 11.0498M1261.45 9.37868H1297.55M1287.46 7.76595L1277.71 6.20862M1287.46 7.76595L1297.55 9.37868M1277.71 6.20862L1268.3 4.70404M1234.03 4.70404H1268.3M1234.03 4.70404L1225.5 3.24926M1297.55 9.37868L1308.01 11.0498M1302.57 4.70404H1268.3M1302.57 4.70404L1292.89 3.24926M1268.3 4.70404L1259.2 3.24926M1234.51 11.0498H1271.26M1234.51 11.0498H1197.76M1281.42 12.7825L1271.26 11.0498M1281.42 12.7825L1291.97 14.5802M1281.42 12.7825H1318.85M1271.26 11.0498H1308.01M1197.76 11.0498H1161.01M1197.76 11.0498L1189.26 9.37868M1308.01 11.0498L1318.85 12.7825M1189.26 9.37868H1153.16M1291.97 14.5802L1302.92 16.4467M1291.97 14.5802H1330.1M1318.85 12.7825L1330.1 14.5802M1330.1 14.5802L1341.78 16.4467M1264.06 16.4467L1274.68 18.3863M1264.06 16.4467H1302.92M1264.06 16.4467H1225.2M1302.92 16.4467L1314.3 18.3863M1302.92 16.4467H1341.78M1341.78 16.4467L1353.92 18.3863M1274.68 18.3863H1314.3M1274.68 18.3863H1235.06M1326.13 20.4031L1314.3 18.3863M1326.13 20.4031L1338.44 22.5017M1326.13 20.4031H1366.54M1314.3 18.3863H1353.92M1235.06 18.3863H1195.44M1235.06 18.3863L1225.2 16.4467M1353.92 18.3863L1366.54 20.4031M1225.2 16.4467H1186.34M1338.44 22.5017L1351.27 24.6874M1338.44 22.5017H1379.67M1366.54 20.4031L1379.67 22.5017M1379.67 22.5017L1393.35 24.6874M1309.18 24.6874L1321.66 26.9657M1309.18 24.6874H1351.27M1309.18 24.6874H1267.1M1351.27 24.6874L1364.63 26.9657M1351.27 24.6874H1393.35M1393.35 24.6874L1407.61 26.9657M1393.35 24.6874H1435.43M1435.43 24.6874H1439.61M1435.43 24.6874L1439.61 25.3158M1321.66 26.9657H1364.63M1321.66 26.9657H1278.68M1378.57 29.3425L1364.63 26.9657M1378.57 29.3425L1393.13 31.8242M1378.57 29.3425H1422.48M1364.63 26.9657H1407.61M1278.68 26.9657H1235.7M1278.68 26.9657L1267.1 24.6874M1407.61 26.9657L1422.48 29.3425M1407.61 26.9657H1439.61M1267.1 24.6874H1225.01M1393.13 31.8242L1408.35 34.4184M1393.13 31.8242H1438.01M1422.48 29.3425L1438.01 31.8242M1422.48 29.3425H1439.61M1439.84 26.9657H1439.61M1438.01 31.8242L1439.61 32.0803M1438.01 31.8242H1439.61M1362.46 34.4184L1377.32 37.1326M1362.46 34.4184H1408.35M1362.46 34.4184H1316.57M1408.35 34.4184L1424.28 37.1326M1408.35 34.4184H1439.61M1440 32.1423L1439.61 32.0803M1377.32 37.1326H1424.28M1377.32 37.1326H1330.37M1424.28 37.1326H1439.61M1424.28 37.1326L1439.61 39.7467M1330.37 37.1326H1283.42M1330.37 37.1326L1316.57 34.4184M1316.57 34.4184H1270.68M1426.34 46.0845H1375.89M1426.34 46.0845L1439.61 48.5083M1426.34 46.0845H1439.61M1439.98 42.9557H1439.61M1375.89 46.0845H1325.43M1375.89 46.0845L1392.61 49.3727M1439.76 48.535L1439.61 48.5083M1080.97 9.37868L1087.51 11.0498M1080.97 9.37868H1117.07M1080.97 9.37868H1044.87M1110.13 7.76595L1103.43 6.20862M1110.13 7.76595L1117.07 9.37868M1110.13 7.76595H1145.59M1103.43 6.20862H1138.29M1103.43 6.20862L1096.96 4.70404M1062.69 4.70404H1096.96M1062.69 4.70404L1060.53 4.15281L1057 3.24926M1062.69 4.70404H1028.42M1117.07 9.37868L1124.26 11.0498M1117.07 9.37868H1153.16M1145.59 7.76595L1138.29 6.20862M1145.59 7.76595L1153.16 9.37868M1138.29 6.20862L1131.22 4.70404M1096.96 4.70404H1131.22M1096.96 4.70404L1090.7 3.24926M1153.16 9.37868L1161.01 11.0498M1165.49 4.70404L1158.1 3.24926M1165.49 4.70404H1131.22M1131.22 4.70404L1130.36 4.51932L1128.64 4.15281L1124.4 3.24926M1087.51 11.0498H1124.26M1087.51 11.0498H1050.75M1131.71 12.7825L1124.26 11.0498M1131.71 12.7825L1139.44 14.5802M1131.71 12.7825H1169.14M1124.26 11.0498H1161.01M1050.75 11.0498H1014M1050.75 11.0498L1044.87 9.37868M1161.01 11.0498L1169.14 12.7825M1044.87 9.37868H1008.78M1139.44 14.5802L1147.48 16.4467M1139.44 14.5802H1177.58M1169.14 12.7825L1170.18 13.0033L1177.58 14.5802M1177.58 14.5802L1186.34 16.4467M1108.61 16.4467L1109.55 16.6853L1116.2 18.3863M1108.61 16.4467H1147.48M1108.61 16.4467H1069.75M1147.48 16.4467L1155.82 18.3863M1147.48 16.4467H1186.34M1186.34 16.4467L1195.44 18.3863M1116.2 18.3863H1155.82M1116.2 18.3863H1076.58M1164.5 20.4031L1155.82 18.3863M1164.5 20.4031L1173.52 22.5017M1164.5 20.4031H1204.9M1155.82 18.3863H1195.44M1076.58 18.3863H1036.96M1076.58 18.3863L1069.75 16.4467M1195.44 18.3863L1204.9 20.4031M1069.75 16.4467H1030.89M1173.52 22.5017L1182.93 24.6874M1173.52 22.5017H1214.75M1204.9 20.4031L1214.75 22.5017M1214.75 22.5017L1225.01 24.6874M1140.84 24.6874L1149.75 26.9657M1140.84 24.6874H1182.93M1140.84 24.6874H1098.76M1182.93 24.6874L1192.73 26.9657M1182.93 24.6874H1225.01M1225.01 24.6874L1235.7 26.9657M1149.75 26.9657H1192.73M1149.75 26.9657H1106.78M1202.95 29.3425L1192.73 26.9657M1202.95 29.3425L1213.63 31.8242M1202.95 29.3425H1246.86M1192.73 26.9657H1235.7M1106.78 26.9657H1063.8M1106.78 26.9657L1098.76 24.6874M1235.7 26.9657L1246.86 29.3425M1098.76 24.6874H1056.67M1213.63 31.8242L1224.79 34.4184M1213.63 31.8242H1258.51M1246.86 29.3425L1258.51 31.8242M1258.51 31.8242L1270.68 34.4184M1178.9 34.4184L1189.52 37.1326M1178.9 34.4184H1224.79M1178.9 34.4184H1133.01M1224.79 34.4184L1236.47 37.1326M1224.79 34.4184H1270.68M1270.68 34.4184L1283.42 37.1326M1189.52 37.1326H1236.47M1189.52 37.1326H1142.57M1248.7 39.9752L1236.47 37.1326M1248.7 39.9752L1261.52 42.9557M1248.7 39.9752H1296.76M1236.47 37.1326H1283.42M1142.57 37.1326H1095.61M1142.57 37.1326L1133.01 34.4184M1283.42 37.1326L1296.76 39.9752M1133.01 34.4184H1087.12M1261.52 42.9557L1274.98 46.0845M1261.52 42.9557H1310.75M1296.76 39.9752L1310.75 42.9557M1310.75 42.9557L1325.43 46.0845M1224.53 46.0845L1237.39 49.3727M1224.53 46.0845H1274.98M1224.53 46.0845H1174.08M1274.98 46.0845L1289.13 49.3727M1274.98 46.0845H1325.43M1325.43 46.0845L1340.87 49.3727M1237.39 49.3727H1289.13M1237.39 49.3727H1185.65M1304.02 52.8329L1289.13 49.3727M1304.02 52.8329L1319.7 56.479M1304.02 52.8329H1357.11M1289.13 49.3727H1340.87M1185.65 49.3727H1133.91M1185.65 49.3727L1174.08 46.0845M1340.87 49.3727L1357.11 52.8329M1340.87 49.3727H1392.61M1174.08 46.0845H1123.62M1319.7 56.479L1336.25 60.3266M1319.7 56.479H1374.22M1357.11 52.8329L1374.22 56.479M1392.61 49.3727H1439.61M1374.22 56.479L1392.28 60.3266M1280.23 60.3266L1296.13 64.3922M1280.23 60.3266H1336.25M1280.23 60.3266H1224.21M1336.25 60.3266L1353.75 64.3922M1336.25 60.3266H1392.28M1392.28 60.3266L1411.36 64.3922M1392.28 60.3266H1439.61M1296.13 64.3922H1353.75M1296.13 64.3922H1238.52M1372.26 68.6958L1353.75 64.3922M1372.26 68.6958L1391.89 73.258M1372.26 68.6958H1431.56M1353.75 64.3922H1411.36M1238.52 64.3922H1180.91M1238.52 64.3922L1224.21 60.3266M1411.36 64.3922L1431.56 68.6958M1411.36 64.3922H1439.61M1224.21 60.3266H1168.18M1391.89 73.258L1412.73 78.1037M1391.89 73.258H1439.61M1431.56 68.6958H1439.61M1431.56 68.6958L1439.61 70.4123M1349.76 78.1037L1369.92 83.2594M1349.76 78.1037H1412.73M1349.76 78.1037H1286.78M1412.73 78.1037L1434.91 83.2594M1412.73 78.1037H1439.61M1369.92 83.2594H1434.91M1369.92 83.2594H1304.93M1434.91 83.2594L1439.61 84.3513M1434.91 83.2594H1439.61M1304.93 83.2594H1239.94M1304.93 83.2594L1286.78 78.1037M1286.78 78.1037H1223.81M1438.99 100.918H1367.09M1438.99 100.918H1439.61M1438.99 100.918L1439.61 101.078M1367.09 100.918H1295.19M1367.09 100.918L1390.85 107.669M936.582 9.37868L938.036 9.99818L938.525 10.2067L940.503 11.0498M936.582 9.37868H972.679M936.582 9.37868H900.485M968.263 7.76595L965.052 6.59307L964 6.20862M968.263 7.76595L972.119 9.17388L972.679 9.37868M968.263 7.76595H1003.73M964 6.20862H998.857M964 6.20862L959.881 4.70404M925.612 4.70404H959.881M925.612 4.70404L924.318 4.15281L922.198 3.24926M925.612 4.70404H891.344M972.679 9.37868L973.807 9.7907L977.254 11.0498M972.679 9.37868H1008.78M1003.73 7.76595L998.857 6.20862M1003.73 7.76595L1008.78 9.37868M998.857 6.20862L995.311 5.07537L994.149 4.70404M959.881 4.70404H994.149M959.881 4.70404L955.898 3.24926M1008.78 9.37868L1014 11.0498M1028.42 4.70404L1027.77 4.51932L1023.3 3.24926M1028.42 4.70404H994.149M994.149 4.70404L992.424 4.15281L989.598 3.24926M940.503 11.0498H977.254M940.503 11.0498H903.752M981.997 12.7825L977.254 11.0498M981.997 12.7825L986.919 14.5802M981.997 12.7825H1019.43M977.254 11.0498H1014M903.752 11.0498H867.002M903.752 11.0498L900.485 9.37868M1014 11.0498L1019.43 12.7825M900.485 9.37868H864.388M986.919 14.5802L990.09 15.7386L990.734 15.9734L992.029 16.4467M986.919 14.5802H1025.05M1019.43 12.7825L1025.05 14.5802M1025.05 14.5802L1030.89 16.4467M953.168 16.4467L957.72 18.3863M953.168 16.4467H992.029M953.168 16.4467H914.307M992.029 16.4467L997.339 18.3863M992.029 16.4467H1030.89M1030.89 16.4467L1036.96 18.3863M957.72 18.3863H997.339M957.72 18.3863H918.1M1002.86 20.4031L999.384 19.1333L998.7 18.883L997.339 18.3863M1002.86 20.4031L1008.61 22.5017M1002.86 20.4031H1043.27M997.339 18.3863H1036.96M918.1 18.3863H878.48M918.1 18.3863L914.307 16.4467M1036.96 18.3863L1043.27 20.4031M914.307 16.4467H875.445M1008.61 22.5017L1014.59 24.6874M1008.61 22.5017H1049.84M1043.27 20.4031L1049.84 22.5017M1049.84 22.5017L1056.67 24.6874M972.506 24.6874L975.151 25.8145L975.821 26.1001L977.852 26.9657M972.506 24.6874H1014.59M972.506 24.6874H930.421M1014.59 24.6874L1020.83 26.9657M1014.59 24.6874H1056.67M1056.67 24.6874L1063.8 26.9657M977.852 26.9657H1020.83M977.852 26.9657H934.877M1027.33 29.3425L1020.83 26.9657M1027.33 29.3425L1034.13 31.8242M1027.33 29.3425H1071.24M1020.83 26.9657H1063.8M934.877 26.9657H891.901M934.877 26.9657L933.745 26.3871L930.421 24.6874M1063.8 26.9657L1071.24 29.3425M930.421 24.6874H888.338M1034.13 31.8242L1041.23 34.4184M1034.13 31.8242H1079.01M1071.24 29.3425L1079.01 31.8242M1079.01 31.8242L1087.12 34.4184M995.341 34.4184L1001.71 37.1326M995.341 34.4184H1041.23M995.341 34.4184H949.451M1041.23 34.4184L1048.66 37.1326M1041.23 34.4184H1087.12M1087.12 34.4184L1095.61 37.1326M1001.71 37.1326H1048.66M1001.71 37.1326H954.759M1056.44 39.9752L1048.66 37.1326M1056.44 39.9752L1064.6 42.9557M1056.44 39.9752H1104.51M1048.66 37.1326H1095.61M954.759 37.1326H907.807M954.759 37.1326L949.451 34.4184M1095.61 37.1326L1104.51 39.9752M949.451 34.4184H903.561M1064.6 42.9557L1073.17 46.0845M1064.6 42.9557H1113.83M1104.51 39.9752L1113.83 42.9557M1113.83 42.9557L1123.62 46.0845M1022.72 46.0845L1030.43 49.3727M1022.72 46.0845H1073.17M1022.72 46.0845H972.265M1073.17 46.0845L1082.17 49.3727M1073.17 46.0845H1123.62M1123.62 46.0845L1133.91 49.3727M1030.43 49.3727H1082.17M1030.43 49.3727H978.695M1091.65 52.8329L1082.17 49.3727M1091.65 52.8329L1101.63 56.479M1091.65 52.8329H1144.74M1082.17 49.3727H1133.91M978.695 49.3727H926.956M978.695 49.3727L972.265 46.0845M1133.91 49.3727L1144.74 52.8329M972.265 46.0845H921.812M1101.63 56.479L1112.16 60.3266M1101.63 56.479H1156.15M1144.74 52.8329L1156.15 56.479M1156.15 56.479L1168.18 60.3266M1056.14 60.3266L1065.68 64.3922M1056.14 60.3266H1112.16M1056.14 60.3266H1000.12M1112.16 60.3266L1123.29 64.3922M1112.16 60.3266H1168.18M1168.18 60.3266L1180.91 64.3922M1065.68 64.3922H1123.29M1065.68 64.3922H1008.07M1135.07 68.6958L1123.29 64.3922M1135.07 68.6958L1147.57 73.258M1135.07 68.6958H1194.37M1123.29 64.3922H1180.91M1008.07 64.3922H950.453M1008.07 64.3922L1000.12 60.3266M1180.91 64.3922L1194.37 68.6958M1000.12 60.3266H944.093M1147.57 73.258L1160.83 78.1037M1147.57 73.258H1208.65M1194.37 68.6958L1208.65 73.258M1208.65 73.258L1223.81 78.1037M1097.86 78.1037L1109.95 83.2594M1097.86 78.1037H1160.83M1097.86 78.1037H1034.88M1160.83 78.1037L1174.95 83.2594M1160.83 78.1037H1223.81M1223.81 78.1037L1239.94 83.2594M1109.95 83.2594H1174.95M1109.95 83.2594H1044.96M1189.99 88.7562L1174.95 83.2594M1189.99 88.7562L1206.07 94.6292M1189.99 88.7562H1257.14M1174.95 83.2594H1239.94M1044.96 83.2594H979.969M1044.96 83.2594L1034.88 78.1037M1239.94 83.2594L1257.14 88.7562M1034.88 78.1037H971.903M1206.07 94.6292L1223.29 100.918M1206.07 94.6292H1275.51M1257.14 88.7562L1275.51 94.6292M1275.51 94.6292L1295.19 100.918M1151.39 100.918L1167.23 107.669M1151.39 100.918H1223.29M1151.39 100.918H1079.49M1223.29 100.918L1241.77 107.669M1223.29 100.918H1295.19M1295.19 100.918L1316.31 107.669M1167.23 107.669H1241.77M1167.23 107.669H1092.7M1261.67 114.935L1241.77 107.669M1261.67 114.935L1283.13 122.777M1261.67 114.935H1339.05M1241.77 107.669H1316.31M1092.7 107.669H1018.16M1092.7 107.669L1079.49 100.918M1316.31 107.669L1339.05 114.935M1316.31 107.669H1390.85M1079.49 100.918H1007.6M1283.13 122.777L1306.37 131.265M1283.13 122.777H1363.58M1339.05 114.935L1363.58 122.777M1390.85 107.669H1439.61M1363.58 122.777L1390.14 131.265M1363.58 122.777H1439.61M1222.61 131.265L1244.24 140.485M1222.61 131.265H1306.37M1222.61 131.265H1138.84M1306.37 131.265L1331.62 140.485M1306.37 131.265H1390.14M1390.14 131.265L1418.99 140.485M1390.14 131.265H1439.61M1244.24 140.485H1331.62M1244.24 140.485H1156.87M1359.13 150.534L1331.62 140.485M1359.13 150.534L1389.23 161.53M1359.13 150.534H1439.61M1331.62 140.485H1418.99M1156.87 140.485H1069.49M1156.87 140.485L1138.84 131.265M1418.99 140.485H1439.61M1418.99 140.485L1439.61 147.076M1138.84 131.265H1055.07M1389.23 161.53L1422.31 173.613M1389.23 161.53H1439.61M1321.98 173.613L1353.28 186.953M1321.98 173.613H1422.31M1321.98 173.613H1221.65M1422.31 173.613L1439.61 179.932M1422.31 173.613H1439.61M1353.28 186.953H1247.74M1353.28 186.953L1439.61 186.952M1247.74 186.953H1142.19M1247.74 186.953L1221.65 173.613M1221.65 173.613H1121.32M792.194 9.37868L792.355 9.58429L792.516 9.7907L792.679 9.99818L792.841 10.2067L793.335 10.8375L793.501 11.0498M792.194 9.37868H828.291M792.194 9.37868H756.097M826.398 7.76595L825.022 6.59307L824.572 6.20862M826.398 7.76595L827.574 8.76721L828.291 9.37868M826.398 7.76595H861.865M824.572 6.20862H859.429M824.572 6.20862L823.242 5.07537L822.806 4.70404M788.537 4.70404L788.393 4.51932L787.822 3.78898L787.399 3.24926M788.537 4.70404H822.806M788.537 4.70404H754.269M828.291 9.37868L828.532 9.58429L828.775 9.7907L829.018 9.99818L829.263 10.2067L830.251 11.0498M828.291 9.37868H864.388M861.865 7.76595L860.03 6.59307L859.429 6.20862M861.865 7.76595L864.388 9.37868M859.429 6.20862L858.241 5.44991L857.364 4.88931L857.075 4.70404M822.806 4.70404L822.59 4.51932L822.16 4.15281L821.732 3.78898L821.521 3.60827L821.099 3.24926M822.806 4.70404H857.075M864.388 9.37868L866.34 10.6263L867.002 11.0498M891.344 4.70404L889.201 3.60827L888.499 3.24926M891.344 4.70404H857.075M857.075 4.70404L855.08 3.42837L854.798 3.24926M793.501 11.0498H830.251M793.501 11.0498H756.75M832.284 12.7825L830.251 11.0498M832.284 12.7825L834.394 14.5802M832.284 12.7825H869.712M830.251 11.0498H867.002M756.75 11.0498H720M756.75 11.0498L756.097 9.37868M867.002 11.0498L869.712 12.7825M756.097 9.37868H720M834.394 14.5802L834.934 15.0401L835.753 15.7386L836.584 16.4467M834.394 14.5802H872.526M869.712 12.7825L870.059 13.0033L872.526 14.5802M872.526 14.5802L872.884 14.8096L873.245 15.0401L873.607 15.272L875.445 16.4467M797.723 16.4467L799.24 18.3863M797.723 16.4467H836.584M797.723 16.4467H758.861M836.584 16.4467L838.86 18.3863M836.584 16.4467H875.445M875.445 16.4467L877.71 17.8943L878.094 18.1398L878.48 18.3863M799.24 18.3863H838.86M799.24 18.3863H759.62M841.226 20.4031L841.528 20.6609L841.833 20.9198L842.138 21.1803L843.689 22.5017M841.226 20.4031L840.031 19.3847L839.736 19.1333L839.443 18.883L838.86 18.3863M841.226 20.4031H881.635M838.86 18.3863H878.48M759.62 18.3863H720M759.62 18.3863L758.861 16.4467M878.48 18.3863L881.635 20.4031M758.861 16.4467H720M843.689 22.5017L845.927 24.4092L846.253 24.6874M843.689 22.5017H884.918M881.635 20.4031L882.444 20.9198L884.918 22.5017M884.918 22.5017L886.184 23.3108L888.338 24.6874M804.168 24.6874L805.051 25.8145L805.273 26.1001L805.951 26.9657M804.168 24.6874H846.253M804.168 24.6874H762.085M846.253 24.6874L848.926 26.9657M846.253 24.6874H888.338M888.338 24.6874L891.901 26.9657M805.951 26.9657H848.926M805.951 26.9657H762.975M851.715 29.3425L848.926 26.9657M851.715 29.3425L854.627 31.8242M851.715 29.3425H895.62M848.926 26.9657H891.901M762.975 26.9657H720M762.975 26.9657L762.749 26.3871L762.304 25.248L762.085 24.6874M891.901 26.9657L895.62 29.3425M762.085 24.6874H720M854.627 31.8242L856.897 33.759L857.671 34.4184M854.627 31.8242H899.503M895.62 29.3425L899.503 31.8242M899.503 31.8242L901.509 33.1069L903.561 34.4184M811.781 34.4184L813.903 37.1326M811.781 34.4184H857.671M811.781 34.4184H765.89M857.671 34.4184L860.855 37.1326M857.671 34.4184H903.561M903.561 34.4184L907.807 37.1326M813.903 37.1326H860.855M813.903 37.1326H766.952M864.191 39.9752L863.342 39.2521L860.855 37.1326M864.191 39.9752L867.688 42.9557M864.191 39.9752H912.254M860.855 37.1326H907.807M766.952 37.1326H720M766.952 37.1326L765.89 34.4184M907.807 37.1326L912.254 39.9752M765.89 34.4184H720M867.688 42.9557L871.359 46.0845M867.688 42.9557H916.917M912.254 39.9752L916.917 42.9557M916.917 42.9557L921.812 46.0845M820.906 46.0845L823.478 49.3727M820.906 46.0845H871.359M820.906 46.0845H770.453M871.359 46.0845L875.217 49.3727M871.359 46.0845H921.812M921.812 46.0845L926.956 49.3727M823.478 49.3727H875.217M823.478 49.3727H771.739M879.277 52.8329L875.217 49.3727M879.277 52.8329L883.555 56.479M879.277 52.8329H932.369M875.217 49.3727H926.956M771.739 49.3727H720M771.739 49.3727L770.61 46.4866L770.453 46.0845M926.956 49.3727L932.369 52.8329M770.453 46.0845H720M883.555 56.479L888.069 60.3266M883.555 56.479H938.073M932.369 52.8329L936.618 55.5495L938.073 56.479M938.073 56.479L944.093 60.3266M832.046 60.3266L835.227 64.3922M832.046 60.3266H888.069M832.046 60.3266H776.023M888.069 60.3266L892.84 64.3922M888.069 60.3266H944.093M944.093 60.3266L950.453 64.3922M835.227 64.3922H892.84M835.227 64.3922H777.613M897.889 68.6958L892.84 64.3922M897.889 68.6958L903.242 73.258M897.889 68.6958H957.185M892.84 64.3922H950.453M777.613 64.3922H720M777.613 64.3922L776.023 60.3266M950.453 64.3922L957.185 68.6958M776.023 60.3266H720M903.242 73.258L908.927 78.1037M903.242 73.258H964.323M957.185 68.6958L964.323 73.258M964.323 73.258L971.903 78.1037M845.952 78.1037L849.985 83.2594M845.952 78.1037H908.927M845.952 78.1037H782.976M908.927 78.1037L914.977 83.2594M908.927 78.1037H971.903M971.903 78.1037L979.969 83.2594M849.985 83.2594H914.977M849.985 83.2594H784.992M921.426 88.7562L914.977 83.2594M921.426 88.7562L928.317 94.6292M921.426 88.7562H988.568M914.977 83.2594H979.969M784.992 83.2594H720M784.992 83.2594L782.976 78.1037M979.969 83.2594L988.568 88.7562M782.976 78.1037H720M928.317 94.6292L935.696 100.918M928.317 94.6292H997.756M988.568 88.7562L997.756 94.6292M997.756 94.6292L1007.6 100.918M863.797 100.918L869.078 107.669M863.797 100.918H935.696M863.797 100.918H791.899M935.696 100.918L943.617 107.669M935.696 100.918H1007.6M1007.6 100.918L1018.16 107.669M869.078 107.669H943.617M869.078 107.669H794.539M952.142 114.935L943.617 107.669M952.142 114.935L961.343 122.777M952.142 114.935H1029.52M943.617 107.669H1018.16M794.539 107.669H720M794.539 107.669L791.899 100.918M1018.16 107.669L1029.52 114.935M791.899 100.918H720M961.343 122.777L971.304 131.265M961.343 122.777H1041.79M1029.52 114.935L1041.79 122.777M1041.79 122.777L1055.07 131.265M887.536 131.265L894.747 140.485M887.536 131.265H971.304M887.536 131.265H803.768M971.304 131.265L982.121 140.485M971.304 131.265H1055.07M1055.07 131.265L1069.49 140.485M894.747 140.485H982.121M894.747 140.485H807.374M993.912 150.534L982.121 140.485M993.912 150.534L1006.81 161.53M993.912 150.534H1085.22M982.121 140.485H1069.49M807.374 140.485H720M807.374 140.485L803.768 131.265M1069.49 140.485L1085.22 150.534M803.768 131.265H720M1006.81 161.53L1020.99 173.613M1006.81 161.53H1102.42M1085.22 150.534L1102.42 161.53M1102.42 161.53L1121.32 173.613M920.66 173.613L931.095 186.953M920.66 173.613H1020.99M920.66 173.613H820.33M1020.99 173.613L1036.64 186.953M1020.99 173.613H1121.32M1121.32 173.613L1142.19 186.953M1036.64 186.953H931.095M1036.64 186.953H1142.19M931.095 186.953H825.548M825.548 186.953H720M825.548 186.953L820.33 173.613M820.33 173.613H720M647.806 9.37868L647.645 9.58429L647.484 9.7907L647.321 9.99818L647.159 10.2067L646.83 10.6263L646.665 10.8375L646.499 11.0498M647.806 9.37868H683.903M647.806 9.37868H611.709M684.534 7.76595L685.143 6.20862M684.534 7.76595L683.903 9.37868M684.534 7.76595H720M685.143 6.20862L685.217 6.01774L685.292 5.82766L685.366 5.63838L685.732 4.70404M685.143 6.20862H720M651.463 4.70404L651.607 4.51932L652.178 3.78898L652.601 3.24926M651.463 4.70404H685.732M651.463 4.70404H617.194M683.903 9.37868L683.822 9.58429L683.742 9.7907L683.66 9.99818L683.25 11.0498M683.903 9.37868H720M720 7.76595V6.20862M720 7.76595V9.37868M720 6.20862V4.70404M685.732 4.70404H720M685.732 4.70404L685.947 4.15281L686.019 3.9705L686.3 3.24926M720 9.37868V11.0498M754.269 4.70404L754.054 4.15281L753.982 3.9705L753.911 3.78898L753.84 3.60827L753.77 3.42837L753.7 3.24926M754.269 4.70404H720M720 4.70404V3.24926M646.499 11.0498H683.25M646.499 11.0498H609.749M682.572 12.7825L682.485 13.0033L682.399 13.2255L681.869 14.5802M682.572 12.7825L683.25 11.0498M682.572 12.7825H720M683.25 11.0498H720M609.749 11.0498H572.998M609.749 11.0498L610.245 10.6263L610.492 10.4161L610.737 10.2067L610.983 9.99818L611.225 9.7907L611.468 9.58429L611.709 9.37868M720 11.0498V12.7825M611.709 9.37868H575.612M681.869 14.5802L681.139 16.4467M681.869 14.5802H720M720 12.7825V14.5802M720 14.5802V16.4467M642.277 16.4467L640.76 18.3863M642.277 16.4467H681.139M642.277 16.4467H603.416M681.139 16.4467L680.38 18.3863M681.139 16.4467H720M720 16.4467V18.3863M640.76 18.3863H680.38M640.76 18.3863H601.14M679.592 20.4031L680.38 18.3863M679.592 20.4031L678.771 22.5017M679.592 20.4031H720M680.38 18.3863H720M601.14 18.3863H561.52M601.14 18.3863L603.416 16.4467M720 18.3863V20.4031M603.416 16.4467H564.555M678.771 22.5017L678.454 23.3108L678.133 24.1324L677.915 24.6874M678.771 22.5017H720M720 20.4031V22.5017M720 22.5017V24.6874M635.832 24.6874L634.949 25.8145L634.727 26.1001L634.049 26.9657M635.832 24.6874H677.915M635.832 24.6874H593.747M677.915 24.6874L677.697 25.248L677.251 26.3871L677.025 26.9657M677.915 24.6874H720M720 24.6874V26.9657M634.049 26.9657H677.025M634.049 26.9657H591.074M676.095 29.3425L676.213 29.0397L677.025 26.9657M676.095 29.3425L675.125 31.8242M676.095 29.3425H720M677.025 26.9657H720M591.074 26.9657H548.099M591.074 26.9657L593.747 24.6874M720 26.9657V29.3425M593.747 24.6874H551.662M675.125 31.8242L674.11 34.4184M675.125 31.8242H720M720 29.3425V31.8242M720 31.8242V34.4184M628.219 34.4184L626.097 37.1326M628.219 34.4184H674.11M628.219 34.4184H582.329M674.11 34.4184L673.048 37.1326M674.11 34.4184H720M720 34.4184V37.1326M626.097 37.1326H673.048M626.097 37.1326H579.145M671.937 39.9752L673.048 37.1326M671.937 39.9752L670.771 42.9557M671.937 39.9752H720M673.048 37.1326H720M579.145 37.1326H532.193M579.145 37.1326L582.329 34.4184M720 37.1326V39.9752M582.329 34.4184H536.439M670.771 42.9557L669.547 46.0845M670.771 42.9557H720M720 39.9752V42.9557M720 42.9557V46.0845M619.094 46.0845L616.522 49.3727M619.094 46.0845H669.547M619.094 46.0845H568.642M669.547 46.0845L668.261 49.3727M669.547 46.0845H720M720 46.0845V49.3727M616.522 49.3727H668.261M616.522 49.3727H564.783M666.908 52.8329L668.261 49.3727M666.908 52.8329L665.482 56.479M666.908 52.8329H720M668.261 49.3727H720M564.783 49.3727H513.044M564.783 49.3727L568.642 46.0845M720 49.3727V52.8329M568.642 46.0845H518.188M665.482 56.479L663.977 60.3266M665.482 56.479H720M720 52.8329V56.479M720 56.479V60.3266M607.954 60.3266L604.774 64.3922M607.954 60.3266H663.977M607.954 60.3266H551.931M663.977 60.3266L662.387 64.3922M663.977 60.3266H720M720 60.3266V64.3922M604.774 64.3922H662.387M604.774 64.3922H547.16M660.704 68.6958L662.387 64.3922M660.704 68.6958L658.919 73.258M660.704 68.6958H720M662.387 64.3922H720M547.16 64.3922H489.547M547.16 64.3922L551.931 60.3266M720 64.3922V68.6958M551.931 60.3266H495.908M658.919 73.258L657.024 78.1037M658.919 73.258H720M720 68.6958V73.258M720 73.258V78.1037M594.048 78.1037L590.016 83.2594M594.048 78.1037H657.024M594.048 78.1037H531.073M657.024 78.1037L655.008 83.2594M657.024 78.1037H720M720 78.1037V83.2594M590.016 83.2594H655.008M590.016 83.2594H525.023M652.858 88.7562L655.008 83.2594M652.858 88.7562L650.561 94.6292M652.858 88.7562H720M655.008 83.2594H720M525.023 83.2594H460.031M525.023 83.2594L531.073 78.1037M720 83.2594V88.7562M531.073 78.1037H468.097M650.561 94.6292L648.101 100.918M650.561 94.6292H720M720 88.7562V94.6292M720 94.6292V100.918M576.203 100.918L570.922 107.669M576.203 100.918H648.101M576.203 100.918H504.304M648.101 100.918L645.461 107.669M648.101 100.918H720M720 100.918V107.669M570.922 107.669H645.461M570.922 107.669H496.383M642.619 114.935L645.461 107.669M642.619 114.935L639.553 122.777M642.619 114.935H720M645.461 107.669H720M496.383 107.669H421.844M496.383 107.669L504.304 100.918M720 107.669V114.935M504.304 100.918H432.405M639.553 122.777L636.232 131.265M639.553 122.777H720M720 114.935V122.777M720 122.777V131.265M552.465 131.265L545.253 140.485M552.465 131.265H636.232M552.465 131.265H468.696M636.232 131.265L632.626 140.485M636.232 131.265H720M720 131.265V140.485M545.253 140.485H632.626M545.253 140.485H457.879M628.696 150.534L632.626 140.485M628.696 150.534L624.396 161.53M628.696 150.534H720M632.626 140.485H720M457.879 140.485H370.505M457.879 140.485L468.696 131.265M720 140.485V150.534M468.696 131.265H384.929M624.396 161.53L619.67 173.613M624.396 161.53H720M720 150.534V161.53M720 161.53V173.613M519.34 173.613L508.905 186.953M519.34 173.613H619.67M519.34 173.613H419.009M619.67 173.613L614.452 186.953M619.67 173.613H720M720 173.613V186.953M614.452 186.953H508.905M614.452 186.953H720M508.905 186.953H403.358M403.358 186.953H297.81M403.358 186.953L419.009 173.613M419.009 173.613H318.679M503.418 9.37868L501.475 10.2067L499.497 11.0498M503.418 9.37868H539.515M503.418 9.37868H467.322M542.669 7.76595L545.714 6.20862M542.669 7.76595L539.515 9.37868M542.669 7.76595H578.135M545.714 6.20862H580.571M545.714 6.20862L547.93 5.07537L548.657 4.70404M514.388 4.70404H548.657M514.388 4.70404L515.682 4.15281L517.802 3.24926M514.388 4.70404H480.119M539.515 9.37868L536.248 11.0498M539.515 9.37868H575.612M578.135 7.76595L580.571 6.20862M578.135 7.76595L575.612 9.37868M580.571 6.20862L581.759 5.44991L582.636 4.88931L582.925 4.70404M548.657 4.70404H582.925M548.657 4.70404L550.799 3.60827L551.501 3.24926M575.612 9.37868L573.66 10.6263L572.998 11.0498M617.194 4.70404L617.41 4.51932L617.841 4.15281L618.479 3.60827L618.901 3.24926M617.194 4.70404H582.925M582.925 4.70404L583.214 4.51932L583.788 4.15281L585.201 3.24926M499.497 11.0498H536.248M499.497 11.0498H462.746M532.859 12.7825L533.29 12.5624L533.718 12.3431L535.412 11.4768L536.248 11.0498M532.859 12.7825L530.234 14.1243L529.343 14.5802M532.859 12.7825H570.288M536.248 11.0498H572.998M462.746 11.0498H425.996M462.746 11.0498L466.193 9.7907L467.322 9.37868M572.998 11.0498L570.288 12.7825M467.322 9.37868H431.224M529.343 14.5802L528.895 14.8096L528.444 15.0401L527.079 15.7386L526.618 15.9734L525.693 16.4467M529.343 14.5802H567.474M570.288 12.7825L569.941 13.0033L567.474 14.5802M567.474 14.5802L567.116 14.8096L566.755 15.0401L566.393 15.272L564.555 16.4467M486.832 16.4467L482.281 18.3863M486.832 16.4467H525.693M486.832 16.4467H447.971M525.693 16.4467L521.9 18.3863M525.693 16.4467H564.555M564.555 16.4467L561.52 18.3863M482.281 18.3863H521.9M482.281 18.3863H442.661M517.957 20.4031L521.9 18.3863M517.957 20.4031L513.853 22.5017M517.957 20.4031H558.365M521.9 18.3863H561.52M442.661 18.3863H403.041M442.661 18.3863L447.971 16.4467M561.52 18.3863L558.365 20.4031M447.971 16.4467H409.109M513.853 22.5017L509.579 24.6874M513.853 22.5017H555.082M558.365 20.4031L557.557 20.9198L555.082 22.5017M555.082 22.5017L553.816 23.3108L552.53 24.1324L551.662 24.6874M467.494 24.6874L464.849 25.8145L462.148 26.9657M467.494 24.6874H509.579M467.494 24.6874H425.409M509.579 24.6874L505.123 26.9657M509.579 24.6874H551.662M551.662 24.6874L548.099 26.9657M462.148 26.9657H505.123M462.148 26.9657H419.173M500.476 29.3425L505.123 26.9657M500.476 29.3425L495.622 31.8242M500.476 29.3425H544.38M505.123 26.9657H548.099M419.173 26.9657H376.197M419.173 26.9657L425.409 24.6874M548.099 26.9657L544.38 29.3425M425.409 24.6874H383.326M495.622 31.8242L494.375 32.4619L490.549 34.4184M495.622 31.8242H540.497M544.38 29.3425L540.497 31.8242M540.497 31.8242L540 32.1423L538.491 33.1069L536.439 34.4184M444.659 34.4184L438.29 37.1326M444.659 34.4184H490.549M444.659 34.4184H398.769M490.549 34.4184L485.241 37.1326M490.549 34.4184H536.439M536.439 34.4184L532.193 37.1326M438.29 37.1326H485.241M438.29 37.1326H391.338M479.682 39.9752L483.188 38.1831L485.241 37.1326M479.682 39.9752L473.854 42.9557M479.682 39.9752H527.746M485.241 37.1326H532.193M391.338 37.1326H344.386M391.338 37.1326L398.769 34.4184M532.193 37.1326L527.746 39.9752M398.769 34.4184H352.878M473.854 42.9557L467.735 46.0845M473.854 42.9557H523.083M527.746 39.9752L523.083 42.9557M523.083 42.9557L518.188 46.0845M417.282 46.0845L409.566 49.3727M417.282 46.0845H467.735M417.282 46.0845H366.83M467.735 46.0845L461.305 49.3727M467.735 46.0845H518.188M518.188 46.0845L513.044 49.3727M409.566 49.3727H461.305M409.566 49.3727H357.827M454.539 52.8329L461.305 49.3727M454.539 52.8329L447.409 56.479M454.539 52.8329H507.631M461.305 49.3727H513.044M357.827 49.3727H306.089M357.827 49.3727L366.83 46.0845M513.044 49.3727L507.631 52.8329M366.83 46.0845H316.377M447.409 56.479L439.885 60.3266M447.409 56.479H501.927M507.631 52.8329L501.927 56.479M501.927 56.479L495.908 60.3266M383.862 60.3266L374.321 64.3922M383.862 60.3266H439.885M383.862 60.3266H327.838M439.885 60.3266L431.934 64.3922M439.885 60.3266H495.908M495.908 60.3266L489.547 64.3922M374.321 64.3922H431.934M374.321 64.3922H316.707M423.518 68.6958L431.934 64.3922M423.518 68.6958L414.596 73.258M423.518 68.6958H482.815M431.934 64.3922H489.547M316.707 64.3922H259.094M316.707 64.3922L327.838 60.3266M489.547 64.3922L482.815 68.6958M327.838 60.3266H271.816M414.596 73.258L405.121 78.1037M414.596 73.258H475.677M482.815 68.6958L475.677 73.258M475.677 73.258L468.097 78.1037M342.145 78.1037L330.047 83.2594M342.145 78.1037H405.121M342.145 78.1037H279.169M405.121 78.1037L395.039 83.2594M405.121 78.1037H468.097M468.097 78.1037L460.031 83.2594M330.047 83.2594H395.039M330.047 83.2594H265.054M384.29 88.7562L395.039 83.2594M384.29 88.7562L372.804 94.6292M384.29 88.7562H451.432M395.039 83.2594H460.031M265.054 83.2594H200.062M265.054 83.2594L279.169 78.1037M460.031 83.2594L451.432 88.7562M279.169 78.1037H216.193M372.804 94.6292L360.506 100.918M372.804 94.6292H442.244M451.432 88.7562L442.244 94.6292M442.244 94.6292L432.405 100.918M288.607 100.918L272.765 107.669M288.607 100.918H360.506M288.607 100.918H216.708M360.506 100.918L347.304 107.669M360.506 100.918H432.405M432.405 100.918L421.844 107.669M272.765 107.669H347.304M272.765 107.669H198.226M333.096 114.935L347.304 107.669M333.096 114.935L317.761 122.777M333.096 114.935H410.477M347.304 107.669H421.844M198.226 107.669H123.687M198.226 107.669L216.708 100.918M421.844 107.669L410.477 114.935M216.708 100.918H144.809M317.761 122.777L301.161 131.265M317.761 122.777H398.209M410.477 114.935L398.209 122.777M398.209 122.777L384.929 131.265M217.393 131.265L195.758 140.485M217.393 131.265H301.161M217.393 131.265H133.625M301.161 131.265L283.132 140.485M301.161 131.265H384.929M384.929 131.265L370.505 140.485M195.758 140.485H283.132M195.758 140.485H108.384M263.48 150.534L283.132 140.485M263.48 150.534L241.977 161.53M263.48 150.534H354.784M283.132 140.485H370.505M108.384 140.485H21.0104M108.384 140.485L133.625 131.265M370.505 140.485L354.784 150.534M133.625 131.265H49.8579M241.977 161.53L218.349 173.613M241.977 161.53H337.582M354.784 150.534L337.582 161.53M337.582 161.53L318.679 173.613M118.019 173.613L86.7156 186.953M118.019 173.613H218.349M118.019 173.613H17.6882M218.349 173.613L192.263 186.953M218.349 173.613H318.679M318.679 173.613L297.81 186.953M192.263 186.953H86.7156M192.263 186.953H297.81M86.7156 186.953L0.387546 186.952M17.6882 173.613L0.387546 179.932M17.6882 173.613H0.387546M359.03 9.37868L352.495 11.0498M359.03 9.37868H395.127M359.03 9.37868H322.934M400.804 7.76595L406.286 6.20862M400.804 7.76595L395.127 9.37868M400.804 7.76595H436.27M406.286 6.20862H441.143M406.286 6.20862L411.582 4.70404M377.313 4.70404H411.582M377.313 4.70404L379.47 4.15281L383.003 3.24926M377.313 4.70404H343.045M395.127 9.37868L389.245 11.0498M395.127 9.37868H431.224M436.27 7.76595L441.143 6.20862M436.27 7.76595L431.224 9.37868M441.143 6.20862L444.689 5.07537L445.851 4.70404M411.582 4.70404L412.232 4.51932L416.703 3.24926M411.582 4.70404H445.851M431.224 9.37868L425.996 11.0498M480.119 4.70404L484.102 3.24926M480.119 4.70404H445.851M445.851 4.70404L447.576 4.15281L450.402 3.24926M352.495 11.0498H389.245M352.495 11.0498H315.744M383.146 12.7825L389.245 11.0498M383.146 12.7825L376.818 14.5802M383.146 12.7825H420.575M389.245 11.0498H425.996M315.744 11.0498H278.994M315.744 11.0498L322.934 9.37868M425.996 11.0498L420.575 12.7825M322.934 9.37868H286.837M376.818 14.5802L375.198 15.0401L370.247 16.4467M376.818 14.5802H414.95M420.575 12.7825L414.95 14.5802M414.95 14.5802L409.109 16.4467M331.386 16.4467L330.454 16.6853L323.801 18.3863M331.386 16.4467H370.247M331.386 16.4467H292.525M370.247 16.4467L363.421 18.3863M370.247 16.4467H409.109M409.109 16.4467L408.364 16.6853L403.041 18.3863M323.801 18.3863H363.421M323.801 18.3863H284.181M356.322 20.4031L363.421 18.3863M356.322 20.4031L348.935 22.5017M356.322 20.4031H396.731M363.421 18.3863H403.041M284.181 18.3863H244.561M284.181 18.3863L292.525 16.4467M403.041 18.3863L396.731 20.4031M292.525 16.4467H253.663M348.935 22.5017L341.241 24.6874M348.935 22.5017H390.164M396.731 20.4031L390.164 22.5017M390.164 22.5017L383.326 24.6874M299.157 24.6874L290.247 26.9657M299.157 24.6874H341.241M299.157 24.6874H257.073M341.241 24.6874L333.222 26.9657M341.241 24.6874H383.326M383.326 24.6874L376.197 26.9657M290.247 26.9657H333.222M290.247 26.9657H247.271M324.856 29.3425L333.222 26.9657M324.856 29.3425L316.119 31.8242M324.856 29.3425H368.76M333.222 26.9657H376.197M247.271 26.9657H204.296M247.271 26.9657L257.073 24.6874M376.197 26.9657L368.76 29.3425M257.073 24.6874H214.988M316.119 31.8242L306.988 34.4184M316.119 31.8242H360.995M368.76 29.3425L360.995 31.8242M360.995 31.8242L352.878 34.4184M261.098 34.4184L250.483 37.1326M261.098 34.4184H306.988M261.098 34.4184H215.208M306.988 34.4184L297.435 37.1326M306.988 34.4184H352.878M352.878 34.4184L344.386 37.1326M250.483 37.1326H297.435M250.483 37.1326H203.531M287.428 39.9752L297.435 37.1326M287.428 39.9752L276.937 42.9557M287.428 39.9752H335.492M297.435 37.1326H344.386M203.531 37.1326H156.579M203.531 37.1326L215.208 34.4184M344.386 37.1326L335.492 39.9752M215.208 34.4184H169.317M276.937 42.9557L265.924 46.0845M276.937 42.9557H326.166M335.492 39.9752L326.166 42.9557M326.166 42.9557L316.377 46.0845M215.471 46.0845L202.611 49.3727M215.471 46.0845H265.924M215.471 46.0845H165.018M265.924 46.0845L254.349 49.3727M265.924 46.0845H316.377M316.377 46.0845L306.089 49.3727M202.611 49.3727H254.349M202.611 49.3727H150.871M242.169 52.8329L254.349 49.3727M242.169 52.8329L229.335 56.479M242.169 52.8329H295.262M254.349 49.3727H306.089M150.871 49.3727H99.1326M150.871 49.3727L165.018 46.0845M306.089 49.3727L295.262 52.8329M165.018 46.0845H114.565M229.335 56.479L215.792 60.3266M229.335 56.479H283.853M295.262 52.8329L283.853 56.479M283.853 56.479L271.816 60.3266M159.769 60.3266L143.868 64.3922M159.769 60.3266H215.792M159.769 60.3266H103.746M215.792 60.3266L201.481 64.3922M215.792 60.3266H271.816M271.816 60.3266L259.094 64.3922M143.868 64.3922H201.481M143.868 64.3922H86.2546M186.333 68.6958L201.481 64.3922M186.333 68.6958L170.274 73.258M186.333 68.6958H245.629M201.481 64.3922H259.094M86.2546 64.3922H28.6413M86.2546 64.3922L103.746 60.3266M259.094 64.3922L245.629 68.6958M103.746 60.3266H47.7231M170.274 73.258L153.217 78.1037M170.274 73.258H231.355M245.629 68.6958L231.355 73.258M231.355 73.258L216.193 78.1037M90.2417 78.1037L70.0775 83.2594M90.2417 78.1037H153.217M90.2417 78.1037H27.2658M153.217 78.1037L135.07 83.2594M153.217 78.1037H216.193M216.193 78.1037L200.062 83.2594M70.0775 83.2594H135.07M70.0775 83.2594H5.08526M115.72 88.7562L135.07 83.2594M115.72 88.7562L95.0481 94.6292M115.72 88.7562H182.863M135.07 83.2594H200.062M5.08526 83.2594L27.2658 78.1037M5.08526 83.2594H0.387546M5.08526 83.2594L0.387546 84.3513M200.062 83.2594L182.863 88.7562M27.2658 78.1037H0.387546M95.0481 94.6292L72.911 100.918M95.0481 94.6292H164.487M182.863 88.7562L164.487 94.6292M164.487 94.6292L144.809 100.918M1.01196 100.918H72.911M1.01196 100.918H0.387546M1.01196 100.918L0.387546 101.078M72.911 100.918L49.1473 107.669M72.911 100.918H144.809M144.809 100.918L123.687 107.669M23.5726 114.935L49.1473 107.669M23.5726 114.935H100.953M23.5726 114.935H0.387546M23.5726 114.935L0.387546 121.522M49.1473 107.669H123.687M49.1473 107.669H0.387546M123.687 107.669L100.953 114.935M100.953 114.935L76.4184 122.777M76.4184 122.777L49.8579 131.265M76.4184 122.777H0.387546M49.8579 131.265L21.0104 140.485M49.8579 131.265H0.387546M21.0104 140.485H0.387546M21.0104 140.485L0.387546 147.076M214.642 9.37868L205.493 11.0498M214.642 9.37868H250.74M214.642 9.37868H178.546M258.939 7.76595L266.857 6.20862M258.939 7.76595L250.74 9.37868M258.939 7.76595H294.405M266.857 6.20862H301.714M266.857 6.20862L274.507 4.70404M240.239 4.70404H274.507M240.239 4.70404L248.204 3.24926M240.239 4.70404H205.97M250.74 9.37868L242.243 11.0498M250.74 9.37868H286.837M294.405 7.76595L301.714 6.20862M294.405 7.76595L286.837 9.37868M301.714 6.20862L308.776 4.70404M274.507 4.70404L275.445 4.51932L281.904 3.24926M274.507 4.70404H308.776M286.837 9.37868L278.994 11.0498M343.045 4.70404L349.303 3.24926M343.045 4.70404H308.776M308.776 4.70404L309.642 4.51932L315.603 3.24926M205.493 11.0498H242.243M205.493 11.0498H168.742M233.433 12.7825L242.243 11.0498M233.433 12.7825L224.293 14.5802M233.433 12.7825H270.862M242.243 11.0498H278.994M168.742 11.0498H131.992M168.742 11.0498L178.546 9.37868M278.994 11.0498L270.862 12.7825M178.546 9.37868H142.449M224.293 14.5802L214.802 16.4467M224.293 14.5802H262.424M270.862 12.7825L269.824 13.0033L262.424 14.5802M262.424 14.5802L253.663 16.4467M175.941 16.4467L165.321 18.3863M175.941 16.4467H214.802M175.941 16.4467H137.079M214.802 16.4467L204.941 18.3863M214.802 16.4467H253.663M253.663 16.4467L244.561 18.3863M165.321 18.3863H204.941M165.321 18.3863H125.701M194.687 20.4031L204.941 18.3863M194.687 20.4031L184.017 22.5017M194.687 20.4031H235.096M204.941 18.3863H244.561M125.701 18.3863H86.0814M125.701 18.3863L137.079 16.4467M244.561 18.3863L235.096 20.4031M137.079 16.4467H98.2181M184.017 22.5017L172.904 24.6874M184.017 22.5017H225.246M235.096 20.4031L225.246 22.5017M225.246 22.5017L214.988 24.6874M130.82 24.6874L118.345 26.9657M130.82 24.6874H172.904M130.82 24.6874H88.735M172.904 24.6874L161.321 26.9657M172.904 24.6874H214.988M214.988 24.6874L204.296 26.9657M118.345 26.9657H161.321M118.345 26.9657H75.3697M149.236 29.3425L161.321 26.9657M149.236 29.3425L136.617 31.8242M149.236 29.3425H193.141M161.321 26.9657H204.296M75.3697 26.9657H32.3946M75.3697 26.9657L88.735 24.6874M204.296 26.9657L193.141 29.3425M88.735 24.6874H46.6511M136.617 31.8242L123.427 34.4184M136.617 31.8242H181.492M193.141 29.3425L181.492 31.8242M181.492 31.8242L169.317 34.4184M77.5368 34.4184L62.676 37.1326M77.5368 34.4184H123.427M77.5368 34.4184H31.6472M123.427 34.4184L109.628 37.1326M123.427 34.4184H169.317M169.317 34.4184L156.579 37.1326M62.676 37.1326H109.628M95.174 39.9752L109.628 37.1326M95.174 39.9752L80.0202 42.9557M95.174 39.9752H143.238M109.628 37.1326H156.579M156.579 37.1326L143.238 39.9752M31.6472 34.4184H0.387546M80.0202 42.9557L64.1122 46.0845M80.0202 42.9557H129.249M143.238 39.9752L129.249 42.9557M129.249 42.9557L114.565 46.0845M13.6591 46.0845H64.1122M13.6591 46.0845H0.387546M13.6591 46.0845L0.387546 48.5083M64.1122 46.0845L47.3932 49.3727M64.1122 46.0845H114.565M114.565 46.0845L99.1326 49.3727M29.8002 52.8329L47.3932 49.3727M29.8002 52.8329L11.2619 56.479M29.8002 52.8329H82.8926M29.8002 52.8329H0.387546M47.3932 49.3727H99.1326M47.3932 49.3727H0.387546M99.1326 49.3727L82.8926 52.8329M0.241375 48.535L0.387546 48.5083M11.2619 56.479H65.7801M11.2619 56.479H0.387546M11.2619 56.479L0.387546 58.6178M82.8926 52.8329L65.7801 56.479M65.7801 56.479L47.7231 60.3266M47.7231 60.3266L28.6413 64.3922M47.7231 60.3266H0.387546M8.44421 68.6958L28.6413 64.3922M8.44421 68.6958H0.387546M8.44421 68.6958L0.387546 70.4123M28.6413 64.3922H0.387546M70.2552 9.37868L58.491 11.0498M70.2552 9.37868H106.352M70.2552 9.37868H34.1576M117.074 7.76595L127.428 6.20862M117.074 7.76595L106.352 9.37868M117.074 7.76595H152.541M127.428 6.20862H162.285M127.428 6.20862L137.433 4.70404M103.164 4.70404H137.433M103.164 4.70404L113.405 3.24926M103.164 4.70404H68.8954M106.352 9.37868L95.2415 11.0498M106.352 9.37868H142.449M152.541 7.76595L162.285 6.20862M152.541 7.76595L142.449 9.37868M162.285 6.20862L171.701 4.70404M137.433 4.70404H171.701M137.433 4.70404L147.105 3.24926M142.449 9.37868L131.992 11.0498M205.97 4.70404L214.505 3.24926M205.97 4.70404H171.701M171.701 4.70404L180.805 3.24926M58.491 11.0498H95.2415M58.491 11.0498H21.7405M83.7209 12.7825L95.2415 11.0498M83.7209 12.7825L71.7679 14.5802M83.7209 12.7825H121.149M95.2415 11.0498H131.992M21.7405 11.0498L34.1576 9.37868M21.7405 11.0498H0.387546M131.992 11.0498L121.149 12.7825M34.1576 9.37868H0.387546M71.7679 14.5802L59.3568 16.4467M71.7679 14.5802H109.899M121.149 12.7825L109.899 14.5802M109.899 14.5802L98.2181 16.4467M20.4955 16.4467L6.84157 18.3863M20.4955 16.4467H59.3568M20.4955 16.4467H0.387546M59.3568 16.4467L46.4615 18.3863M59.3568 16.4467H98.2181M98.2181 16.4467L86.0814 18.3863M33.0527 20.4031L46.4615 18.3863M33.0527 20.4031L19.099 22.5017M33.0527 20.4031H73.4612M33.0527 20.4031H0.387546M46.4615 18.3863H6.84157M46.4615 18.3863H86.0814M6.84157 18.3863L0.387546 19.303M6.84157 18.3863H0.387546M86.0814 18.3863L73.4612 20.4031M19.099 22.5017L4.56654 24.6874M19.099 22.5017H60.3283M19.099 22.5017H0.387546M73.4612 20.4031L60.3283 22.5017M60.3283 22.5017L46.6511 24.6874M4.56654 24.6874H46.6511M4.56654 24.6874L0.387546 25.3158M4.56654 24.6874H0.387546M46.6511 24.6874L32.3946 26.9657M17.5211 29.3425L32.3946 26.9657M17.5211 29.3425L1.99018 31.8242M17.5211 29.3425H0.387546M32.3946 26.9657H0.387546M0.162665 26.9657H0.387546M1.99018 31.8242H0.387546M1.99018 31.8242L0.387546 32.0803M0 32.1423L0.387546 32.0803M10.6758 7.76595L22.8567 6.20862M10.6758 7.76595H0.387546M10.6758 7.76595L0.387546 9.08112M22.8567 6.20862L34.6269 4.70404M22.8567 6.20862H0.387546M68.8954 4.70404L79.7053 3.24926M68.8954 4.70404H34.6269M34.6269 4.70404L46.0057 3.24926M34.6269 4.70404H0.387546M1191.8 3.24926H1225.5M1191.8 3.24926H1158.1M1217.24 1.84213L1219.28 2.18963L1225.5 3.24926M1217.24 1.84213H1250.39M1225.5 3.24926H1259.2M1250.39 1.84213L1252.56 2.18963L1253.66 2.36418L1259.2 3.24926M1259.2 3.24926H1292.89M1292.89 3.24926H1326.6M1158.1 3.24926H1124.4M1326.6 3.24926H1360.29M1360.29 3.24926L1349.84 1.84213M1360.29 3.24926H1393.99M1349.84 1.84213H1382.99M1057 3.24926H1090.7M1057 3.24926H1023.3M1084.64 1.84213L1086.14 2.18963L1086.89 2.36418L1090.7 3.24926M1084.64 1.84213H1117.79M1090.7 3.24926H1124.4M1117.79 1.84213L1124.4 3.24926M1023.3 3.24926H989.598M922.198 3.24926H955.898M922.198 3.24926H888.499M952.045 1.84213L952.52 2.01534L952.996 2.18963L953.475 2.36418L955.898 3.24926M952.045 1.84213H985.194M955.898 3.24926H989.598M985.194 1.84213L989.598 3.24926M888.499 3.24926H854.798M787.399 3.24926H821.099M787.399 3.24926H753.7M819.448 1.84213L821.099 3.24926M819.448 1.84213H852.598M821.099 3.24926H854.798M852.598 1.84213L852.869 2.01534L853.141 2.18963L853.415 2.36418L854.798 3.24926M753.7 3.24926H720M652.601 3.24926H686.3M652.601 3.24926H618.901M686.851 1.84213L686.3 3.24926M686.851 1.84213H720M686.3 3.24926H720M720 1.84213V3.24926M618.901 3.24926H585.201M517.802 3.24926H551.501M517.802 3.24926H484.102M554.253 1.84213L553.574 2.18963L552.198 2.89293L551.501 3.24926M554.253 1.84213H587.402M551.501 3.24926H585.201M587.402 1.84213L587.131 2.01534L586.859 2.18963L586.585 2.36418L585.201 3.24926M484.102 3.24926H450.402M383.003 3.24926H416.703M383.003 3.24926H349.303M421.656 1.84213L420.433 2.18963L419.817 2.36418L416.703 3.24926M421.656 1.84213H454.806M416.703 3.24926H450.402M454.806 1.84213L454.263 2.01534L450.402 3.24926M349.303 3.24926H315.603M248.204 3.24926H281.904M248.204 3.24926H214.505M289.059 1.84213L287.292 2.18963L286.403 2.36418L281.904 3.24926M289.059 1.84213H322.208M281.904 3.24926H315.603M322.208 1.84213L321.394 2.01534L315.603 3.24926M214.505 3.24926H180.805M113.405 3.24926H147.105M113.405 3.24926H79.7053M156.461 1.84213L147.105 3.24926M156.461 1.84213H189.61M147.105 3.24926H180.805M189.61 1.84213L187.437 2.18963L186.342 2.36418L180.805 3.24926M79.7053 3.24926H46.0057M23.8641 1.84213L12.3061 3.24926M23.8641 1.84213H57.0136M23.8641 1.84213H0.387546M12.3061 3.24926H46.0057M12.3061 3.24926L0.387546 4.70048M12.3061 3.24926H0.387546M57.0136 1.84213L54.2955 2.18963L46.0057 3.24926M1382.99 1.84213L1385.7 2.18963L1393.99 3.24926M1393.99 3.24926H1427.69M1427.69 3.24926L1439.61 4.70049M1427.69 3.24926H1439.61M1439.61 70.4123V68.6958M1439.61 70.4123V73.258M1439.61 68.6958V64.3922M1439.61 73.258V74.1084V78.1037M1439.61 78.1037V83.2594M1439.61 37.1326V34.4184M1439.61 37.1326V39.7467M1439.61 1.84213V3.24926M1439.61 3.24926V4.70049M1439.61 4.70049L1439.64 4.70404H1439.61M1439.61 4.70049V4.70404M1439.61 4.70404V6.20862M1439.61 6.20862V7.76595M1439.61 7.76595V9.08112M1439.61 9.08112V9.37868M1439.61 9.37868V11.0498M1439.61 11.0498V12.7825M1439.61 12.7825V13.923M1439.61 13.923V14.5802M1439.61 14.5802V16.4467M1439.61 16.4467V18.3863M1439.61 18.3863V19.303M1439.61 19.303V20.4031M1439.61 20.4031V22.5017M1439.61 22.5017V24.6874M1439.61 24.6874V25.3158M1439.61 25.3158V26.9657M1439.61 26.9657V29.3425M1439.61 29.3425V31.8242M1439.61 31.8242V32.0803M1439.61 32.0803V34.4184M1439.61 39.9752V42.9557M1439.61 39.9752V39.7467M1439.61 42.9557V46.0845M1439.61 46.0845V48.5083M1439.61 48.5083V49.3727M1439.61 49.3727V52.8329M1439.61 52.8329V56.479M1439.61 56.479V58.6178M1439.61 58.6178V60.3266M1439.61 60.3266V64.3922M1439.61 83.2594V84.3513M1439.61 84.3513V88.7562M1439.61 88.7562V94.6292M1439.61 94.6292V100.918M1439.61 100.918V101.078M1439.61 101.078V107.669M1439.61 107.669V114.935M1439.61 114.935V121.522M1439.61 121.522V122.777M1439.61 122.777V131.265M1439.61 131.265V140.485M1439.61 140.485V147.076M1439.61 147.076V150.534M1439.61 150.534V161.53M1439.61 161.53V173.613M1439.61 173.613V179.932M1439.61 179.932V186.952M1439.61 186.952V187H0.387546V186.952M0.387546 39.9752V42.9557M0.387546 39.9752V39.7467M0.387546 39.7467V37.1326M0.387546 37.1326V34.4184M0.387546 34.4184V32.0803M0.387546 32.0803V31.8242M0.387546 31.8242V29.3425M0.387546 29.3425V26.9657M0.387546 26.9657V25.3158M0.387546 25.3158V24.6874M0.387546 24.6874V22.5017M0.387546 22.5017V20.4031M0.387546 20.4031V19.303M0.387546 19.303V18.3863M0.387546 18.3863V16.4467M0.387546 16.4467V14.5802M0.387546 14.5802V13.923M0.387546 13.923V12.7825M0.387546 12.7825V11.0498M0.387546 11.0498V9.37868M0.387546 9.37868V9.08112M0.387546 9.08112V7.76595M0.387546 7.76595V6.20862M0.387546 6.20862V4.70404M0.387546 4.70404H0.35831L0.387546 4.70048M0.387546 4.70404V4.70048M0.387546 4.70048V3.24926M0.387546 3.24926V1.84213M0.387546 186.952V179.932M0.387546 179.932V173.613M0.387546 173.613V161.53M0.387546 161.53V150.534M0.387546 150.534V147.076M0.387546 147.076V140.485M0.387546 140.485V131.265M0.387546 131.265V122.777M0.387546 122.777V121.522M0.387546 121.522V114.935M0.387546 114.935V107.669M0.387546 107.669V101.078M0.387546 101.078V100.918M0.387546 100.918V94.6292M0.387546 94.6292V88.7562M0.387546 88.7562V84.3513M0.387546 84.3513V83.2594M0.387546 83.2594V78.1037M0.387546 78.1037V73.258M0.387546 73.258V70.4123M0.387546 70.4123V68.6958M0.387546 68.6958V64.3922M0.387546 64.3922V60.3266M0.387546 60.3266V58.6178M0.387546 58.6178V56.479M0.387546 56.479V52.8329M0.387546 52.8329V49.3727M0.387546 49.3727V48.5083M0.387546 48.5083V46.0845M0.387546 46.0845V42.9557" stroke="url(#paint0_radial_448_1194)" stroke-opacity="0.7" strokeWidth="0.608754" stroke-miterlimit="10" stroke-linecap="round" stroke-linejoin="round"/>
<defs>
<radialGradient id="paint0_radial_448_1194" cx="0" cy="0" r="1" gradientUnits="userSpaceOnUse" gradientTransform="translate(720 180.125) rotate(-90) scale(291.972 2254.13)">
<stop stop-color="#525252"/>
<stop offset="0.489074" stop-color="#CED2DF" stop-opacity="0"/>
</radialGradient>
</defs>
</svg>
