<svg width="1440" height="224" viewBox="0 0 1440 224" fill="none" xmlns="http://www.w3.org/2000/svg">
<path d="M23.8646 221.313L35.0508 222.941M23.8646 221.313L57.014 221.313M23.8646 221.313L12.3066 219.631M23.8646 221.313L0.388049 221.313M35.0508 222.941L30.9805 222.94L26.9521 222.937L23.0078 222.927L19.1871 222.907L15.532 222.876L12.0816 222.828L8.8771 222.762L5.90278 222.677L3.35038 222.56L1.02665 222.425L0.388049 222.378L0.388049 221.313M35.0508 222.941L67.6672 222.941M67.6672 222.941L100.284 222.941M67.6672 222.941L57.014 221.313M100.284 222.941L132.901 222.941M100.284 222.941L90.1634 221.313M132.901 222.941L165.517 222.941M132.901 222.941L123.312 221.313M165.517 222.941L198.134 222.941M165.517 222.941L156.461 221.313M198.134 222.941L230.751 222.941M198.134 222.941L189.611 221.313M230.751 222.941L263.367 222.941M230.751 222.941L222.76 221.313M263.367 222.941L295.984 222.941M263.367 222.941L255.91 221.313M295.984 222.941L328.601 222.941M295.984 222.941L289.059 221.313M328.601 222.941L361.217 222.941M328.601 222.941L322.208 221.313M361.217 222.941L393.834 222.941M361.217 222.941L355.358 221.313M393.834 222.941L426.45 222.941M393.834 222.941L388.507 221.313M426.45 222.941L459.067 222.941M426.45 222.941L425.267 222.539L423.472 221.93L421.657 221.313M459.067 222.941L491.684 222.941M459.067 222.941L458.015 222.539L454.806 221.313M491.684 222.941L524.3 222.941M491.684 222.941L487.955 221.313M524.3 222.941L556.917 222.941M524.3 222.941L523.114 222.336L521.913 221.725L521.509 221.519L521.104 221.313M556.917 222.941L589.534 222.941M556.917 222.941L555.929 222.336L555.596 222.134L555.262 221.93L554.253 221.313M589.534 222.941L622.15 222.941M589.534 222.941L587.403 221.313M622.15 222.941L621.953 222.74L621.756 222.539L620.755 221.519L620.552 221.313M622.15 222.941L654.767 222.941M654.767 222.941L687.384 222.941M654.767 222.941L653.701 221.313M687.384 222.941L720 222.941M687.384 222.941L687.186 222.336L686.851 221.313M720 222.941L752.617 222.941M720 222.941L720 221.313M752.617 222.941L785.234 222.941M752.617 222.941L752.815 222.336L753.15 221.313M785.234 222.941L817.85 222.941M785.234 222.941L786.299 221.313M817.85 222.941L818.047 222.74L818.245 222.539L819.245 221.519L819.448 221.313M817.85 222.941L850.467 222.941M850.467 222.941L883.084 222.941M850.467 222.941L852.327 221.519L852.598 221.313M883.084 222.941L915.7 222.941M883.084 222.941L884.072 222.336L884.405 222.134L885.073 221.725L885.409 221.519L885.747 221.313M915.7 222.941L948.317 222.941M915.7 222.941L916.886 222.336L918.088 221.725L918.491 221.519L918.897 221.313M948.317 222.941L980.933 222.941M948.317 222.941L952.045 221.313M980.933 222.941L1013.55 222.941M980.933 222.941L981.986 222.539L985.195 221.313M1013.55 222.941L1046.17 222.941M1013.55 222.941L1018.34 221.313M1046.17 222.941L1078.78 222.941M1046.17 222.941L1051.49 221.313M1078.78 222.941L1111.4 222.941M1078.78 222.941L1084.64 221.313M1111.4 222.941L1144.02 222.941M1111.4 222.941L1117.79 221.313M1144.02 222.941L1176.63 222.941M1144.02 222.941L1150.94 221.313M1176.63 222.941L1209.25 222.941M1176.63 222.941L1184.09 221.313M1209.25 222.941L1241.87 222.941M1209.25 222.941L1217.24 221.313M1241.87 222.941L1274.48 222.941M1241.87 222.941L1250.39 221.313M1274.48 222.941L1307.1 222.941M1274.48 222.941L1283.54 221.313M1307.1 222.941L1339.72 222.941M1307.1 222.941L1316.69 221.313M1339.72 222.941L1372.33 222.941M1339.72 222.941L1349.84 221.313M1372.33 222.941L1404.95 222.941M1372.33 222.941L1382.99 221.313M1404.95 222.941L1409.02 222.94L1413.05 222.937L1416.99 222.927L1420.81 222.907L1424.47 222.876L1427.92 222.828L1431.12 222.762L1434.1 222.677L1436.65 222.56L1438.97 222.425L1439.61 222.378L1439.61 221.313M1404.95 222.941L1416.14 221.313M1349.84 221.313L1316.69 221.313M1349.84 221.313L1382.99 221.313M1349.84 221.313L1360.29 219.631M1316.69 221.313L1326.6 219.631M1316.69 221.313L1283.54 221.313M1217.24 221.313L1184.09 221.313M1217.24 221.313L1250.39 221.313M1217.24 221.313L1219.28 220.897L1225.5 219.631M1184.09 221.313L1191.8 219.631M1184.09 221.313L1150.94 221.313M1084.64 221.313L1051.49 221.313M1084.64 221.313L1117.79 221.313M1084.64 221.313L1086.14 220.897L1086.89 220.689L1090.7 219.631M1051.49 221.313L1052.17 221.106L1052.85 220.897L1057 219.631M1051.49 221.313L1018.34 221.313M952.045 221.313L952.52 221.106L955.898 219.631M952.045 221.313L918.897 221.313M952.045 221.313L985.195 221.313M918.897 221.313L919.711 220.897L920.122 220.689L920.534 220.479L922.198 219.631M918.897 221.313L885.747 221.313M819.448 221.313L786.299 221.313M819.448 221.313L852.598 221.313M819.448 221.313L821.099 219.631M786.299 221.313L786.435 221.106L786.57 220.897L786.708 220.689L787.121 220.057L787.399 219.631M786.299 221.313L753.15 221.313M686.851 221.313L653.701 221.313M686.851 221.313L720 221.313M686.851 221.313L686.301 219.631M653.701 221.313L653.566 221.106L653.43 220.897L653.293 220.689L652.601 219.631M653.701 221.313L620.552 221.313M554.253 221.313L521.104 221.313M554.253 221.313L587.403 221.313M554.253 221.313L553.574 220.897L552.198 220.057L551.851 219.844L551.502 219.631M521.104 221.313L520.289 220.897L519.878 220.689L519.467 220.479L517.802 219.631M521.104 221.313L487.955 221.313M421.657 221.313L388.507 221.313M421.657 221.313L454.806 221.313M421.657 221.313L420.433 220.897L419.818 220.689L416.703 219.631M388.507 221.313L387.829 221.106L387.148 220.897L383.004 219.631M388.507 221.313L355.358 221.313M289.059 221.313L255.91 221.313M289.059 221.313L322.208 221.313M289.059 221.313L287.292 220.897L286.403 220.689L281.904 219.631M255.91 221.313L248.204 219.631M255.91 221.313L222.76 221.313M156.461 221.313L123.312 221.313M156.461 221.313L189.611 221.313M156.461 221.313L147.106 219.631M123.312 221.313L113.405 219.631M123.312 221.313L90.1634 221.313M1439.73 206.087L1439.61 206.087M1406.36 206.087L1393.71 208.236M1406.36 206.087L1419.5 203.856M1406.36 206.087L1368.23 206.087M1406.36 206.087L1439.61 206.087M1393.71 208.236L1431.14 208.236M1393.71 208.236L1381.51 210.307M1393.71 208.236L1356.28 208.236M1431.14 208.236L1418.26 210.307M1431.14 208.236L1439.61 208.236M1431.14 208.236L1439.61 206.873M1393.86 214.232L1358.39 214.232M1393.86 214.232L1382.29 216.094M1393.86 214.232L1429.32 214.232M1393.86 214.232L1405.84 212.305M1358.39 214.232L1347.43 216.094M1358.39 214.232L1369.74 212.305M1358.39 214.232L1322.93 214.232M1382.29 216.094L1347.43 216.094M1382.29 216.094L1371.1 217.892M1382.29 216.094L1417.14 216.094M1347.43 216.094L1312.57 216.094M1347.43 216.094L1336.84 217.892M1439.98 172.171L1439.61 172.171M1409.21 172.171L1392.89 175.733M1409.21 172.171L1426.34 168.431M1409.21 172.171L1359.98 172.171M1409.21 172.171L1439.61 172.171M1392.89 175.733L1377.32 179.131M1392.89 175.733L1344.83 175.733M1392.89 175.733L1439.61 175.733M1424.28 179.131L1377.32 179.131M1424.28 179.131L1408.35 182.375M1424.28 179.131L1439.61 179.131M1424.28 179.131L1439.61 176.006M1393.13 185.476L1348.26 185.476M1393.13 185.476L1378.57 188.442M1393.13 185.476L1438.01 185.476M1393.13 185.476L1408.35 182.375M1348.26 185.476L1334.67 188.442M1348.26 185.476L1362.46 182.375M1348.26 185.476L1303.38 185.476M1378.57 188.442L1334.67 188.442M1378.57 188.442L1422.48 188.442M1378.57 188.442L1364.63 191.283M1334.67 188.442L1321.66 191.283M1334.67 188.442L1290.76 188.442M1338.44 196.619L1297.21 196.619M1338.44 196.619L1326.13 199.127M1338.44 196.619L1379.67 196.619M1338.44 196.619L1351.27 194.006M1297.21 196.619L1285.72 199.127M1297.21 196.619L1309.18 194.006M1297.21 196.619L1255.98 196.619M1326.13 199.127L1285.72 199.127M1326.13 199.127L1366.54 199.127M1326.13 199.127L1314.3 201.538M1285.72 199.127L1274.68 201.538M1285.72 199.127L1245.31 199.127M1291.97 206.087L1253.84 206.087M1291.97 206.087L1281.42 208.236M1291.97 206.087L1330.1 206.087M1291.97 206.087L1302.92 203.856M1253.84 206.087L1243.99 208.236M1253.84 206.087L1264.06 203.856M1253.84 206.087L1215.71 206.087M1281.42 208.236L1243.99 208.236M1281.42 208.236L1318.85 208.236M1281.42 208.236L1271.26 210.307M1243.99 208.236L1234.51 210.307M1243.99 208.236L1206.57 208.236M1251.99 214.232L1216.53 214.232M1251.99 214.232L1242.86 216.094M1251.99 214.232L1287.46 214.232M1251.99 214.232L1261.45 212.305M1216.53 214.232L1208 216.094M1216.53 214.232L1225.36 212.305M1216.53 214.232L1181.06 214.232M1242.86 216.094L1208 216.094M1242.86 216.094L1234.03 217.892M1242.86 216.094L1277.71 216.094M1208 216.094L1173.14 216.094M1208 216.094L1199.76 217.892M1414.39 110.407L1391.42 117.427M1414.39 110.407L1438.99 102.89M1414.39 110.407L1344.95 110.407M1414.39 110.407L1439.61 110.407M1391.42 117.427L1369.92 123.997M1391.42 117.427L1324.28 117.427M1391.42 117.427L1439.61 117.427M1391.89 135.951L1330.81 135.951M1391.89 135.951L1372.26 141.404M1391.89 135.951L1412.73 130.159M1391.89 135.951L1439.61 135.951M1330.81 135.951L1312.96 141.404M1330.81 135.951L1349.76 130.159M1330.81 135.951L1269.73 135.951M1372.26 141.404L1312.96 141.404M1372.26 141.404L1431.56 141.404M1372.26 141.404L1353.75 146.548M1312.96 141.404L1296.13 146.548M1312.96 141.404L1253.67 141.404M1319.7 156.007L1265.18 156.007M1319.7 156.007L1304.02 160.365M1319.7 156.007L1374.22 156.007M1319.7 156.007L1336.25 151.408M1265.18 156.007L1250.92 160.365M1265.18 156.007L1280.23 151.408M1265.18 156.007L1210.66 156.007M1304.02 160.365L1250.92 160.365M1304.02 160.365L1357.11 160.365M1304.02 160.365L1289.13 164.501M1250.92 160.365L1237.39 164.501M1250.92 160.365L1197.83 160.365M1261.52 172.171L1212.29 172.171M1261.52 172.171L1248.7 175.733M1261.52 172.171L1310.75 172.171M1261.52 172.171L1274.98 168.431M1212.29 172.171L1200.64 175.733M1212.29 172.171L1224.53 168.431M1212.29 172.171L1163.06 172.171M1248.7 175.733L1200.64 175.733M1248.7 175.733L1296.76 175.733M1248.7 175.733L1236.47 179.131M1200.64 175.733L1189.52 179.131M1200.64 175.733L1152.57 175.733M1213.63 185.476L1168.76 185.476M1213.63 185.476L1202.95 188.442M1213.63 185.476L1258.51 185.476M1213.63 185.476L1224.79 182.375M1168.76 185.476L1159.05 188.442M1168.76 185.476L1178.9 182.375M1168.76 185.476L1123.88 185.476M1202.95 188.442L1159.05 188.442M1202.95 188.442L1246.86 188.442M1202.95 188.442L1192.73 191.283M1159.05 188.442L1149.75 191.283M1159.05 188.442L1115.14 188.442M1173.52 196.619L1132.3 196.619M1173.52 196.619L1164.5 199.127M1173.52 196.619L1214.75 196.619M1173.52 196.619L1182.93 194.006M1132.3 196.619L1131.25 196.938L1124.09 199.127M1132.3 196.619L1140.84 194.006M1132.3 196.619L1091.07 196.619M1164.5 199.127L1124.09 199.127M1164.5 199.127L1204.9 199.127M1164.5 199.127L1155.82 201.538M1124.09 199.127L1116.2 201.538M1124.09 199.127L1083.68 199.127M1139.44 206.087L1101.31 206.087M1139.44 206.087L1131.71 208.236M1139.44 206.087L1177.58 206.087M1139.44 206.087L1147.48 203.856M1101.31 206.087L1094.28 208.236M1101.31 206.087L1104.02 205.26L1108.61 203.856M1101.31 206.087L1063.18 206.087M1131.71 208.236L1094.28 208.236M1131.71 208.236L1169.14 208.236M1131.71 208.236L1124.26 210.307M1094.28 208.236L1087.51 210.307M1094.28 208.236L1056.85 208.236M1110.13 214.232L1074.66 214.232M1110.13 214.232L1103.43 216.094M1110.13 214.232L1145.59 214.232M1110.13 214.232L1117.07 212.305M1074.66 214.232L1070.07 215.634L1069.32 215.864L1068.57 216.094M1074.66 214.232L1080.97 212.305M1074.66 214.232L1039.2 214.232M1103.43 216.094L1068.57 216.094M1103.43 216.094L1096.96 217.892M1103.43 216.094L1138.29 216.094M1068.57 216.094L1033.71 216.094M1068.57 216.094L1062.69 217.892M1389.23 30.4424L1293.63 30.4424M1389.23 30.4424L1359.13 43.5853M1389.23 30.4424L1422.31 16M1389.23 30.4424L1439.61 30.4422M1293.63 30.4424L1267.82 43.5853M1293.63 30.4424L1321.98 16M1293.63 30.4424L1198.02 30.4424M1359.13 43.5853L1267.82 43.5853M1359.13 43.5853L1331.62 55.5967M1359.13 43.5853L1439.61 43.5853M1267.82 43.5853L1244.24 55.5967M1267.82 43.5853L1176.52 43.5853M1283.13 76.7632L1202.69 76.7632M1283.13 76.7632L1261.67 86.1362M1283.13 76.7632L1363.58 76.7632M1283.13 76.7632L1306.37 66.6168M1202.69 76.7632L1184.29 86.1362M1202.69 76.7632L1222.61 66.6168M1202.69 76.7632L1122.24 76.7632M1261.67 86.1362L1184.29 86.1362M1261.67 86.1362L1339.05 86.1363M1261.67 86.1362L1241.77 94.8206M1184.29 86.1362L1167.23 94.8206M1184.29 86.1362L1106.9 86.1362M1206.07 110.407L1136.63 110.407M1206.07 110.407L1189.99 117.427M1206.07 110.407L1275.51 110.407M1206.07 110.407L1223.29 102.89M1136.63 110.407L1122.85 117.427M1136.63 110.407L1151.39 102.89M1136.63 110.407L1067.2 110.407M1189.99 117.427L1122.85 117.427M1189.99 117.427L1257.14 117.427M1189.99 117.427L1174.95 123.997M1122.85 117.427L1109.95 123.997M1122.85 117.427L1055.71 117.427M1147.57 135.951L1086.48 135.951M1147.57 135.951L1135.07 141.404M1147.57 135.951L1208.65 135.951M1147.57 135.951L1160.83 130.159M1086.48 135.951L1075.78 141.404M1086.48 135.951L1097.86 130.159M1086.48 135.951L1025.4 135.951M1135.07 141.404L1075.78 141.404M1135.07 141.404L1194.37 141.404M1135.07 141.404L1123.29 146.548M1075.78 141.404L1065.68 146.548M1075.78 141.404L1016.48 141.404M1101.63 156.007L1047.11 156.007M1101.63 156.007L1091.65 160.365M1101.63 156.007L1156.15 156.007M1101.63 156.007L1112.16 151.408M1047.11 156.007L1038.55 160.365M1047.11 156.007L1056.14 151.408M1047.11 156.007L992.592 156.007M1091.65 160.365L1038.55 160.365M1091.65 160.365L1144.74 160.365M1091.65 160.365L1082.17 164.501M1038.55 160.365L1030.43 164.501M1038.55 160.365L985.461 160.365M1064.6 172.171L1015.38 172.171M1064.6 172.171L1056.44 175.733M1064.6 172.171L1113.83 172.171M1064.6 172.171L1073.17 168.431M1015.38 172.171L1008.38 175.733M1015.38 172.171L1022.72 168.431M1015.38 172.171L966.147 172.171M1056.44 175.733L1008.38 175.733M1056.44 175.733L1104.51 175.733M1056.44 175.733L1048.66 179.131M1008.38 175.733L1001.71 179.131M1008.38 175.733L960.318 175.733M1034.13 185.476L989.254 185.476M1034.13 185.476L1027.33 188.442M1034.13 185.476L1079.01 185.476M1034.13 185.476L1041.23 182.375M989.254 185.476L983.43 188.442M989.254 185.476L995.341 182.375M989.254 185.476L944.378 185.476M1027.33 188.442L983.43 188.442M1027.33 188.442L1071.24 188.442M1027.33 188.442L1020.83 191.283M983.43 188.442L977.852 191.283M983.43 188.442L939.525 188.442M1008.61 196.619L967.377 196.619M1008.61 196.619L1002.86 199.127M1008.61 196.619L1049.84 196.619M1008.61 196.619L1014.59 194.006M967.377 196.619L968.007 196.298L972.506 194.006M967.377 196.619L962.453 199.127M967.377 196.619L926.147 196.619M1002.86 199.127L962.453 199.127M1002.86 199.127L1043.27 199.127M1002.86 199.127L997.34 201.538M962.453 199.127L957.72 201.538M962.453 199.127L922.043 199.127M986.919 206.087L948.788 206.087M986.919 206.087L981.998 208.236M986.919 206.087L1025.05 206.087M986.919 206.087L992.029 203.856M948.788 206.087L944.569 208.236M948.788 206.087L950.411 205.26L951.506 204.703L953.168 203.856M948.788 206.087L910.657 206.087M981.998 208.236L944.569 208.236M981.998 208.236L1019.43 208.236M981.998 208.236L977.254 210.307M944.569 208.236L943.027 209.022L942.01 209.539L940.503 210.307M944.569 208.236L907.141 208.236M968.263 214.232L932.798 214.232M968.263 214.232L965.052 215.634L964 216.094M968.263 214.232L1003.73 214.232M968.263 214.232L972.119 212.549L972.679 212.305M932.798 214.232L930.045 215.634L929.593 215.864L929.143 216.094M932.798 214.232L934.673 213.277L936.582 212.305M932.798 214.232L897.331 214.232M964 216.094L929.143 216.094M964 216.094L959.881 217.892M964 216.094L998.857 216.094M929.143 216.094L894.286 216.094M929.143 216.094L925.612 217.892M1006.81 30.4424L911.209 30.4424M1006.81 30.4424L993.912 43.5853M1006.81 30.4424L1102.42 30.4424M1006.81 30.4424L1020.99 16M911.209 30.4424L902.608 43.5853M911.209 30.4424L920.66 16M911.209 30.4424L815.604 30.4424M993.912 43.5853L902.608 43.5853M993.912 43.5853L1085.22 43.5853M993.912 43.5853L982.121 55.5967M902.608 43.5853L894.748 55.5967M902.608 43.5853L811.304 43.5853M961.343 76.7632L880.896 76.7632M961.343 76.7632L952.143 86.1362M961.343 76.7632L1041.79 76.7632M961.343 76.7632L971.304 66.6167M880.896 76.7632L874.762 86.1362M880.896 76.7632L887.536 66.6167M880.896 76.7632L800.448 76.7632M952.143 86.1362L874.762 86.1362M952.143 86.1362L1029.52 86.1362M952.143 86.1362L943.617 94.8206M874.762 86.1362L869.078 94.8206M874.762 86.1362L797.381 86.1362M928.317 110.407L858.879 110.407M928.317 110.407L921.426 117.427M928.317 110.407L997.756 110.407M928.317 110.407L935.696 102.89M858.879 110.407L854.284 117.427M858.879 110.407L863.797 102.89M858.879 110.407L789.439 110.407M921.426 117.427L854.284 117.427M921.426 117.427L988.569 117.427M921.426 117.427L914.977 123.997M854.284 117.427L849.985 123.997M854.284 117.427L787.142 117.427M903.242 135.951L842.162 135.951M903.242 135.951L897.889 141.404M903.242 135.951L964.323 135.951M903.242 135.951L908.928 130.159M842.162 135.951L838.593 141.404M842.162 135.951L845.952 130.159M842.162 135.951L781.081 135.951M897.889 141.404L838.593 141.404M897.889 141.404L957.185 141.404M897.889 141.404L892.84 146.548M838.593 141.404L835.227 146.548M838.593 141.404L779.296 141.404M883.555 156.007L829.036 156.007M883.555 156.007L879.277 160.365M883.555 156.007L938.073 156.007M883.555 156.007L888.069 151.408M829.036 156.007L826.185 160.365M829.036 156.007L832.046 151.408M829.036 156.007L774.518 156.007M879.277 160.365L826.185 160.365M879.277 160.365L932.369 160.365M879.277 160.365L875.217 164.501M826.185 160.365L823.478 164.501M826.185 160.365L773.093 160.365M867.688 172.171L818.459 172.171M867.688 172.171L864.191 175.733M867.688 172.171L916.917 172.171M867.688 172.171L871.359 168.431M818.459 172.171L816.127 175.733M818.459 172.171L820.906 168.431M818.459 172.171L769.229 172.171M864.191 175.733L816.127 175.733M864.191 175.733L912.254 175.733M864.191 175.733L862.921 177.026L860.855 179.131M816.127 175.733L813.904 179.131M816.127 175.733L768.064 175.733M854.627 185.476L809.752 185.476M854.627 185.476L851.715 188.442M854.627 185.476L899.503 185.476M854.627 185.476L856.897 183.163L857.671 182.375M809.752 185.476L809.013 186.604L807.81 188.442M809.752 185.476L811.781 182.375M809.752 185.476L764.876 185.476M851.715 188.442L851.36 188.804L848.926 191.283M851.715 188.442L807.81 188.442M851.715 188.442L895.62 188.442M807.81 188.442L807.103 189.522L806.871 189.878L806.639 190.232L805.951 191.283M807.81 188.442L763.905 188.442M843.689 196.619L802.46 196.619M843.689 196.619L842.445 197.886L842.138 198.198L841.833 198.51L841.528 198.819L841.226 199.127M843.689 196.619L884.918 196.619M843.689 196.619L846.253 194.006M802.46 196.619L801.222 198.51L801.019 198.819L800.818 199.127M802.46 196.619L804.169 194.006M802.46 196.619L761.23 196.619M841.226 199.127L800.818 199.127M841.226 199.127L881.635 199.127M841.226 199.127L839.736 200.645L839.443 200.944L838.86 201.538M800.818 199.127L799.825 200.645L799.628 200.944L799.434 201.242L799.24 201.538M800.818 199.127L760.409 199.127M834.394 206.087L796.263 206.087M834.394 206.087L832.284 208.236M834.394 206.087L872.526 206.087M834.394 206.087L834.934 205.538L835.754 204.703L836.584 203.856M796.263 206.087L796.443 205.813L797.538 204.14L797.723 203.856M796.263 206.087L794.856 208.236M796.263 206.087L758.131 206.087M832.284 208.236L794.856 208.236M832.284 208.236L869.713 208.236M832.284 208.236L830.252 210.307M794.856 208.236L794.342 209.022L794.173 209.281L794.003 209.539L793.501 210.307M794.856 208.236L757.428 208.236M826.399 214.232L790.933 214.232M826.399 214.232L825.022 215.634L824.572 216.094M826.399 214.232L861.865 214.232M826.399 214.232L827.101 213.517L827.336 213.277L827.574 213.035L828.291 212.305M790.933 214.232L790.778 214.468L790.471 214.938L790.166 215.403L789.715 216.094M790.933 214.232L791.558 213.277L791.716 213.035L792.034 212.549L792.194 212.305M790.933 214.232L755.467 214.232M824.572 216.094L789.715 216.094M824.572 216.094L823.024 217.671L822.806 217.892M824.572 216.094L859.429 216.094M789.715 216.094L789.565 216.322L789.417 216.549L789.268 216.775L789.121 217L788.683 217.671L788.537 217.892M789.715 216.094L754.857 216.094M624.396 30.4424L528.791 30.4424M624.396 30.4424L628.697 43.5853M624.396 30.4424L720 30.4424M624.396 30.4424L619.67 16M528.791 30.4424L537.392 43.5853M528.791 30.4424L519.34 16M528.791 30.4424L433.187 30.4424M628.697 43.5853L537.392 43.5853M628.697 43.5853L720 43.5853M628.697 43.5853L632.627 55.5967M537.392 43.5853L545.253 55.5967M537.392 43.5853L446.088 43.5853M639.553 76.7632L559.105 76.7632M639.553 76.7632L642.619 86.1362M639.553 76.7632L720 76.7632M639.553 76.7632L636.232 66.6167M559.105 76.7632L565.239 86.1362M559.105 76.7632L552.465 66.6167M559.105 76.7632L478.657 76.7632M642.619 86.1362L565.239 86.1362M642.619 86.1362L720 86.1362M642.619 86.1362L645.461 94.8206M565.239 86.1362L570.922 94.8206M565.239 86.1362L487.858 86.1362M650.561 110.407L581.122 110.407M650.561 110.407L652.858 117.427M650.561 110.407L720 110.407M650.561 110.407L648.101 102.89M581.122 110.407L585.716 117.427M581.122 110.407L576.203 102.89M581.122 110.407L511.683 110.407M652.858 117.427L585.716 117.427M652.858 117.427L720 117.427M652.858 117.427L655.008 123.997M585.716 117.427L590.016 123.997M585.716 117.427L518.574 117.427M658.919 135.951L597.839 135.951M658.919 135.951L660.704 141.404M658.919 135.951L720 135.951M658.919 135.951L657.025 130.159M597.839 135.951L601.407 141.404M597.839 135.951L594.049 130.159M597.839 135.951L536.759 135.951M660.704 141.404L601.407 141.404M660.704 141.404L720 141.404M660.704 141.404L662.387 146.548M601.407 141.404L604.774 146.548M601.407 141.404L542.111 141.404M665.482 156.007L610.964 156.007M665.482 156.007L666.908 160.365M665.482 156.007L720 156.007M665.482 156.007L663.977 151.408M610.964 156.007L613.815 160.365M610.964 156.007L607.954 151.408M610.964 156.007L556.445 156.007M666.908 160.365L613.815 160.365M666.908 160.365L720 160.365M666.908 160.365L668.262 164.501M613.815 160.365L616.522 164.501M613.815 160.365L560.723 160.365M670.771 172.171L621.542 172.171M670.771 172.171L671.937 175.733M670.771 172.171L720 172.171M670.771 172.171L669.547 168.431M621.542 172.171L623.874 175.733M621.542 172.171L619.094 168.431M621.542 172.171L572.313 172.171M671.937 175.733L623.874 175.733M671.937 175.733L720 175.733M671.937 175.733L673.049 179.131M623.874 175.733L626.097 179.131M623.874 175.733L575.809 175.733M675.125 185.476L630.249 185.476M675.125 185.476L676.096 188.442M675.125 185.476L720 185.476M675.125 185.476L674.11 182.375M630.249 185.476L631.953 188.079L632.19 188.442M630.249 185.476L628.22 182.375M630.249 185.476L585.374 185.476M676.096 188.442L676.213 188.804L677.025 191.283M676.096 188.442L632.19 188.442M676.096 188.442L720 188.442M632.19 188.442L632.897 189.522L633.13 189.878L633.362 190.232L634.049 191.283M632.19 188.442L588.286 188.442M678.771 196.619L637.541 196.619M678.771 196.619L679.592 199.127M678.771 196.619L720 196.619M678.771 196.619L678.455 195.652L678.347 195.326L678.241 194.999L678.025 194.339L677.916 194.006M637.541 196.619L638.779 198.51L639.183 199.127M637.541 196.619L635.832 194.006M637.541 196.619L596.312 196.619M679.592 199.127L639.183 199.127M679.592 199.127L720 199.127M679.592 199.127L680.38 201.538M639.183 199.127L640.176 200.645L640.372 200.944L640.566 201.242L640.76 201.538M639.183 199.127L598.774 199.127M681.869 206.087L643.738 206.087M681.869 206.087L682.572 208.236M681.869 206.087L720 206.087M681.869 206.087L681.139 203.856M643.738 206.087L643.558 205.813L642.463 204.14L642.278 203.856M643.738 206.087L645.144 208.236M643.738 206.087L605.607 206.087M682.572 208.236L645.144 208.236M682.572 208.236L720 208.236M682.572 208.236L683.25 210.307M645.144 208.236L645.658 209.022L645.828 209.281L645.997 209.539L646.499 210.307M645.144 208.236L607.716 208.236M684.534 214.232L649.067 214.232M684.534 214.232L685.143 216.094M684.534 214.232L720 214.232M684.534 214.232L683.903 212.304M649.067 214.232L649.223 214.468L649.53 214.938L649.682 215.171L649.986 215.634L650.136 215.864L650.286 216.094M649.067 214.232L648.442 213.277L648.285 213.035L647.966 212.549L647.807 212.304M649.067 214.232L613.602 214.232M685.143 216.094L685.217 216.322L685.292 216.549L685.366 216.775L685.732 217.892M685.143 216.094L650.286 216.094M685.143 216.094L720 216.094M650.286 216.094L615.429 216.094M650.286 216.094L650.584 216.549L650.732 216.775L650.879 217L651.318 217.671L651.463 217.892M241.978 30.4423L146.373 30.4423M241.978 30.4423L263.481 43.5852M241.978 30.4423L337.582 30.4424M241.978 30.4423L218.349 15.9999M146.373 30.4423L172.177 43.5852M146.373 30.4423L118.019 15.9999M146.373 30.4423L50.7684 30.4423M263.481 43.5852L172.177 43.5852M263.481 43.5852L354.784 43.5852M263.481 43.5852L283.132 55.5966M172.177 43.5852L195.758 55.5966M172.177 43.5852L80.8722 43.5852M317.762 76.7631L237.314 76.7631M317.762 76.7631L333.096 86.1362M317.762 76.7631L398.209 76.7632M317.762 76.7631L301.161 66.6167M237.314 76.7631L255.715 86.1362M237.314 76.7631L217.394 66.6167M237.314 76.7631L156.866 76.7631M333.096 86.1362L255.715 86.1362M333.096 86.1362L410.477 86.1362M333.096 86.1362L347.305 94.8206M255.715 86.1362L272.766 94.8206M255.715 86.1362L178.335 86.1362M372.805 110.407L303.366 110.407M372.805 110.407L384.29 117.427M372.805 110.407L442.244 110.407M372.805 110.407L360.506 102.89M303.366 110.407L317.147 117.427M303.366 110.407L288.608 102.89M303.366 110.407L233.927 110.407M384.29 117.427L317.147 117.427M384.29 117.427L451.432 117.427M384.29 117.427L395.039 123.997M317.147 117.427L330.047 123.997M317.147 117.427L250.006 117.427M414.597 135.951L353.516 135.951M414.597 135.951L423.519 141.404M414.597 135.951L475.678 135.951M414.597 135.951L405.121 130.159M353.516 135.951L364.223 141.404M353.516 135.951L342.145 130.159M353.516 135.951L292.435 135.951M423.519 141.404L364.223 141.404M423.519 141.404L482.815 141.404M423.519 141.404L431.934 146.548M364.223 141.404L374.321 146.548M364.223 141.404L304.926 141.404M447.409 156.007L392.891 156.007M447.409 156.007L454.539 160.365M447.409 156.007L501.927 156.007M447.409 156.007L439.885 151.408M392.891 156.007L401.447 160.365M392.891 156.007L383.862 151.408M392.891 156.007L338.372 156.007M454.539 160.365L401.447 160.365M454.539 160.365L507.631 160.365M454.539 160.365L461.306 164.501M401.447 160.365L409.566 164.501M401.447 160.365L348.354 160.365M473.854 172.171L424.625 172.171M473.854 172.171L479.683 175.733M473.854 172.171L523.084 172.171M473.854 172.171L467.736 168.431M424.625 172.171L431.619 175.733M424.625 172.171L417.283 168.431M424.625 172.171L375.396 172.171M479.683 175.733L431.619 175.733M479.683 175.733L527.746 175.733M479.683 175.733L485.242 179.131M431.619 175.733L438.29 179.131M431.619 175.733L383.556 175.733M495.622 185.476L495.001 185.096L494.375 184.714L490.55 182.375M495.622 185.476L450.747 185.476M495.622 185.476L500.476 188.442M495.622 185.476L540.498 185.476M450.747 185.476L456.571 188.442M450.747 185.476L444.659 182.375M450.747 185.476L405.871 185.476M500.476 188.442L456.571 188.442M500.476 188.442L544.38 188.442M500.476 188.442L505.123 191.283M456.571 188.442L462.148 191.283M456.571 188.442L412.666 188.442M513.853 196.619L472.623 196.619M513.853 196.619L517.957 199.127M513.853 196.619L555.082 196.619M513.853 196.619L509.579 194.006M472.623 196.619L475.725 198.198L477.548 199.127M472.623 196.619L467.494 194.006M472.623 196.619L431.394 196.619M517.957 199.127L477.548 199.127M517.957 199.127L558.366 199.127M517.957 199.127L521.416 201.242L521.901 201.538M477.548 199.127L482.281 201.538M477.548 199.127L437.139 199.127M529.344 206.087L491.212 206.087M529.344 206.087L530.235 206.632L532.859 208.236M529.344 206.087L567.475 206.087M529.344 206.087L528.444 205.538L526.619 204.422L525.694 203.856M491.212 206.087L495.431 208.236M491.212 206.087L489.589 205.26L488.494 204.703L486.832 203.856M491.212 206.087L453.081 206.087M532.859 208.236L495.431 208.236M532.859 208.236L570.288 208.236M532.859 208.236L535.412 209.797L536.248 210.307M495.431 208.236L496.974 209.022L497.99 209.539L499.498 210.307M495.431 208.236L458.003 208.236M542.669 214.232L507.203 214.232M542.669 214.232L544.585 215.403L545.715 216.094M542.669 214.232L578.135 214.232M542.669 214.232L539.516 212.304M507.203 214.232L509.956 215.634L510.407 215.864L510.858 216.094M507.203 214.232L505.327 213.277L503.419 212.304M507.203 214.232L471.737 214.232M545.715 216.094L510.858 216.094M545.715 216.094L547.198 217L547.93 217.448L548.295 217.671L548.657 217.892M545.715 216.094L580.572 216.094M510.858 216.094L476 216.094M510.858 216.094L514.388 217.892M23.5731 86.1362L100.954 86.1362M23.5731 86.1362L49.1478 94.8205M23.5731 86.1362L0.388062 86.1361M23.5731 86.1362L0.388063 78.2632M95.0485 110.407L25.6097 110.407M95.0485 110.407L115.721 117.427M95.0485 110.407L164.487 110.407M95.0485 110.407L72.9115 102.89M25.6097 110.407L48.5788 117.427M25.6097 110.407L1.01248 102.89M25.6097 110.407L0.38806 110.407M115.721 117.427L48.5788 117.427M115.721 117.427L182.863 117.427M115.721 117.427L135.07 123.997M48.5788 117.427L70.078 123.997M48.5788 117.427L0.388059 117.427M170.274 135.951L109.193 135.951M170.274 135.951L186.334 141.404M170.274 135.951L231.355 135.951M170.274 135.951L153.218 130.159M109.193 135.951L127.037 141.404M109.193 135.951L90.2421 130.159M109.193 135.951L48.1126 135.951M186.334 141.404L127.037 141.404M186.334 141.404L245.63 141.404M186.334 141.404L201.481 146.548M127.037 141.404L143.868 146.548M127.037 141.404L67.7408 141.404M229.336 156.007L174.818 156.007M229.336 156.007L242.169 160.365M229.336 156.007L283.854 156.007M229.336 156.007L215.793 151.408M174.818 156.007L189.078 160.365M174.818 156.007L159.769 151.408M174.818 156.007L120.299 156.007M242.169 160.365L189.078 160.365M242.169 160.365L295.262 160.365M242.169 160.365L254.35 164.501M189.078 160.365L202.611 164.501M189.078 160.365L135.986 160.365M276.937 172.171L227.708 172.171M276.937 172.171L287.429 175.733M276.937 172.171L326.166 172.171M276.937 172.171L265.924 168.431M227.708 172.171L239.365 175.733M227.708 172.171L215.471 168.431M227.708 172.171L178.479 172.171M287.429 175.733L239.365 175.733M287.429 175.733L335.492 175.733M287.429 175.733L297.435 179.131M239.365 175.733L250.483 179.131M239.365 175.733L191.302 175.733M316.119 185.476L271.244 185.476M316.119 185.476L324.856 188.442M316.119 185.476L360.995 185.476M316.119 185.476L306.989 182.375M271.244 185.476L280.951 188.442M271.244 185.476L261.098 182.375M271.244 185.476L226.369 185.476M324.856 188.442L280.951 188.442M324.856 188.442L368.761 188.442M324.856 188.442L333.222 191.283M280.951 188.442L290.247 191.283M280.951 188.442L237.046 188.442M348.935 196.619L307.706 196.619M348.935 196.619L356.322 199.127M348.935 196.619L390.165 196.619M348.935 196.619L341.241 194.006M307.706 196.619L315.913 199.127M307.706 196.619L299.157 194.006M307.706 196.619L266.476 196.619M356.322 199.127L315.913 199.127M356.322 199.127L396.731 199.127M356.322 199.127L363.421 201.538M315.913 199.127L323.801 201.538M315.913 199.127L275.505 199.127M376.819 206.087L338.687 206.087M376.819 206.087L383.147 208.236M376.819 206.087L414.95 206.087M376.819 206.087L375.199 205.537L374.384 205.26L370.248 203.856M338.687 206.087L345.719 208.236M338.687 206.087L331.386 203.856M338.687 206.087L300.556 206.087M383.147 208.236L345.719 208.236M383.147 208.236L420.575 208.236M383.147 208.236L389.245 210.307M345.719 208.236L352.495 210.307M345.719 208.236L308.291 208.236M400.804 214.232L365.338 214.232M400.804 214.232L406.286 216.094M400.804 214.232L436.271 214.232M400.804 214.232L395.128 212.304M365.338 214.232L369.926 215.634L370.679 215.864L371.429 216.094M365.338 214.232L359.031 212.304M365.338 214.232L329.872 214.232M406.286 216.094L371.429 216.094M406.286 216.094L410.93 217.67L411.583 217.892M406.286 216.094L441.143 216.094M371.429 216.094L336.571 216.094M371.429 216.094L377.313 217.892M11.2624 156.007L29.8007 160.365M11.2624 156.007L65.7806 156.007M11.2624 156.007L0.388056 153.45M11.2624 156.007L0.388056 156.007M29.8007 160.365L82.8931 160.365M29.8007 160.365L47.3937 164.501M29.8007 160.365L0.388055 160.365M80.0206 172.171L30.7909 172.171M80.0206 172.171L95.1753 175.733M80.0206 172.171L129.25 172.171M80.0206 172.171L64.1127 168.431M30.7909 172.171L47.1112 175.733M30.7909 172.171L13.6596 168.431M30.7909 172.171L0.388054 172.171M95.1753 175.733L47.1112 175.733M95.1753 175.733L143.239 175.733M95.1753 175.733L109.628 179.131M47.1112 175.733L62.6764 179.131M47.1112 175.733L0.388054 175.733M136.617 185.476L91.7413 185.476M136.617 185.476L149.236 188.442M136.617 185.476L181.493 185.476M136.617 185.476L123.427 182.375M91.7413 185.476L105.332 188.442M91.7413 185.476L77.538 182.375M91.7413 185.476L46.866 185.476M149.236 188.442L105.332 188.442M149.236 188.442L193.141 188.442M149.236 188.442L161.321 191.283M105.332 188.442L118.345 191.283M105.332 188.442L61.4261 188.442M184.017 196.619L142.788 196.619M184.017 196.619L194.688 199.127M184.017 196.619L225.247 196.619M184.017 196.619L172.905 194.006M142.788 196.619L154.279 199.127M142.788 196.619L130.82 194.006M142.788 196.619L101.558 196.619M194.688 199.127L154.279 199.127M194.688 199.127L235.096 199.127M194.688 199.127L204.942 201.538M154.279 199.127L165.322 201.538M154.279 199.127L113.87 199.127M224.293 206.087L186.162 206.087M224.293 206.087L233.434 208.236M224.293 206.087L262.424 206.087M224.293 206.087L214.803 203.856M186.162 206.087L196.006 208.236M186.162 206.087L175.941 203.856M186.162 206.087L148.031 206.087M233.434 208.236L196.006 208.236M233.434 208.236L270.863 208.236M233.434 208.236L242.244 210.307M196.006 208.236L205.493 210.307M196.006 208.236L158.578 208.236M258.939 214.232L223.473 214.232M258.939 214.232L266.857 216.094M258.939 214.232L294.406 214.232M258.939 214.232L250.74 212.304M223.473 214.232L232.001 216.094M223.473 214.232L214.643 212.304M223.473 214.232L188.007 214.232M266.857 216.094L232.001 216.094M266.857 216.094L274.508 217.892M266.857 216.094L301.714 216.094M232.001 216.094L197.143 216.094M232.001 216.094L240.239 217.892M19.0995 196.619L33.0532 199.127M19.0995 196.619L60.3287 196.619M19.0995 196.619L4.56701 194.006M19.0995 196.619L0.388052 196.619M33.0532 199.127L73.4617 199.127M33.0532 199.127L46.4619 201.538M33.0532 199.127L0.388051 199.127M71.7683 206.087L33.6371 206.087M71.7683 206.087L83.7214 208.236M71.7683 206.087L109.9 206.087M71.7683 206.087L59.3573 203.856M33.6371 206.087L46.2933 208.236M33.6371 206.087L20.4959 203.856M33.6371 206.087L0.388051 206.087M83.7214 208.236L46.2933 208.236M83.7214 208.236L121.15 208.236M83.7214 208.236L95.242 210.307M46.2933 208.236L58.4914 210.307M46.2933 208.236L8.8652 208.236M117.075 214.232L81.6083 214.232M117.075 214.232L127.429 216.094M117.075 214.232L152.541 214.232M117.075 214.232L106.352 212.304M81.6083 214.232L92.5719 216.094M81.6083 214.232L70.2557 212.304M81.6083 214.232L46.1419 214.232M127.429 216.094L92.5719 216.094M127.429 216.094L137.433 217.892M127.429 216.094L162.286 216.094M92.5719 216.094L57.7141 216.094M92.5719 216.094L103.164 217.892M70.2557 212.304L58.4914 210.307M70.2557 212.304L34.1581 212.304M70.2557 212.304L106.352 212.304M46.1419 214.232L57.7141 216.094M46.1419 214.232L34.1581 212.304M46.1419 214.232L10.6762 214.232M57.7141 216.094L22.8572 216.094M57.7141 216.094L68.8958 217.892M103.164 217.892L137.433 217.892M103.164 217.892L68.8958 217.892M103.164 217.892L113.405 219.631M34.1581 212.304L21.7403 210.307M34.1581 212.304L0.38805 212.304M10.6762 214.232L22.8572 216.094M10.6762 214.232L0.38805 212.66M10.6762 214.232L0.38805 214.232M22.8572 216.094L34.6274 217.892M22.8572 216.094L0.38805 216.094M68.8958 217.892L34.6274 217.892M68.8958 217.892L79.7058 219.631M34.6274 217.892L46.0063 219.631M34.6274 217.892L0.38805 217.892M58.4914 210.307L21.7403 210.307M58.4914 210.307L95.242 210.307M8.8652 208.236L21.7403 210.307M8.8652 208.236L0.388051 206.873M8.8652 208.236L0.388051 208.236M21.7403 210.307L0.38805 210.307M95.242 210.307L131.992 210.307M95.242 210.307L106.352 212.304M106.352 212.304L142.449 212.304M20.4959 203.856L6.84206 201.538M20.4959 203.856L59.3573 203.856M20.4959 203.856L0.388051 203.856M0.271841 206.087L0.388051 206.087M6.84206 201.538L46.4619 201.538M6.84206 201.538L0.388051 200.442M6.84206 201.538L0.388051 201.538M46.4619 201.538L86.0818 201.538M46.4619 201.538L59.3573 203.856M59.3573 203.856L98.2186 203.856M214.643 212.304L205.493 210.307M214.643 212.304L178.546 212.304M214.643 212.304L250.74 212.304M188.007 214.232L197.143 216.094M188.007 214.232L178.546 212.304M188.007 214.232L152.541 214.232M197.143 216.094L162.286 216.094M197.143 216.094L205.971 217.892M240.239 217.892L205.971 217.892M240.239 217.892L248.204 219.631M240.239 217.892L274.508 217.892M178.546 212.304L168.743 210.307M178.546 212.304L142.449 212.304M152.541 214.232L162.286 216.094M152.541 214.232L142.449 212.304M162.286 216.094L171.701 217.892M205.971 217.892L171.701 217.892M205.971 217.892L214.505 219.631M142.449 212.304L131.992 210.307M137.433 217.892L171.701 217.892M137.433 217.892L147.106 219.631M171.701 217.892L180.805 219.631M205.493 210.307L168.743 210.307M205.493 210.307L242.244 210.307M158.578 208.236L168.743 210.307M158.578 208.236L148.031 206.087M158.578 208.236L121.15 208.236M168.743 210.307L131.992 210.307M242.244 210.307L278.994 210.307M242.244 210.307L250.74 212.304M131.992 210.307L121.15 208.236M250.74 212.304L286.837 212.304M148.031 206.087L137.08 203.856M148.031 206.087L109.9 206.087M121.15 208.236L109.9 206.087M109.9 206.087L98.2186 203.856M175.941 203.856L165.322 201.538M175.941 203.856L137.08 203.856M175.941 203.856L214.803 203.856M137.08 203.856L125.702 201.538M137.08 203.856L98.2186 203.856M98.2186 203.856L86.0818 201.538M165.322 201.538L125.702 201.538M165.322 201.538L204.942 201.538M113.87 199.127L125.702 201.538M113.87 199.127L101.558 196.619M113.87 199.127L73.4617 199.127M125.702 201.538L86.0818 201.538M204.942 201.538L244.561 201.538M204.942 201.538L214.803 203.856M86.0818 201.538L73.4617 199.127M214.803 203.856L253.664 203.856M101.558 196.619L88.7354 194.006M101.558 196.619L60.3287 196.619M73.4617 199.127L60.3287 196.619M60.3287 196.619L46.6516 194.006M130.82 194.006L118.345 191.283M130.82 194.006L88.7354 194.006M130.82 194.006L172.905 194.006M88.7354 194.006L75.3702 191.283M88.7354 194.006L46.6516 194.006M46.6516 194.006L32.395 191.283M46.6516 194.006L4.56701 194.006M4.56701 194.006L0.388052 194.006M4.56701 194.006L0.388052 193.255M118.345 191.283L75.3702 191.283M118.345 191.283L161.321 191.283M61.4261 188.442L75.3702 191.283M61.4261 188.442L46.866 185.476M61.4261 188.442L17.5216 188.442M75.3702 191.283L32.395 191.283M161.321 191.283L204.296 191.283M161.321 191.283L172.905 194.006M32.395 191.283L17.5216 188.442M32.395 191.283L0.388052 191.283M172.905 194.006L214.988 194.006M46.866 185.476L31.6477 182.375M46.866 185.476L1.99064 185.476M17.5216 188.442L1.99064 185.476M17.5216 188.442L0.388052 188.442M0.163137 191.283L0.388052 191.283M1.99064 185.476L0.388053 185.17M1.99064 185.476L0.388053 185.476M77.538 182.375L62.6764 179.131M77.538 182.375L31.6477 182.375M77.538 182.375L123.427 182.375M31.6477 182.375L15.7248 179.131M31.6477 182.375L0.388053 182.375M0.00053579 185.096L0.388053 185.17M62.6764 179.131L15.7248 179.131M62.6764 179.131L109.628 179.131M15.7248 179.131L0.388053 179.131M15.7248 179.131L0.388054 176.006M109.628 179.131L156.58 179.131M109.628 179.131L123.427 182.375M123.427 182.375L169.318 182.375M13.6596 168.431L64.1127 168.431M13.6596 168.431L0.388055 165.534M13.6596 168.431L0.388054 168.431M0.0229554 172.171L0.388054 172.171M64.1127 168.431L114.566 168.431M64.1127 168.431L47.3937 164.501M0.241924 165.502L0.388055 165.534M359.031 212.304L352.495 210.307M359.031 212.304L322.934 212.304M359.031 212.304L395.128 212.304M329.872 214.232L336.571 216.094M329.872 214.232L322.934 212.304M329.872 214.232L294.406 214.232M336.571 216.094L301.714 216.094M336.571 216.094L343.045 217.892M377.313 217.892L343.045 217.892M377.313 217.892L379.47 218.551L383.004 219.631M377.313 217.892L411.583 217.892M322.934 212.304L315.745 210.307M322.934 212.304L286.837 212.304M294.406 214.232L301.714 216.094M294.406 214.232L286.837 212.304M301.714 216.094L308.776 217.892M343.045 217.892L308.776 217.892M343.045 217.892L349.303 219.631M286.837 212.304L278.994 210.307M274.508 217.892L281.904 219.631M274.508 217.892L308.776 217.892M308.776 217.892L309.642 218.113L311.364 218.551L315.604 219.631M352.495 210.307L315.745 210.307M352.495 210.307L389.245 210.307M308.291 208.236L315.745 210.307M308.291 208.236L300.556 206.087M308.291 208.236L270.863 208.236M315.745 210.307L278.994 210.307M389.245 210.307L425.996 210.307M389.245 210.307L395.128 212.304M278.994 210.307L270.863 208.236M395.128 212.304L431.225 212.304M300.556 206.087L292.525 203.856M300.556 206.087L262.424 206.087M270.863 208.236L269.824 207.972L262.424 206.087M262.424 206.087L253.664 203.856M331.386 203.856L330.455 203.571L323.801 201.538M331.386 203.856L292.525 203.856M331.386 203.856L370.248 203.856M292.525 203.856L284.181 201.538M292.525 203.856L253.664 203.856M253.664 203.856L244.561 201.538M323.801 201.538L284.181 201.538M323.801 201.538L363.421 201.538M275.505 199.127L284.181 201.538M275.505 199.127L266.476 196.619M275.505 199.127L235.096 199.127M284.181 201.538L244.561 201.538M363.421 201.538L403.041 201.538M363.421 201.538L370.248 203.856M244.561 201.538L235.096 199.127M370.248 203.856L409.109 203.856M266.476 196.619L257.073 194.006M266.476 196.619L225.247 196.619M235.096 199.127L225.247 196.619M225.247 196.619L214.988 194.006M299.157 194.006L290.247 191.283M299.157 194.006L257.073 194.006M299.157 194.006L341.241 194.006M257.073 194.006L247.271 191.283M257.073 194.006L214.988 194.006M214.988 194.006L204.296 191.283M290.247 191.283L247.271 191.283M290.247 191.283L333.222 191.283M237.046 188.442L247.271 191.283M237.046 188.442L226.369 185.476M237.046 188.442L193.141 188.442M247.271 191.283L204.296 191.283M333.222 191.283L376.197 191.283M333.222 191.283L341.241 194.006M204.296 191.283L193.141 188.442M341.241 194.006L383.326 194.006M226.369 185.476L215.208 182.375M226.369 185.476L181.493 185.476M193.141 188.442L181.493 185.476M181.493 185.476L169.318 182.375M261.098 182.375L250.483 179.131M261.098 182.375L215.208 182.375M261.098 182.375L306.989 182.375M215.208 182.375L203.532 179.131M215.208 182.375L169.318 182.375M169.318 182.375L156.58 179.131M250.483 179.131L203.532 179.131M250.483 179.131L297.435 179.131M191.302 175.733L203.532 179.131M191.302 175.733L178.479 172.171M191.302 175.733L143.239 175.733M203.532 179.131L156.58 179.131M297.435 179.131L344.387 179.131M297.435 179.131L306.989 182.375M156.58 179.131L143.239 175.733M306.989 182.375L352.879 182.375M178.479 172.171L165.019 168.431M178.479 172.171L129.25 172.171M143.239 175.733L129.25 172.171M129.25 172.171L114.566 168.431M215.471 168.431L202.611 164.501M215.471 168.431L165.019 168.431M215.471 168.431L265.924 168.431M165.019 168.431L150.872 164.501M165.019 168.431L114.566 168.431M114.566 168.431L99.1331 164.501M202.611 164.501L150.872 164.501M202.611 164.501L254.35 164.501M135.986 160.365L150.872 164.501M135.986 160.365L120.299 156.007M135.986 160.365L82.8931 160.365M150.872 164.501L99.1331 164.501M254.35 164.501L306.089 164.501M254.35 164.501L265.924 168.431M99.1331 164.501L82.8931 160.365M99.1331 164.501L47.3937 164.501M265.924 168.431L316.377 168.431M120.299 156.007L103.747 151.408M120.299 156.007L65.7806 156.007M82.8931 160.365L65.7806 156.007M47.3937 164.501L0.388055 164.501M65.7806 156.007L47.7235 151.408M159.769 151.408L143.868 146.548M159.769 151.408L103.747 151.408M159.769 151.408L215.793 151.408M103.747 151.408L86.2551 146.548M103.747 151.408L47.7235 151.408M47.7235 151.408L28.6418 146.548M47.7235 151.408L0.388056 151.408M143.868 146.548L86.2551 146.548M143.868 146.548L201.481 146.548M67.7408 141.404L86.2551 146.548M67.7408 141.404L48.1126 135.951M67.7408 141.404L8.44475 141.404M86.2551 146.548L28.6418 146.548M201.481 146.548L259.095 146.548M201.481 146.548L215.793 151.408M28.6418 146.548L8.44475 141.404M28.6418 146.548L0.388057 146.548M215.793 151.408L271.816 151.408M48.1126 135.951L27.2664 130.159M48.1126 135.951L0.388058 135.951M8.44475 141.404L0.388057 141.404M8.44475 141.404L0.388057 139.353M90.2421 130.159L70.078 123.997M90.2421 130.159L27.2664 130.159M90.2421 130.159L153.218 130.159M27.2664 130.159L5.08575 123.997M27.2664 130.159L0.388058 130.159M70.078 123.997L5.08575 123.997M70.078 123.997L135.07 123.997M5.08575 123.997L0.388059 122.692M5.08575 123.997L0.388059 123.997M135.07 123.997L200.062 123.997M135.07 123.997L153.218 130.159M153.218 130.159L216.194 130.159M1.01248 102.89L72.9115 102.89M1.01248 102.89L0.388061 102.89M1.01248 102.89L0.388061 102.699M72.9115 102.89L144.81 102.89M72.9115 102.89L49.1478 94.8205M503.419 212.304L501.965 211.564L501.476 211.315L499.498 210.307M503.419 212.304L467.322 212.304M503.419 212.304L539.516 212.304M471.737 214.232L474.948 215.634L476 216.094M471.737 214.232L467.882 212.549L467.322 212.304M471.737 214.232L436.271 214.232M476 216.094L441.143 216.094M476 216.094L480.12 217.892M514.388 217.892L480.12 217.892M514.388 217.892L515.682 218.551L517.802 219.631M514.388 217.892L548.657 217.892M467.322 212.304L466.193 211.812L462.746 210.307M467.322 212.304L431.225 212.304M436.271 214.232L441.143 216.094M436.271 214.232L431.225 212.304M441.143 216.094L444.689 217.448L445.851 217.892M480.12 217.892L445.851 217.892M480.12 217.892L484.102 219.631M431.225 212.304L425.996 210.307M411.583 217.892L412.232 218.113L416.703 219.631M411.583 217.892L445.851 217.892M445.851 217.892L447.576 218.551L450.403 219.631M499.498 210.307L462.746 210.307M499.498 210.307L536.248 210.307M458.003 208.236L462.746 210.307M458.003 208.236L453.081 206.087M458.003 208.236L420.575 208.236M462.746 210.307L425.996 210.307M536.248 210.307L572.998 210.307M536.248 210.307L539.516 212.304M425.996 210.307L420.575 208.236M539.516 212.304L575.612 212.304M453.081 206.087L449.91 204.703L449.266 204.422L447.971 203.856M453.081 206.087L414.95 206.087M420.575 208.236L414.95 206.087M414.95 206.087L409.109 203.856M486.832 203.856L482.281 201.538M486.832 203.856L447.971 203.856M486.832 203.856L525.694 203.856M447.971 203.856L442.661 201.538M447.971 203.856L409.109 203.856M409.109 203.856L403.041 201.538M482.281 201.538L442.661 201.538M482.281 201.538L521.901 201.538M437.139 199.127L440.616 200.645L441.3 200.944L442.661 201.538M437.139 199.127L431.394 196.619M437.139 199.127L396.731 199.127M442.661 201.538L403.041 201.538M521.901 201.538L561.521 201.538M521.901 201.538L525.694 203.856M403.041 201.538L396.731 199.127M525.694 203.856L564.555 203.856M431.394 196.619L425.41 194.006M431.394 196.619L390.165 196.619M396.731 199.127L390.165 196.619M390.165 196.619L383.326 194.006M467.494 194.006L464.849 192.659L464.18 192.318L462.148 191.283M467.494 194.006L425.41 194.006M467.494 194.006L509.579 194.006M425.41 194.006L419.173 191.283M425.41 194.006L383.326 194.006M383.326 194.006L376.197 191.283M462.148 191.283L419.173 191.283M462.148 191.283L505.123 191.283M412.666 188.442L419.173 191.283M412.666 188.442L405.871 185.476M412.666 188.442L368.761 188.442M419.173 191.283L376.197 191.283M505.123 191.283L548.099 191.283M505.123 191.283L506.255 191.975L509.579 194.006M376.197 191.283L368.761 188.442M509.579 194.006L551.663 194.006M405.871 185.476L398.769 182.375M405.871 185.476L360.995 185.476M368.761 188.442L360.995 185.476M360.995 185.476L352.879 182.375M444.659 182.375L438.29 179.131M444.659 182.375L398.769 182.375M444.659 182.375L490.55 182.375M398.769 182.375L391.338 179.131M398.769 182.375L352.879 182.375M352.879 182.375L344.387 179.131M438.29 179.131L391.338 179.131M438.29 179.131L485.242 179.131M383.556 175.733L391.338 179.131M383.556 175.733L375.396 172.171M383.556 175.733L335.492 175.733M391.338 179.131L344.387 179.131M485.242 179.131L532.194 179.131M485.242 179.131L490.55 182.375M344.387 179.131L335.492 175.733M490.55 182.375L536.439 182.375M375.396 172.171L366.83 168.431M375.396 172.171L326.166 172.171M335.492 175.733L326.166 172.171M326.166 172.171L316.377 168.431M417.283 168.431L409.566 164.501M417.283 168.431L366.83 168.431M417.283 168.431L467.736 168.431M366.83 168.431L357.828 164.501M366.83 168.431L316.377 168.431M316.377 168.431L306.089 164.501M409.566 164.501L357.828 164.501M409.566 164.501L461.306 164.501M348.354 160.365L357.828 164.501M348.354 160.365L338.372 156.007M348.354 160.365L295.262 160.365M357.828 164.501L306.089 164.501M461.306 164.501L513.044 164.501M461.306 164.501L467.736 168.431M306.089 164.501L295.262 160.365M467.736 168.431L518.189 168.431M338.372 156.007L327.839 151.408M338.372 156.007L283.854 156.007M295.262 160.365L283.854 156.007M283.854 156.007L271.816 151.408M383.862 151.408L374.321 146.548M383.862 151.408L327.839 151.408M383.862 151.408L439.885 151.408M327.839 151.408L316.708 146.548M327.839 151.408L271.816 151.408M271.816 151.408L259.095 146.548M374.321 146.548L316.708 146.548M374.321 146.548L431.934 146.548M304.926 141.404L316.708 146.548M304.926 141.404L292.435 135.951M304.926 141.404L245.63 141.404M316.708 146.548L259.095 146.548M431.934 146.548L489.547 146.548M431.934 146.548L439.885 151.408M259.095 146.548L245.63 141.404M439.885 151.408L495.908 151.408M292.435 135.951L279.17 130.159M292.435 135.951L231.355 135.951M245.63 141.404L231.355 135.951M231.355 135.951L216.194 130.159M342.145 130.159L330.047 123.997M342.145 130.159L279.17 130.159M342.145 130.159L405.121 130.159M279.17 130.159L265.055 123.997M279.17 130.159L216.194 130.159M216.194 130.159L200.062 123.997M330.047 123.997L265.055 123.997M330.047 123.997L395.039 123.997M250.006 117.427L265.055 123.997M250.006 117.427L233.927 110.407M250.006 117.427L182.863 117.427M265.055 123.997L200.062 123.997M395.039 123.997L460.031 123.997M395.039 123.997L405.121 130.159M200.062 123.997L182.863 117.427M405.121 130.159L468.097 130.159M233.927 110.407L216.709 102.89M233.927 110.407L164.487 110.407M182.863 117.427L164.487 110.407M164.487 110.407L144.81 102.89M288.608 102.89L272.766 94.8206M288.608 102.89L216.709 102.89M288.608 102.89L360.506 102.89M216.709 102.89L198.227 94.8205M216.709 102.89L144.81 102.89M144.81 102.89L123.687 94.8205M272.766 94.8206L198.227 94.8205M272.766 94.8206L347.305 94.8206M178.335 86.1362L198.227 94.8205M178.335 86.1362L156.866 76.7631M178.335 86.1362L100.954 86.1362M198.227 94.8205L123.687 94.8205M347.305 94.8206L421.844 94.8206M347.305 94.8206L360.506 102.89M123.687 94.8205L100.954 86.1362M123.687 94.8205L49.1478 94.8205M360.506 102.89L432.405 102.89M156.866 76.7631L133.626 66.6167M156.866 76.7631L76.4188 76.7631M100.954 86.1362L76.4188 76.7631M49.1478 94.8205L0.388062 94.8205M76.4188 76.7631L49.8577 66.6167M76.4188 76.7631L0.388063 76.7631M217.394 66.6167L195.758 55.5966M217.394 66.6167L133.626 66.6167M217.394 66.6167L301.161 66.6167M133.626 66.6167L108.385 55.5966M133.626 66.6167L49.8577 66.6167M49.8577 66.6167L21.0109 55.5966M49.8577 66.6167L0.388064 66.6167M195.758 55.5966L108.385 55.5966M195.758 55.5966L283.132 55.5966M80.8722 43.5852L108.385 55.5966M80.8722 43.5852L50.7684 30.4423M80.8722 43.5852L0.388067 43.5852M108.385 55.5966L21.0109 55.5966M283.132 55.5966L370.506 55.5967M283.132 55.5966L301.161 66.6167M21.0109 55.5966L0.388065 55.5966M21.0109 55.5966L0.388066 47.7183M301.161 66.6167L384.929 66.6167M50.7684 30.4423L17.6887 15.9999M50.7684 30.4423L0.388068 30.4423M118.019 15.9999L86.7161 0.0554455M118.019 15.9999L17.6887 15.9999M118.019 15.9999L218.349 15.9999M17.6887 15.9999L0.38807 8.44643M17.6887 15.9999L0.388069 15.9999M86.7161 0.0554455L192.264 0.0554538M86.7161 0.0554455L0.388071 0.0557318M192.264 0.0554538L297.811 0.055462M192.264 0.0554538L218.349 15.9999M218.349 15.9999L318.679 15.9999M647.807 212.304L647.645 212.059L647.484 211.812L647.322 211.564L647.159 211.315L646.665 210.561L646.499 210.307M647.807 212.304L611.709 212.304M647.807 212.304L683.903 212.304M613.602 214.232L614.978 215.634L615.429 216.094M613.602 214.232L612.426 213.035L611.709 212.304M613.602 214.232L578.135 214.232M615.429 216.094L580.572 216.094M615.429 216.094L616.758 217.448L617.195 217.892M651.463 217.892L651.607 218.113L652.178 218.986L652.601 219.631M651.463 217.892L617.195 217.892M651.463 217.892L685.732 217.892M611.709 212.304L611.469 212.059L611.226 211.812L610.983 211.564L610.738 211.315L609.749 210.307M611.709 212.304L575.612 212.304M578.135 214.232L579.97 215.634L580.572 216.094M578.135 214.232L575.612 212.304M580.572 216.094L581.759 217L582.636 217.671L582.925 217.892M617.195 217.892L617.411 218.113L617.841 218.551L618.268 218.986L618.48 219.202L618.902 219.631M617.195 217.892L582.925 217.892M575.612 212.304L573.66 210.813L572.998 210.307M548.657 217.892L550.799 219.202L551.502 219.631M548.657 217.892L582.925 217.892M582.925 217.892L584.921 219.417L585.202 219.631M646.499 210.307L609.749 210.307M646.499 210.307L683.25 210.307M607.716 208.236L609.749 210.307M607.716 208.236L605.607 206.087M607.716 208.236L570.288 208.236M609.749 210.307L572.998 210.307M683.25 210.307L720 210.307M683.25 210.307L683.903 212.304M572.998 210.307L570.288 208.236M683.903 212.304L720 212.304M605.607 206.087L605.066 205.538L604.247 204.703L603.416 203.856M605.607 206.087L567.475 206.087M570.288 208.236L569.942 207.972L567.475 206.087M567.475 206.087L567.116 205.813L566.755 205.538L566.393 205.26L564.555 203.856M642.278 203.856L640.76 201.538M642.278 203.856L603.416 203.856M642.278 203.856L681.139 203.856M603.416 203.856L601.141 201.538M603.416 203.856L564.555 203.856M564.555 203.856L562.291 202.126L561.906 201.833L561.521 201.538M640.76 201.538L601.141 201.538M640.76 201.538L680.38 201.538M598.774 199.127L598.472 198.819L598.168 198.51L597.863 198.198L596.312 196.619M598.774 199.127L599.969 200.345L600.264 200.645L600.557 200.944L601.141 201.538M598.774 199.127L558.366 199.127M601.141 201.538L561.521 201.538M680.38 201.538L720 201.538M680.38 201.538L681.139 203.856M561.521 201.538L558.366 199.127M681.139 203.856L720 203.856M596.312 196.619L594.073 194.339L593.747 194.006M596.312 196.619L555.082 196.619M558.366 199.127L557.557 198.51L555.082 196.619M555.082 196.619L553.816 195.652L551.663 194.006M635.832 194.006L634.95 192.659L634.727 192.318L634.049 191.283M635.832 194.006L593.747 194.006M635.832 194.006L677.916 194.006M593.747 194.006L591.074 191.283M593.747 194.006L551.663 194.006M551.663 194.006L548.099 191.283M634.049 191.283L591.074 191.283M634.049 191.283L677.025 191.283M588.286 188.442L591.074 191.283M588.286 188.442L585.374 185.476M588.286 188.442L544.38 188.442M591.074 191.283L548.099 191.283M677.025 191.283L720 191.283M677.025 191.283L677.251 191.975L677.697 193.336L677.916 194.006M548.099 191.283L544.38 188.442M677.916 194.006L720 194.006M585.374 185.476L583.104 183.163L582.329 182.375M585.374 185.476L540.498 185.476M544.38 188.442L540.498 185.476M540.498 185.476L538.492 183.943L536.439 182.375M628.22 182.375L626.097 179.131M628.22 182.375L582.329 182.375M628.22 182.375L674.11 182.375M582.329 182.375L579.145 179.131M582.329 182.375L536.439 182.375M536.439 182.375L532.194 179.131M626.097 179.131L579.145 179.131M626.097 179.131L673.049 179.131M575.809 175.733L576.659 176.598L579.145 179.131M575.809 175.733L572.313 172.171M575.809 175.733L527.746 175.733M579.145 179.131L532.194 179.131M673.049 179.131L720 179.131M673.049 179.131L674.11 182.375M532.194 179.131L527.746 175.733M674.11 182.375L720 182.375M572.313 172.171L568.642 168.431M572.313 172.171L523.084 172.171M527.746 175.733L523.084 172.171M523.084 172.171L518.189 168.431M619.094 168.431L616.522 164.501M619.094 168.431L568.642 168.431M619.094 168.431L669.547 168.431M568.642 168.431L564.784 164.501M568.642 168.431L518.189 168.431M518.189 168.431L513.044 164.501M616.522 164.501L564.784 164.501M616.522 164.501L668.262 164.501M560.723 160.365L564.784 164.501M560.723 160.365L556.445 156.007M560.723 160.365L507.631 160.365M564.784 164.501L513.044 164.501M668.262 164.501L720 164.501M668.262 164.501L669.391 167.95L669.547 168.431M513.044 164.501L507.631 160.365M669.547 168.431L720 168.431M556.445 156.007L551.931 151.408M556.445 156.007L501.927 156.007M507.631 160.365L503.382 157.118L501.927 156.007M501.927 156.007L495.908 151.408M607.954 151.408L604.774 146.548M607.954 151.408L551.931 151.408M607.954 151.408L663.977 151.408M551.931 151.408L547.161 146.548M551.931 151.408L495.908 151.408M495.908 151.408L489.547 146.548M604.774 146.548L547.161 146.548M604.774 146.548L662.387 146.548M542.111 141.404L547.161 146.548M542.111 141.404L536.759 135.951M542.111 141.404L482.815 141.404M547.161 146.548L489.547 146.548M662.387 146.548L720 146.548M662.387 146.548L663.977 151.408M489.547 146.548L482.815 141.404M663.977 151.408L720 151.408M536.759 135.951L531.073 130.159M536.759 135.951L475.678 135.951M482.815 141.404L475.678 135.951M475.678 135.951L468.097 130.159M594.049 130.159L590.016 123.997M594.049 130.159L531.073 130.159M594.049 130.159L657.025 130.159M531.073 130.159L525.024 123.997M531.073 130.159L468.097 130.159M468.097 130.159L460.031 123.997M590.016 123.997L525.024 123.997M590.016 123.997L655.008 123.997M518.574 117.427L525.024 123.997M518.574 117.427L511.683 110.407M518.574 117.427L451.432 117.427M525.024 123.997L460.031 123.997M655.008 123.997L720 123.997M655.008 123.997L657.025 130.159M460.031 123.997L451.432 117.427M657.025 130.159L720 130.159M511.683 110.407L504.304 102.89M511.683 110.407L442.244 110.407M451.432 117.427L442.244 110.407M442.244 110.407L432.405 102.89M576.203 102.89L570.922 94.8206M576.203 102.89L504.304 102.89M576.203 102.89L648.101 102.89M504.304 102.89L496.383 94.8206M504.304 102.89L432.405 102.89M432.405 102.89L421.844 94.8206M570.922 94.8206L496.383 94.8206M570.922 94.8206L645.461 94.8206M487.858 86.1362L496.383 94.8206M487.858 86.1362L478.657 76.7632M487.858 86.1362L410.477 86.1362M496.383 94.8206L421.844 94.8206M645.461 94.8206L720 94.8206M645.461 94.8206L648.101 102.89M421.844 94.8206L410.477 86.1362M648.101 102.89L720 102.89M478.657 76.7632L468.697 66.6167M478.657 76.7632L398.209 76.7632M410.477 86.1362L398.209 76.7632M398.209 76.7632L384.929 66.6167M552.465 66.6167L545.253 55.5967M552.465 66.6167L468.697 66.6167M552.465 66.6167L636.232 66.6167M468.697 66.6167L457.879 55.5967M468.697 66.6167L384.929 66.6167M384.929 66.6167L370.506 55.5967M545.253 55.5967L457.879 55.5967M545.253 55.5967L632.627 55.5967M446.088 43.5853L457.879 55.5967M446.088 43.5853L433.187 30.4424M446.088 43.5853L354.784 43.5852M457.879 55.5967L370.506 55.5967M632.627 55.5967L720 55.5967M632.627 55.5967L636.232 66.6167M370.506 55.5967L354.784 43.5852M636.232 66.6167L720 66.6167M433.187 30.4424L419.01 16M433.187 30.4424L337.582 30.4424M354.784 43.5852L337.582 30.4424M337.582 30.4424L318.679 15.9999M519.34 16L508.906 0.0554785M519.34 16L419.01 16M519.34 16L619.67 16M419.01 16L403.358 0.0554703M419.01 16L318.679 15.9999M318.679 15.9999L297.811 0.055462M403.358 0.0554703L508.906 0.0554785M403.358 0.0554703L297.811 0.055462M508.906 0.0554785L614.453 0.0554868M614.453 0.0554868L720 0.055495M614.453 0.0554868L619.67 16M619.67 16L720 16M792.194 212.305L792.355 212.059L792.516 211.812L792.679 211.564L792.841 211.315L793.17 210.813L793.335 210.561L793.501 210.307M792.194 212.305L756.097 212.305M792.194 212.305L828.291 212.305M755.467 214.232L754.857 216.094M755.467 214.232L756.097 212.305M755.467 214.232L720 214.232M754.857 216.094L754.783 216.322L754.708 216.549L754.635 216.775L754.269 217.892M754.857 216.094L720 216.094M788.537 217.892L788.393 218.113L787.822 218.986L787.399 219.631M788.537 217.892L754.269 217.892M788.537 217.892L822.806 217.892M756.097 212.305L756.178 212.059L756.258 211.812L756.34 211.564L756.751 210.307M756.097 212.305L720 212.304M720 214.232L720 216.094M720 214.232L720 212.304M720 216.094L720 217.892M754.269 217.892L720 217.892M754.269 217.892L754.054 218.551L753.982 218.769L753.7 219.631M720 212.304L720 210.307M685.732 217.892L685.947 218.551L686.019 218.769L686.089 218.986L686.16 219.202L686.23 219.417L686.301 219.631M685.732 217.892L720 217.892M720 217.892L720 219.631M793.501 210.307L756.751 210.307M793.501 210.307L830.252 210.307M757.428 208.236L757.515 207.972L757.601 207.706L758.131 206.087M757.428 208.236L756.751 210.307M757.428 208.236L720 208.236M756.751 210.307L720 210.307M830.252 210.307L867.002 210.307M830.252 210.307L829.755 210.813L829.508 211.065L829.263 211.315L829.018 211.564L828.775 211.812L828.532 212.059L828.291 212.305M720 210.307L720 208.236M828.291 212.305L864.388 212.305M758.131 206.087L758.862 203.856M758.131 206.087L720 206.087M720 208.236L720 206.087M720 206.087L720 203.856M797.723 203.856L799.24 201.538M797.723 203.856L758.862 203.856M797.723 203.856L836.584 203.856M758.862 203.856L759.62 201.538M758.862 203.856L720 203.856M720 203.856L720 201.538M799.24 201.538L759.62 201.538M799.24 201.538L838.86 201.538M760.409 199.127L759.62 201.538M760.409 199.127L761.23 196.619M760.409 199.127L720 199.127M759.62 201.538L720 201.538M838.86 201.538L878.48 201.538M838.86 201.538L836.584 203.856M720 201.538L720 199.127M836.584 203.856L875.445 203.856M761.23 196.619L761.546 195.652L761.867 194.67L762.085 194.006M761.23 196.619L720 196.619M720 199.127L720 196.619M720 196.619L720 194.006M804.169 194.006L805.051 192.659L805.274 192.318L805.951 191.283M804.169 194.006L762.085 194.006M804.169 194.006L846.253 194.006M762.085 194.006L762.304 193.336L762.749 191.975L762.975 191.283M762.085 194.006L720 194.006M720 194.006L720 191.283M805.951 191.283L762.975 191.283M805.951 191.283L848.926 191.283M763.905 188.442L763.787 188.804L762.975 191.283M763.905 188.442L764.876 185.476M763.905 188.442L720 188.442M762.975 191.283L720 191.283M848.926 191.283L891.901 191.283M848.926 191.283L846.253 194.006M720 191.283L720 188.442M846.253 194.006L888.338 194.006M764.876 185.476L765.89 182.375M764.876 185.476L720 185.476M720 188.442L720 185.476M720 185.476L720 182.375M811.781 182.375L813.904 179.131M811.781 182.375L765.89 182.375M811.781 182.375L857.671 182.375M765.89 182.375L766.952 179.131M765.89 182.375L720 182.375M720 182.375L720 179.131M813.904 179.131L766.952 179.131M813.904 179.131L860.855 179.131M768.064 175.733L766.952 179.131M768.064 175.733L769.229 172.171M768.064 175.733L720 175.733M766.952 179.131L720 179.131M860.855 179.131L907.807 179.131M860.855 179.131L857.671 182.375M720 179.131L720 175.733M857.671 182.375L903.561 182.375M769.229 172.171L770.453 168.431M769.229 172.171L720 172.171M720 175.733L720 172.171M720 172.171L720 168.431M820.906 168.431L823.478 164.501M820.906 168.431L770.453 168.431M820.906 168.431L871.359 168.431M770.453 168.431L771.739 164.501M770.453 168.431L720 168.431M720 168.431L720 164.501M823.478 164.501L771.739 164.501M823.478 164.501L875.217 164.501M773.093 160.365L771.739 164.501M773.093 160.365L774.518 156.007M773.093 160.365L720 160.365M771.739 164.501L720 164.501M875.217 164.501L926.956 164.501M875.217 164.501L871.359 168.431M720 164.501L720 160.365M871.359 168.431L921.812 168.431M774.518 156.007L776.024 151.408M774.518 156.007L720 156.007M720 160.365L720 156.007M720 156.007L720 151.408M832.046 151.408L835.227 146.548M832.046 151.408L776.024 151.408M832.046 151.408L888.069 151.408M776.024 151.408L777.613 146.548M776.024 151.408L720 151.408M720 151.408L720 146.548M835.227 146.548L777.613 146.548M835.227 146.548L892.84 146.548M779.296 141.404L777.613 146.548M779.296 141.404L781.081 135.951M779.296 141.404L720 141.404M777.613 146.548L720 146.548M892.84 146.548L950.453 146.548M892.84 146.548L888.069 151.408M720 146.548L720 141.404M888.069 151.408L944.093 151.408M781.081 135.951L782.976 130.159M781.081 135.951L720 135.951M720 141.404L720 135.951M720 135.951L720 130.159M845.952 130.159L849.985 123.997M845.952 130.159L782.976 130.159M845.952 130.159L908.928 130.159M782.976 130.159L784.992 123.997M782.976 130.159L720 130.159M720 130.159L720 123.997M849.985 123.997L784.992 123.997M849.985 123.997L914.977 123.997M787.142 117.427L784.992 123.997M787.142 117.427L789.439 110.407M787.142 117.427L720 117.427M784.992 123.997L720 123.997M914.977 123.997L979.969 123.997M914.977 123.997L908.928 130.159M720 123.997L720 117.427M908.928 130.159L971.903 130.159M789.439 110.407L791.899 102.89M789.439 110.407L720 110.407M720 117.427L720 110.407M720 110.407L720 102.89M863.797 102.89L869.078 94.8206M863.797 102.89L791.899 102.89M863.797 102.89L935.696 102.89M791.899 102.89L794.539 94.8206M791.899 102.89L720 102.89M720 102.89L720 94.8206M869.078 94.8206L794.539 94.8206M869.078 94.8206L943.617 94.8206M797.381 86.1362L794.539 94.8206M797.381 86.1362L800.448 76.7632M797.381 86.1362L720 86.1362M794.539 94.8206L720 94.8206M943.617 94.8206L1018.16 94.8206M943.617 94.8206L935.696 102.89M720 94.8206L720 86.1362M935.696 102.89L1007.6 102.89M800.448 76.7632L803.768 66.6167M800.448 76.7632L720 76.7632M720 86.1362L720 76.7632M720 76.7632L720 66.6167M887.536 66.6167L894.748 55.5967M887.536 66.6167L803.768 66.6167M887.536 66.6167L971.304 66.6167M803.768 66.6167L807.374 55.5967M803.768 66.6167L720 66.6167M720 66.6167L720 55.5967M894.748 55.5967L807.374 55.5967M894.748 55.5967L982.121 55.5967M811.304 43.5853L807.374 55.5967M811.304 43.5853L815.604 30.4424M811.304 43.5853L720 43.5853M807.374 55.5967L720 55.5967M982.121 55.5967L1069.49 55.5967M982.121 55.5967L971.304 66.6167M720 55.5967L720 43.5853M971.304 66.6167L1055.07 66.6167M815.604 30.4424L820.331 16M815.604 30.4424L720 30.4424M720 43.5853L720 30.4424M720 30.4424L720 16M920.66 16L931.095 0.0555115M920.66 16L820.331 16M920.66 16L1020.99 16M820.331 16L825.548 0.0555033M820.331 16L720 16M720 16L720 0.055495M825.548 0.0555033L931.095 0.0555115M825.548 0.0555033L720 0.055495M931.095 0.0555115L1036.64 0.0555198M1036.64 0.0555198L1142.19 0.055528M1036.64 0.0555198L1020.99 16M1020.99 16L1121.32 16M936.582 212.305L938.525 211.315L940.503 210.307M936.582 212.305L900.485 212.305M936.582 212.305L972.679 212.305M897.331 214.232L894.286 216.094M897.331 214.232L900.485 212.305M897.331 214.232L861.865 214.232M894.286 216.094L859.429 216.094M894.286 216.094L892.07 217.448L891.344 217.892M925.612 217.892L891.344 217.892M925.612 217.892L924.318 218.551L922.198 219.631M925.612 217.892L959.881 217.892M900.485 212.305L903.752 210.307M900.485 212.305L864.388 212.305M861.865 214.232L859.429 216.094M861.865 214.232L864.388 212.305M859.429 216.094L858.241 217L857.364 217.671L857.075 217.892M891.344 217.892L857.075 217.892M891.344 217.892L889.201 219.202L888.499 219.631M864.388 212.305L866.34 210.813L867.002 210.307M822.806 217.892L822.59 218.113L822.16 218.551L821.521 219.202L821.099 219.631M822.806 217.892L857.075 217.892M857.075 217.892L856.786 218.113L856.212 218.551L854.799 219.631M940.503 210.307L903.752 210.307M940.503 210.307L977.254 210.307M907.141 208.236L906.71 208.499L906.282 208.761L904.588 209.797L903.752 210.307M907.141 208.236L909.766 206.632L910.657 206.087M907.141 208.236L869.713 208.236M903.752 210.307L867.002 210.307M977.254 210.307L1014 210.307M977.254 210.307L973.807 211.812L972.679 212.305M867.002 210.307L869.713 208.236M972.679 212.305L1008.78 212.305M910.657 206.087L911.105 205.813L911.557 205.538L912.922 204.703L913.382 204.422L914.307 203.856M910.657 206.087L872.526 206.087M869.713 208.236L870.059 207.972L872.526 206.087M872.526 206.087L872.884 205.813L873.245 205.538L873.607 205.26L875.445 203.856M953.168 203.856L957.72 201.538M953.168 203.856L914.307 203.856M953.168 203.856L992.029 203.856M914.307 203.856L918.1 201.538M914.307 203.856L875.445 203.856M875.445 203.856L878.48 201.538M957.72 201.538L918.1 201.538M957.72 201.538L997.34 201.538M922.043 199.127L918.1 201.538M922.043 199.127L926.147 196.619M922.043 199.127L881.635 199.127M918.1 201.538L878.48 201.538M997.34 201.538L1036.96 201.538M997.34 201.538L992.029 203.856M878.48 201.538L881.635 199.127M992.029 203.856L1030.89 203.856M926.147 196.619L930.422 194.006M926.147 196.619L884.918 196.619M881.635 199.127L882.444 198.51L884.918 196.619M884.918 196.619L886.184 195.652L887.47 194.67L888.338 194.006M972.506 194.006L975.151 192.659L977.852 191.283M972.506 194.006L930.422 194.006M972.506 194.006L1014.59 194.006M930.422 194.006L934.877 191.283M930.422 194.006L888.338 194.006M888.338 194.006L891.901 191.283M977.852 191.283L934.877 191.283M977.852 191.283L1020.83 191.283M939.525 188.442L934.877 191.283M939.525 188.442L944.378 185.476M939.525 188.442L895.62 188.442M934.877 191.283L891.901 191.283M1020.83 191.283L1063.8 191.283M1020.83 191.283L1014.59 194.006M891.901 191.283L895.62 188.442M1014.59 194.006L1056.67 194.006M944.378 185.476L945.626 184.714L949.451 182.375M944.378 185.476L899.503 185.476M895.62 188.442L899.503 185.476M899.503 185.476L900 185.096L901.509 183.943L903.561 182.375M995.341 182.375L1001.71 179.131M995.341 182.375L949.451 182.375M995.341 182.375L1041.23 182.375M949.451 182.375L954.759 179.131M949.451 182.375L903.561 182.375M903.561 182.375L907.807 179.131M1001.71 179.131L954.759 179.131M1001.71 179.131L1048.66 179.131M960.318 175.733L956.813 177.875L954.759 179.131M960.318 175.733L966.147 172.171M960.318 175.733L912.254 175.733M954.759 179.131L907.807 179.131M1048.66 179.131L1095.61 179.131M1048.66 179.131L1041.23 182.375M907.807 179.131L912.254 175.733M1041.23 182.375L1087.12 182.375M966.147 172.171L972.265 168.431M966.147 172.171L916.917 172.171M912.254 175.733L916.917 172.171M916.917 172.171L921.812 168.431M1022.72 168.431L1030.43 164.501M1022.72 168.431L972.265 168.431M1022.72 168.431L1073.17 168.431M972.265 168.431L978.695 164.501M972.265 168.431L921.812 168.431M921.812 168.431L926.956 164.501M1030.43 164.501L978.695 164.501M1030.43 164.501L1082.17 164.501M985.461 160.365L978.695 164.501M985.461 160.365L992.592 156.007M985.461 160.365L932.369 160.365M978.695 164.501L926.956 164.501M1082.17 164.501L1133.91 164.501M1082.17 164.501L1073.17 168.431M926.956 164.501L932.369 160.365M1073.17 168.431L1123.62 168.431M992.592 156.007L1000.12 151.408M992.592 156.007L938.073 156.007M932.369 160.365L938.073 156.007M938.073 156.007L944.093 151.408M1056.14 151.408L1065.68 146.548M1056.14 151.408L1000.12 151.408M1056.14 151.408L1112.16 151.408M1000.12 151.408L1008.07 146.548M1000.12 151.408L944.093 151.408M944.093 151.408L950.453 146.548M1065.68 146.548L1008.07 146.548M1065.68 146.548L1123.29 146.548M1016.48 141.404L1008.07 146.548M1016.48 141.404L1025.4 135.951M1016.48 141.404L957.185 141.404M1008.07 146.548L950.453 146.548M1123.29 146.548L1180.91 146.548M1123.29 146.548L1112.16 151.408M950.453 146.548L957.185 141.404M1112.16 151.408L1168.18 151.408M1025.4 135.951L1034.88 130.159M1025.4 135.951L964.323 135.951M957.185 141.404L964.323 135.951M964.323 135.951L971.903 130.159M1097.86 130.159L1109.95 123.997M1097.86 130.159L1034.88 130.159M1097.86 130.159L1160.83 130.159M1034.88 130.159L1044.96 123.997M1034.88 130.159L971.903 130.159M971.903 130.159L979.969 123.997M1109.95 123.997L1044.96 123.997M1109.95 123.997L1174.95 123.997M1055.71 117.427L1044.96 123.997M1055.71 117.427L1067.2 110.407M1055.71 117.427L988.569 117.427M1044.96 123.997L979.969 123.997M1174.95 123.997L1239.94 123.997M1174.95 123.997L1160.83 130.159M979.969 123.997L988.569 117.427M1160.83 130.159L1223.81 130.159M1067.2 110.407L1079.49 102.89M1067.2 110.407L997.756 110.407M988.569 117.427L997.756 110.407M997.756 110.407L1007.6 102.89M1151.39 102.89L1167.23 94.8206M1151.39 102.89L1079.49 102.89M1151.39 102.89L1223.29 102.89M1079.49 102.89L1092.7 94.8206M1079.49 102.89L1007.6 102.89M1007.6 102.89L1018.16 94.8206M1167.23 94.8206L1092.7 94.8206M1167.23 94.8206L1241.77 94.8206M1106.9 86.1362L1092.7 94.8206M1106.9 86.1362L1122.24 76.7632M1106.9 86.1362L1029.52 86.1362M1092.7 94.8206L1018.16 94.8206M1241.77 94.8206L1316.31 94.8206M1241.77 94.8206L1223.29 102.89M1018.16 94.8206L1029.52 86.1362M1223.29 102.89L1295.19 102.89M1122.24 76.7632L1138.84 66.6168M1122.24 76.7632L1041.79 76.7632M1029.52 86.1362L1041.79 76.7632M1041.79 76.7632L1055.07 66.6167M1222.61 66.6168L1244.24 55.5967M1222.61 66.6168L1138.84 66.6168M1222.61 66.6168L1306.37 66.6168M1138.84 66.6168L1156.87 55.5967M1138.84 66.6168L1055.07 66.6167M1055.07 66.6167L1069.49 55.5967M1244.24 55.5967L1156.87 55.5967M1244.24 55.5967L1331.62 55.5967M1176.52 43.5853L1156.87 55.5967M1176.52 43.5853L1198.02 30.4424M1176.52 43.5853L1085.22 43.5853M1156.87 55.5967L1069.49 55.5967M1331.62 55.5967L1418.99 55.5967M1331.62 55.5967L1306.37 66.6168M1069.49 55.5967L1085.22 43.5853M1306.37 66.6168L1390.14 66.6168M1198.02 30.4424L1221.65 16M1198.02 30.4424L1102.42 30.4424M1085.22 43.5853L1102.42 30.4424M1102.42 30.4424L1121.32 16M1321.98 16L1353.28 0.0555445M1321.98 16L1221.65 16M1321.98 16L1422.31 16M1221.65 16L1247.74 0.0555363M1221.65 16L1121.32 16M1121.32 16L1142.19 0.055528M1247.74 0.0555363L1353.28 0.0555445M1247.74 0.0555363L1142.19 0.055528M1353.28 0.0555445L1439.61 0.0558442M1422.31 16L1439.61 8.44654M1422.31 16L1439.61 16M1080.97 212.305L1087.51 210.307M1080.97 212.305L1044.87 212.305M1080.97 212.305L1117.07 212.305M1039.2 214.232L1033.71 216.094M1039.2 214.232L1044.87 212.305M1039.2 214.232L1003.73 214.232M1033.71 216.094L998.857 216.094M1033.71 216.094L1028.42 217.892M1062.69 217.892L1028.42 217.892M1062.69 217.892L1060.53 218.551L1057 219.631M1062.69 217.892L1096.96 217.892M1044.87 212.305L1050.75 210.307M1044.87 212.305L1008.78 212.305M1003.73 214.232L998.857 216.094M1003.73 214.232L1008.78 212.305M998.857 216.094L995.311 217.448L994.149 217.892M1028.42 217.892L1027.77 218.113L1023.3 219.631M1028.42 217.892L994.149 217.892M1008.78 212.305L1014 210.307M959.881 217.892L955.898 219.631M959.881 217.892L994.149 217.892M994.149 217.892L992.424 218.551L989.598 219.631M1087.51 210.307L1050.75 210.307M1087.51 210.307L1124.26 210.307M1056.85 208.236L1050.75 210.307M1056.85 208.236L1063.18 206.087M1056.85 208.236L1019.43 208.236M1050.75 210.307L1014 210.307M1124.26 210.307L1161.01 210.307M1124.26 210.307L1117.07 212.305M1014 210.307L1019.43 208.236M1117.07 212.305L1153.16 212.305M1063.18 206.087L1064.8 205.538L1069.75 203.856M1063.18 206.087L1025.05 206.087M1019.43 208.236L1025.05 206.087M1025.05 206.087L1030.89 203.856M1108.61 203.856L1109.55 203.571L1116.2 201.538M1108.61 203.856L1069.75 203.856M1108.61 203.856L1147.48 203.856M1069.75 203.856L1076.58 201.538M1069.75 203.856L1030.89 203.856M1030.89 203.856L1031.64 203.571L1036.96 201.538M1116.2 201.538L1076.58 201.538M1116.2 201.538L1155.82 201.538M1083.68 199.127L1076.58 201.538M1083.68 199.127L1091.07 196.619M1083.68 199.127L1043.27 199.127M1076.58 201.538L1036.96 201.538M1155.82 201.538L1195.44 201.538M1155.82 201.538L1147.48 203.856M1036.96 201.538L1043.27 199.127M1147.48 203.856L1186.34 203.856M1091.07 196.619L1098.76 194.006M1091.07 196.619L1049.84 196.619M1043.27 199.127L1049.84 196.619M1049.84 196.619L1056.67 194.006M1140.84 194.006L1149.75 191.283M1140.84 194.006L1098.76 194.006M1140.84 194.006L1182.93 194.006M1098.76 194.006L1106.78 191.283M1098.76 194.006L1056.67 194.006M1056.67 194.006L1063.8 191.283M1149.75 191.283L1106.78 191.283M1149.75 191.283L1192.73 191.283M1115.14 188.442L1106.78 191.283M1115.14 188.442L1123.88 185.476M1115.14 188.442L1071.24 188.442M1106.78 191.283L1063.8 191.283M1192.73 191.283L1235.7 191.283M1192.73 191.283L1182.93 194.006M1063.8 191.283L1071.24 188.442M1182.93 194.006L1225.01 194.006M1123.88 185.476L1133.01 182.375M1123.88 185.476L1079.01 185.476M1071.24 188.442L1079.01 185.476M1079.01 185.476L1087.12 182.375M1178.9 182.375L1189.52 179.131M1178.9 182.375L1133.01 182.375M1178.9 182.375L1224.79 182.375M1133.01 182.375L1142.57 179.131M1133.01 182.375L1087.12 182.375M1087.12 182.375L1095.61 179.131M1189.52 179.131L1142.57 179.131M1189.52 179.131L1236.47 179.131M1152.57 175.733L1142.57 179.131M1152.57 175.733L1163.06 172.171M1152.57 175.733L1104.51 175.733M1142.57 179.131L1095.61 179.131M1236.47 179.131L1283.42 179.131M1236.47 179.131L1224.79 182.375M1095.61 179.131L1104.51 175.733M1224.79 182.375L1270.68 182.375M1163.06 172.171L1174.08 168.431M1163.06 172.171L1113.83 172.171M1104.51 175.733L1113.83 172.171M1113.83 172.171L1123.62 168.431M1224.53 168.431L1237.39 164.501M1224.53 168.431L1174.08 168.431M1224.53 168.431L1274.98 168.431M1174.08 168.431L1185.65 164.501M1174.08 168.431L1123.62 168.431M1123.62 168.431L1133.91 164.501M1237.39 164.501L1185.65 164.501M1237.39 164.501L1289.13 164.501M1197.83 160.365L1185.65 164.501M1197.83 160.365L1210.66 156.007M1197.83 160.365L1144.74 160.365M1185.65 164.501L1133.91 164.501M1289.13 164.501L1340.87 164.501M1289.13 164.501L1274.98 168.431M1133.91 164.501L1144.74 160.365M1274.98 168.431L1325.43 168.431M1210.66 156.007L1224.21 151.408M1210.66 156.007L1156.15 156.007M1144.74 160.365L1156.15 156.007M1156.15 156.007L1168.18 151.408M1280.23 151.408L1296.13 146.548M1280.23 151.408L1224.21 151.408M1280.23 151.408L1336.25 151.408M1224.21 151.408L1238.52 146.548M1224.21 151.408L1168.18 151.408M1168.18 151.408L1180.91 146.548M1296.13 146.548L1238.52 146.548M1296.13 146.548L1353.75 146.548M1253.67 141.404L1238.52 146.548M1253.67 141.404L1269.73 135.951M1253.67 141.404L1194.37 141.404M1238.52 146.548L1180.91 146.548M1353.75 146.548L1411.36 146.548M1353.75 146.548L1336.25 151.408M1180.91 146.548L1194.37 141.404M1336.25 151.408L1392.28 151.408M1269.73 135.951L1286.78 130.159M1269.73 135.951L1208.65 135.951M1194.37 141.404L1208.65 135.951M1208.65 135.951L1223.81 130.159M1349.76 130.159L1369.92 123.997M1349.76 130.159L1286.78 130.159M1349.76 130.159L1412.73 130.159M1286.78 130.159L1304.93 123.997M1286.78 130.159L1223.81 130.159M1223.81 130.159L1239.94 123.997M1369.92 123.997L1304.93 123.997M1369.92 123.997L1434.91 123.997M1324.28 117.427L1304.93 123.997M1324.28 117.427L1344.95 110.407M1324.28 117.427L1257.14 117.427M1304.93 123.997L1239.94 123.997M1434.91 123.997L1412.73 130.159M1434.91 123.997L1439.61 123.997M1434.91 123.997L1439.61 122.692M1239.94 123.997L1257.14 117.427M1412.73 130.159L1439.61 130.159M1344.95 110.407L1367.09 102.89M1344.95 110.407L1275.51 110.407M1257.14 117.427L1275.51 110.407M1275.51 110.407L1295.19 102.89M1438.99 102.89L1367.09 102.89M1438.99 102.89L1439.61 102.89M1438.99 102.89L1439.61 102.699M1367.09 102.89L1390.85 94.8206M1367.09 102.89L1295.19 102.89M1295.19 102.89L1316.31 94.8206M1416.43 86.1363L1390.85 94.8206M1416.43 86.1363L1339.05 86.1363M1416.43 86.1363L1439.61 86.1363M1416.43 86.1363L1439.61 78.2633M1390.85 94.8206L1316.31 94.8206M1390.85 94.8206L1439.61 94.8206M1316.31 94.8206L1339.05 86.1363M1339.05 86.1363L1363.58 76.7632M1363.58 76.7632L1390.14 66.6168M1363.58 76.7632L1439.61 76.7632M1390.14 66.6168L1418.99 55.5967M1390.14 66.6168L1439.61 66.6168M1418.99 55.5967L1439.61 55.5967M1418.99 55.5967L1439.61 47.7184M1225.36 212.305L1234.51 210.307M1225.36 212.305L1189.26 212.305M1225.36 212.305L1261.45 212.305M1181.06 214.232L1173.14 216.094M1181.06 214.232L1189.26 212.305M1181.06 214.232L1145.59 214.232M1173.14 216.094L1138.29 216.094M1173.14 216.094L1165.49 217.892M1199.76 217.892L1165.49 217.892M1199.76 217.892L1191.8 219.631M1199.76 217.892L1234.03 217.892M1189.26 212.305L1197.76 210.307M1189.26 212.305L1153.16 212.305M1145.59 214.232L1138.29 216.094M1145.59 214.232L1153.16 212.305M1138.29 216.094L1131.22 217.892M1165.49 217.892L1164.55 218.113L1158.1 219.631M1165.49 217.892L1131.22 217.892M1153.16 212.305L1161.01 210.307M1096.96 217.892L1090.7 219.631M1096.96 217.892L1131.22 217.892M1131.22 217.892L1130.36 218.113L1124.4 219.631M1234.51 210.307L1197.76 210.307M1234.51 210.307L1271.26 210.307M1206.57 208.236L1197.76 210.307M1206.57 208.236L1215.71 206.087M1206.57 208.236L1169.14 208.236M1197.76 210.307L1161.01 210.307M1271.26 210.307L1308.01 210.307M1271.26 210.307L1261.45 212.305M1161.01 210.307L1169.14 208.236M1261.45 212.305L1297.55 212.305M1215.71 206.087L1225.2 203.856M1215.71 206.087L1177.58 206.087M1169.14 208.236L1170.18 207.972L1177.58 206.087M1177.58 206.087L1186.34 203.856M1264.06 203.856L1274.68 201.538M1264.06 203.856L1225.2 203.856M1264.06 203.856L1302.92 203.856M1225.2 203.856L1235.06 201.538M1225.2 203.856L1186.34 203.856M1186.34 203.856L1195.44 201.538M1274.68 201.538L1235.06 201.538M1274.68 201.538L1314.3 201.538M1245.31 199.127L1235.06 201.538M1245.31 199.127L1255.98 196.619M1245.31 199.127L1204.9 199.127M1235.06 201.538L1195.44 201.538M1314.3 201.538L1353.92 201.538M1314.3 201.538L1302.92 203.856M1195.44 201.538L1204.9 199.127M1302.92 203.856L1341.78 203.856M1255.98 196.619L1267.1 194.006M1255.98 196.619L1214.75 196.619M1204.9 199.127L1214.75 196.619M1214.75 196.619L1225.01 194.006M1309.18 194.006L1321.66 191.283M1309.18 194.006L1267.1 194.006M1309.18 194.006L1351.27 194.006M1267.1 194.006L1278.68 191.283M1267.1 194.006L1225.01 194.006M1225.01 194.006L1235.7 191.283M1321.66 191.283L1278.68 191.283M1321.66 191.283L1364.63 191.283M1290.76 188.442L1278.68 191.283M1290.76 188.442L1303.38 185.476M1290.76 188.442L1246.86 188.442M1278.68 191.283L1235.7 191.283M1364.63 191.283L1407.61 191.283M1364.63 191.283L1351.27 194.006M1235.7 191.283L1246.86 188.442M1351.27 194.006L1393.35 194.006M1303.38 185.476L1316.57 182.375M1303.38 185.476L1258.51 185.476M1246.86 188.442L1258.51 185.476M1258.51 185.476L1270.68 182.375M1362.46 182.375L1377.32 179.131M1362.46 182.375L1316.57 182.375M1362.46 182.375L1408.35 182.375M1316.57 182.375L1330.37 179.131M1316.57 182.375L1270.68 182.375M1270.68 182.375L1283.42 179.131M1377.32 179.131L1330.37 179.131M1344.83 175.733L1330.37 179.131M1344.83 175.733L1359.98 172.171M1344.83 175.733L1296.76 175.733M1330.37 179.131L1283.42 179.131M1283.42 179.131L1296.76 175.733M1408.35 182.375L1439.61 182.375M1359.98 172.171L1375.89 168.431M1359.98 172.171L1310.75 172.171M1296.76 175.733L1310.75 172.171M1310.75 172.171L1325.43 168.431M1426.34 168.431L1375.89 168.431M1426.34 168.431L1439.61 168.431M1426.34 168.431L1439.61 165.534M1375.89 168.431L1392.61 164.501M1375.89 168.431L1325.43 168.431M1325.43 168.431L1340.87 164.501M1410.2 160.365L1392.61 164.501M1410.2 160.365L1428.74 156.007M1410.2 160.365L1357.11 160.365M1410.2 160.365L1439.61 160.365M1392.61 164.501L1340.87 164.501M1392.61 164.501L1439.61 164.501M1340.87 164.501L1357.11 160.365M1439.76 165.502L1439.61 165.534M1428.74 156.007L1374.22 156.007M1428.74 156.007L1439.61 156.007M1428.74 156.007L1439.61 153.45M1357.11 160.365L1374.22 156.007M1374.22 156.007L1392.28 151.408M1392.28 151.408L1411.36 146.548M1392.28 151.408L1439.61 151.408M1431.56 141.404L1411.36 146.548M1431.56 141.404L1439.61 141.404M1431.56 141.404L1439.61 139.353M1411.36 146.548L1439.61 146.548M1369.74 212.305L1381.51 210.307M1369.74 212.305L1333.65 212.305M1369.74 212.305L1405.84 212.305M1322.93 214.232L1312.57 216.094M1322.93 214.232L1333.65 212.305M1322.93 214.232L1287.46 214.232M1312.57 216.094L1277.71 216.094M1312.57 216.094L1302.57 217.892M1336.84 217.892L1302.57 217.892M1336.84 217.892L1326.6 219.631M1336.84 217.892L1371.1 217.892M1333.65 212.305L1344.76 210.307M1333.65 212.305L1297.55 212.305M1287.46 214.232L1277.71 216.094M1287.46 214.232L1297.55 212.305M1277.71 216.094L1268.3 217.892M1302.57 217.892L1268.3 217.892M1302.57 217.892L1292.89 219.631M1297.55 212.305L1308.01 210.307M1234.03 217.892L1225.5 219.631M1234.03 217.892L1268.3 217.892M1268.3 217.892L1259.2 219.631M1381.51 210.307L1344.76 210.307M1381.51 210.307L1418.26 210.307M1356.28 208.236L1344.76 210.307M1356.28 208.236L1368.23 206.087M1356.28 208.236L1318.85 208.236M1344.76 210.307L1308.01 210.307M1418.26 210.307L1405.84 212.305M1418.26 210.307L1439.61 210.307M1308.01 210.307L1318.85 208.236M1405.84 212.305L1439.61 212.305M1368.23 206.087L1380.64 203.856M1368.23 206.087L1330.1 206.087M1318.85 208.236L1330.1 206.087M1330.1 206.087L1341.78 203.856M1419.5 203.856L1433.16 201.538M1419.5 203.856L1380.64 203.856M1419.5 203.856L1439.61 203.856M1380.64 203.856L1393.54 201.538M1380.64 203.856L1341.78 203.856M1341.78 203.856L1353.92 201.538M1406.95 199.127L1393.54 201.538M1406.95 199.127L1420.9 196.619M1406.95 199.127L1366.54 199.127M1406.95 199.127L1439.61 199.127M1393.54 201.538L1433.16 201.538M1393.54 201.538L1353.92 201.538M1433.16 201.538L1439.61 200.442M1433.16 201.538L1439.61 201.538M1353.92 201.538L1366.54 199.127M1420.9 196.619L1435.43 194.007M1420.9 196.619L1379.67 196.619M1420.9 196.619L1439.61 196.619M1366.54 199.127L1379.67 196.619M1379.67 196.619L1393.35 194.006M1435.43 194.007L1393.35 194.006M1435.43 194.007L1439.61 193.255M1435.43 194.007L1439.61 194.007M1393.35 194.006L1407.61 191.283M1422.48 188.442L1407.61 191.283M1422.48 188.442L1438.01 185.476M1422.48 188.442L1439.61 188.442M1407.61 191.283L1439.61 191.283M1439.84 191.283L1439.61 191.283M1438.01 185.476L1439.61 185.476M1438.01 185.476L1439.61 185.17M1440 185.096L1439.61 185.17M1429.32 214.232L1417.14 216.094M1429.32 214.232L1439.61 214.232M1429.32 214.232L1439.61 212.66M1417.14 216.094L1405.37 217.892M1417.14 216.094L1439.61 216.094M1371.1 217.892L1360.29 219.631M1371.1 217.892L1405.37 217.892M1405.37 217.892L1393.99 219.631M1405.37 217.892L1439.61 217.892M248.204 219.631L214.505 219.631M248.204 219.631L281.904 219.631M222.76 221.313L220.722 220.897L214.505 219.631M222.76 221.313L189.611 221.313M214.505 219.631L180.805 219.631M189.611 221.313L187.437 220.897L186.343 220.689L180.805 219.631M180.805 219.631L147.106 219.631M147.106 219.631L113.405 219.631M281.904 219.631L315.604 219.631M113.405 219.631L79.7058 219.631M79.7058 219.631L90.1634 221.313M79.7058 219.631L46.0063 219.631M90.1634 221.313L57.014 221.313M383.004 219.631L349.303 219.631M383.004 219.631L416.703 219.631M355.358 221.313L353.863 220.897L353.111 220.689L349.303 219.631M355.358 221.313L322.208 221.313M349.303 219.631L315.604 219.631M322.208 221.313L315.604 219.631M416.703 219.631L450.403 219.631M517.802 219.631L484.102 219.631M517.802 219.631L551.502 219.631M487.955 221.313L487.48 221.106L487.004 220.897L486.525 220.689L484.102 219.631M487.955 221.313L454.806 221.313M484.102 219.631L450.403 219.631M454.806 221.313L450.403 219.631M551.502 219.631L585.202 219.631M652.601 219.631L618.902 219.631M652.601 219.631L686.301 219.631M620.552 221.313L618.902 219.631M620.552 221.313L587.403 221.313M618.902 219.631L585.202 219.631M587.403 221.313L587.131 221.106L586.859 220.897L586.586 220.689L585.202 219.631M686.301 219.631L720 219.631M787.399 219.631L753.7 219.631M787.399 219.631L821.099 219.631M753.15 221.313L753.7 219.631M753.15 221.313L720 221.313M753.7 219.631L720 219.631M720 221.313L720 219.631M821.099 219.631L854.799 219.631M922.198 219.631L888.499 219.631M922.198 219.631L955.898 219.631M885.747 221.313L886.426 220.897L887.803 220.057L888.499 219.631M885.747 221.313L852.598 221.313M888.499 219.631L854.799 219.631M852.598 221.313L852.869 221.106L853.141 220.897L853.415 220.689L854.799 219.631M955.898 219.631L989.598 219.631M1057 219.631L1023.3 219.631M1057 219.631L1090.7 219.631M1018.34 221.313L1019.57 220.897L1020.18 220.689L1023.3 219.631M1018.34 221.313L985.195 221.313M1023.3 219.631L989.598 219.631M985.195 221.313L985.737 221.106L989.598 219.631M1090.7 219.631L1124.4 219.631M1191.8 219.631L1158.1 219.631M1191.8 219.631L1225.5 219.631M1150.94 221.313L1152.71 220.897L1153.6 220.689L1158.1 219.631M1150.94 221.313L1117.79 221.313M1158.1 219.631L1124.4 219.631M1117.79 221.313L1118.61 221.106L1124.4 219.631M1225.5 219.631L1259.2 219.631M1326.6 219.631L1292.89 219.631M1326.6 219.631L1360.29 219.631M1283.54 221.313L1292.89 219.631M1283.54 221.313L1250.39 221.313M1292.89 219.631L1259.2 219.631M1250.39 221.313L1252.56 220.897L1253.66 220.689L1259.2 219.631M1360.29 219.631L1393.99 219.631M1416.14 221.313L1427.69 219.631M1416.14 221.313L1382.99 221.313M1416.14 221.313L1439.61 221.313M1427.69 219.631L1393.99 219.631M1427.69 219.631L1439.61 217.896M1427.69 219.631L1439.61 219.631M1382.99 221.313L1385.7 220.897L1393.99 219.631M57.014 221.313L54.296 220.897L46.0063 219.631M46.0063 219.631L12.3066 219.631M12.3066 219.631L0.38805 217.896M12.3066 219.631L0.388049 219.631M0.388057 139.353L0.388057 141.404M0.388057 139.353L0.388058 135.951M0.388057 141.404L0.388057 146.548M0.388058 135.951L0.388058 134.935L0.388058 130.159M0.388058 130.159L0.388059 123.997M0.388053 179.131L0.388053 182.375M0.388053 179.131L0.388054 176.006M0.388049 221.313L0.388049 219.631M0.388049 219.631L0.38805 217.896M0.38805 217.896L0.35886 217.892L0.38805 217.892M0.38805 217.896L0.38805 217.892M0.38805 217.892L0.38805 216.094M0.38805 216.094L0.38805 214.232M0.38805 214.232L0.38805 212.66M0.38805 212.66L0.38805 212.304M0.38805 212.304L0.38805 210.307M0.38805 210.307L0.388051 208.236M0.388051 208.236L0.388051 206.873M0.388051 206.873L0.388051 206.087M0.388051 206.087L0.388051 203.856M0.388051 203.856L0.388051 201.538M0.388051 201.538L0.388051 200.442M0.388051 200.442L0.388051 199.127M0.388051 199.127L0.388052 196.619M0.388052 196.619L0.388052 194.006M0.388052 194.006L0.388052 193.255M0.388052 193.255L0.388052 191.283M0.388052 191.283L0.388052 188.442M0.388052 188.442L0.388053 185.476M0.388053 185.476L0.388053 185.17M0.388053 185.17L0.388053 182.375M0.388054 175.733L0.388054 172.171M0.388054 175.733L0.388054 176.006M0.388054 172.171L0.388054 168.431M0.388054 168.431L0.388055 165.534M0.388055 165.534L0.388055 164.501M0.388055 164.501L0.388055 160.365M0.388055 160.365L0.388056 156.007M0.388056 156.007L0.388056 153.45M0.388056 153.45L0.388056 151.408M0.388056 151.408L0.388057 146.548M0.388059 123.997L0.388059 122.692M0.388059 122.692L0.388059 117.427M0.388059 117.427L0.38806 110.407M0.38806 110.407L0.388061 102.89M0.388061 102.89L0.388061 102.699M0.388061 102.699L0.388062 94.8205M0.388062 94.8205L0.388062 86.1361M0.388062 86.1361L0.388063 78.2632M0.388063 78.2632L0.388063 76.7631M0.388063 76.7631L0.388064 66.6167M0.388064 66.6167L0.388065 55.5966M0.388065 55.5966L0.388066 47.7183M0.388066 47.7183L0.388067 43.5852M0.388067 43.5852L0.388068 30.4423M0.388068 30.4423L0.388069 15.9999M0.388069 15.9999L0.38807 8.44643M0.38807 8.44643L0.388071 0.0557318M0.388071 0.0557318L0.388071 -0.00120125L1439.61 -0.00108876L1439.61 0.0558442M1439.61 175.733L1439.61 172.171M1439.61 175.733L1439.61 176.006M1439.61 176.006L1439.61 179.131M1439.61 179.131L1439.61 182.375M1439.61 182.375L1439.61 185.17M1439.61 185.17L1439.61 185.476M1439.61 185.476L1439.61 188.442M1439.61 188.442L1439.61 191.283M1439.61 191.283L1439.61 193.255M1439.61 193.255L1439.61 194.007M1439.61 194.007L1439.61 196.619M1439.61 196.619L1439.61 199.127M1439.61 199.127L1439.61 200.442M1439.61 200.442L1439.61 201.538M1439.61 201.538L1439.61 203.856M1439.61 203.856L1439.61 206.087M1439.61 206.087L1439.61 206.873M1439.61 206.873L1439.61 208.236M1439.61 208.236L1439.61 210.307M1439.61 210.307L1439.61 212.305M1439.61 212.305L1439.61 212.66M1439.61 212.66L1439.61 214.232M1439.61 214.232L1439.61 216.094M1439.61 216.094L1439.61 217.892M1439.61 217.892L1439.64 217.892L1439.61 217.896M1439.61 217.892L1439.61 217.896M1439.61 217.896L1439.61 219.631M1439.61 219.631L1439.61 221.313M1439.61 0.0558442L1439.61 8.44654M1439.61 8.44654L1439.61 16M1439.61 16L1439.61 30.4422M1439.61 30.4422L1439.61 43.5853M1439.61 43.5853L1439.61 47.7184M1439.61 47.7184L1439.61 55.5967M1439.61 55.5967L1439.61 66.6168M1439.61 66.6168L1439.61 76.7632M1439.61 76.7632L1439.61 78.2633M1439.61 78.2633L1439.61 86.1363M1439.61 86.1363L1439.61 94.8206M1439.61 94.8206L1439.61 102.699M1439.61 102.699L1439.61 102.89M1439.61 102.89L1439.61 110.407M1439.61 110.407L1439.61 117.427M1439.61 117.427L1439.61 122.692M1439.61 122.692L1439.61 123.997M1439.61 123.997L1439.61 130.159M1439.61 130.159L1439.61 135.951M1439.61 135.951L1439.61 139.353M1439.61 139.353L1439.61 141.404M1439.61 141.404L1439.61 146.548M1439.61 146.548L1439.61 151.408M1439.61 151.408L1439.61 153.45M1439.61 153.45L1439.61 156.007M1439.61 156.007L1439.61 160.365M1439.61 160.365L1439.61 164.501M1439.61 164.501L1439.61 165.534M1439.61 165.534L1439.61 168.431M1439.61 168.431L1439.61 172.171" stroke="url(#paint0_radial_448_1192)" stroke-opacity="0.7" strokeWidth="0.608754" stroke-miterlimit="10" stroke-linecap="round" stroke-linejoin="round"/>
<defs>
<radialGradient id="paint0_radial_448_1192" cx="0" cy="0" r="1" gradientUnits="userSpaceOnUse" gradientTransform="translate(720 8.21578) rotate(90) scale(348.986 2254.13)">
<stop stop-color="#525252"/>
<stop offset="0.489074" stop-color="#CED2DF" stop-opacity="0"/>
</radialGradient>
</defs>
</svg>
